<svg xmlns="http://www.w3.org/2000/svg" viewBox="0 0 739.36 861.37"><defs><style>.cls-1{fill:#010101;}</style></defs><g id="Livello_2" data-name="Livello 2"><g id="Livello_1-2" data-name="Livello 1"><path class="cls-1" d="M733,813.09c-8.65-11.68-23.65-16-37.63-16.11-10.72-.05-21.07,2.42-31.38,5.07l32.35-77.19q9.06-21.63,18.13-43.26c5.73-13.69,11.69-27.36,15.91-41.62,3.58-12.08,6.33-25,4.91-37.62-1.26-11.23-5.27-22.38-14.56-29.41-5.3-4-11.83-5.62-18.38-6-7.35-.42-14.81.21-22.16.46L633.34,569l-93.79,3.16-7.5.26c8.31-19.47,11.6-40.85,11.14-62a167.81,167.81,0,0,0-6-39.18c-1.67-6.32-3.66-12.57-5.9-18.71-1.88-5.13-4.14-10.15-6.39-15.12a299.36,299.36,0,0,0-30.34-52.95c-12.18-16.72-26.31-31.89-43-44.22a142.74,142.74,0,0,0-54.95-25.13l-1.32-.26q-8.14-24.36-18.72-47.84A495.24,495.24,0,0,0,346,209.42a504.92,504.92,0,0,0-38-53.27,499.12,499.12,0,0,0-37.82-41.41Q253.62,98.59,235.66,84l-1.54-1.23a50.38,50.38,0,0,0,2.36-18.94c-.31-4-.66-7.92-.86-11.89-.22-4.56-.58-9.09-1.2-13.6-2.09-15.27-9.63-31.78-25.36-36.95a27.08,27.08,0,0,0-21.49,1.91,24.51,24.51,0,0,0-10.83,14c-1.93,6-2,12.67-1.77,19a128.94,128.94,0,0,0,1.58,15.31A148.8,148.8,0,0,0,189.8,92.28c.37.76.74,1.52,1.12,2.28h0q14,30.25,27.46,60.72,13.65,30.84,26.8,61.89l1.78,4.23.12.27.57,1.37,1,2.28q1.81,4.35,3.64,8.69,2.47,5.91,4.91,11.84a67,67,0,0,0-48.41,23.63c-15.25,18.19-21.14,43.3-16.58,66.5a67.06,67.06,0,0,0,12.53,28,59.24,59.24,0,0,0,25.63,19.14,56.46,56.46,0,0,0,26.31,3.33l32.62,36.68a3.65,3.65,0,0,0,.51.45A67.27,67.27,0,0,0,304.61,441a70.68,70.68,0,0,0,16.58,10.48,3.71,3.71,0,0,0,2.48,1.51,62.44,62.44,0,0,1,10.54,2.35c1.63.52,3.22,1.12,4.8,1.75l.57.23,1.13.52c.81.37,1.62.77,2.42,1.17a73.22,73.22,0,0,1,9.19,5.64l1,.74.67.5.8.63,1.13.93q2.08,1.75,4.05,3.65a83.71,83.71,0,0,1,7.26,7.92l.79,1,0,0,0,0,0,0,.16.22a2.35,2.35,0,0,1,.19.25q.82,1.1,1.62,2.22,1.58,2.25,3,4.59a89.65,89.65,0,0,1,5.07,9.47c.21.44.41.89.61,1.34,0,.11.21.49.28.64.4,1,.79,1.95,1.16,2.93.78,2,1.49,4.12,2.14,6.21a115.31,115.31,0,0,1,3.17,12.72c.41,2.14.75,4.29,1.06,6.45l.09.71.18,1.51c.12,1.09.23,2.19.33,3.28a173.38,173.38,0,0,1,.21,26.48c-.28,4.32-.7,8.64-1.22,12.94-.06.51-.13,1-.19,1.51,0,.08-.06.43-.08.63s0,.22,0,.24c-.15,1-.31,2.08-.51,3.11s-.42,2.06-.7,3.07q-.19.7-.42,1.38c-.07.23-.15.46-.23.68,0,.05-.15.37-.21.54l-.11.25-.32.64c-.23.43-.46.85-.72,1.25-.09.15-.52.76-.58.88-.25.31-.51.61-.78.91q-.89.95-1.86,1.8c-.32.29-.65.57-1,.85l-.51.41-.11.09-.08.06a77.34,77.34,0,0,0-9.49,7.39c-11.31,11.09-10.72,27.95-12.32,42.54l-.15,1.28c0,.11-.07.53-.1.78s-.1.73-.12.85c-.08.56-.17,1.11-.27,1.67-.29,1.68-.63,3.35-1.07,5-.31,1.18-.67,2.34-1.09,3.49l-.3.78,0,.11s-.2.48-.27.61c-.13.29-.27.59-.41.88a41.4,41.4,0,0,1-3.74,6.19l-.2.26c.08-.09.08-.08-.22.31l0,0-.05.07v0c-.36.46-.74.91-1.12,1.35-.83,1-1.7,1.88-2.6,2.78s-1.88,1.82-2.87,2.68c-.47.41-.94.81-1.42,1.2-.28.23-.56.47-.85.69l-.37.3-.15.15,0,0h0l-.38.29-.78.58c-.62.45-1.25.89-1.88,1.33-1.21.84-2.44,1.64-3.69,2.42a159.11,159.11,0,0,1-17,9.13q-4.84,2.28-9.79,4.37l-1.1.47-.74.31-2.7,1.12q-2.76,1.14-5.54,2.25c-7.95,3.18-15.94,6.23-23.94,9.28Q253,710,234.57,715.08a410.66,410.66,0,0,1-48.22,10.17l-3.42.49-1.6.22-.4.06-.41.05q-3.54.46-7.08.87h0a149.52,149.52,0,0,1-19.4.64c-3.23-.1-6.47-.3-9.69-.61-1.5-.14-3-.31-4.5-.49l-.82-.11-.85-.12c-.85-.12-1.71-.25-2.56-.39a155.18,155.18,0,0,1-18.93-4.3q-4.56-1.34-9-2.95-2.23-.81-4.44-1.68l-2-.81-.79-.34-.8-.34a152.71,152.71,0,0,1-14-7,12,12,0,0,0-1.4-4.08A8,8,0,0,0,81,701.21a6.12,6.12,0,0,0-.93-.35,9.89,9.89,0,0,0-7.8.69,30,30,0,0,0-6.79,5c-2.87,2.55-5.55,5.31-8.21,8.07-3.49,3.64-7,7.28-10.35,11-10.31,11.52-18.31,24.78-25.67,38.32A233.49,233.49,0,0,0,7.82,793.48a135,135,0,0,0-6.27,21.29A80.73,80.73,0,0,0,.09,826.14c-.19,3.8-.2,8,1.24,11.57s4,6.54,8,7.19c4.17.68,8.21-.56,11.93-2.38,16,1.31,32.22-3,46-11.39,16.16-9.84,28.67-24.83,36.59-41.92,1.57-3.39,3-6.84,4.23-10.35q20.67-1.3,41.41-.77a710.59,710.59,0,0,0,79.11,7.19,522.25,522.25,0,0,0,59.08-1.36c18-1.49,36.22-3.56,53.58-8.65a188.4,188.4,0,0,0,61.8-31.82A241.3,241.3,0,0,0,444,703.07c.74-.93,1.47-1.88,2.21-2.83a4.68,4.68,0,0,0,1.14.15,589.24,589.24,0,0,0,76.59-5.31,582.6,582.6,0,0,0,74.46-15q16.23-4.4,32.17-9.75-12.74,46.44-25.46,92.86-7,25.49-14,51c-2.29,8.38-4.65,16.75-6.89,25.14-1.2,4.48-1.79,9.15.47,13.41,1.78,3.36,5.21,5.47,8.75,6.56a37.69,37.69,0,0,0,9.87,1.26q6.66.24,13.32.4,13.32.35,26.64.42,26.1.15,52.18-.69c4.37-.14,8.74-.29,13.11-.49a55,55,0,0,0,12.39-1.64A24.31,24.31,0,0,0,736,846.77C741.54,836.35,740,822.49,733,813.09Zm-7.82-211.62a.75.75,0,0,1,0-.11A.63.63,0,0,1,725.22,601.47Zm-193.34-65.9ZM308.51,172.83Zm-87.3-146.2s-.07-.19-.13-.32A.7.7,0,0,1,221.21,26.63Zm-9-12.44-.25-.2A.8.8,0,0,1,212.19,14.19Zm30.2,171.22q-13.37-31-27.24-61.74c-1.09-2.41-2.19-4.82-3.28-7.24q9.3,9.06,18.26,18.46t17.4,19.22q4.25,4.92,8.33,10,2.08,2.56,4.11,5.15l1,1.26.49.63.27.35,0,.06.49.63,1.21,1.59a323.37,323.37,0,0,1,27.88,43.17q3,5.7,5.78,11.55c.88,1.88,1.75,3.78,2.58,5.68.42,1,.86,1.9,1.24,2.87-.41-1,.11.27.25.6l.66,1.62A217,217,0,0,1,310,263.14c.13.46.24.93.36,1.4-11.46-10.4-27.05-16.49-42.23-18.26Q255.49,215.74,242.39,185.41Zm39.18,192.73a76.69,76.69,0,0,0,.1,21.45q-6.85-7.71-13.7-15.41A61.27,61.27,0,0,0,281.57,378.14Zm105,149h0C386.62,527.65,386.57,527.29,386.54,527.12ZM52.47,827.57Zm16.89-9.93h0C69.55,817.5,70,817.13,69.36,817.64Zm523.76,27.29c0-.17,0-.12,0,0Zm.17,2.73c-.12-.21-.18-.66,0,0ZM728,840.56l0,0C727.74,841.17,727.84,840.85,728,840.56Zm1.36-6.24c0,.53-.08,1.06-.12,1.6h0c-.08.43-.15.86-.24,1.28a26.62,26.62,0,0,1-.93,3.16,7.13,7.13,0,0,0-.33.78,17.32,17.32,0,0,1-1.08,1.93,7.4,7.4,0,0,0-.88,1.22l0,0c-.18.2-.35.39-.54.58a16,16,0,0,1-1.26,1.21l-.26.23c-.23.16-.51.33-.54.35a17.91,17.91,0,0,1-2,1.14l-.77.35-.69.26a30,30,0,0,1-5.3,1.25l-.94.12-1.46.13c-.81.07-1.62.12-2.44.16-2.1.11-4.21.18-6.31.26-33.64,1.28-67.38,1.43-101,.11-.75,0-1.49-.06-2.23-.12l-.76-.07H599a7.83,7.83,0,0,1-2.22-.45l-.71-.2-.69-.23c-.52-.2-.46-.17.19.1-.48,0-1.11-.61-1.53-.85l-.06-.08a1.79,1.79,0,0,0-.35-.28c-.13-.21-.25-.47-.34-.63s-.15-.79-.2-.88c0-.48,0-1,0-1.45v-.18c.07-.45.16-.89.26-1.33.21-1,.47-1.9.73-2.85.57-2.06,1.13-4.12,1.7-6.17q1.65-6,3.31-12.08,6.69-24.42,13.39-48.83,13.47-49.11,26.93-98.21l3.24-11.8c1-3.48-2.47-7.45-6.15-6.15a578.75,578.75,0,0,1-72.63,20.35q-18.6,3.93-37.42,6.63l-4.45.62h0l-.19,0-1.3.17-2.62.34q-4.59.57-9.18,1.08-9.44,1-18.92,1.76-21.18,1.62-42.45,1.68a4.62,4.62,0,0,0-1.38.21c-2.45-1-4.73-.1-6.33,2l.1-.13-.48.61-.76,1-2,2.48q-2,2.43-4,4.81-4.27,5.07-8.81,9.92a228.4,228.4,0,0,1-21.24,20c-.94.78-1.89,1.55-2.84,2.31l-1.29,1-.76.59-.34.27q-3.17,2.4-6.41,4.7-6.7,4.71-13.79,8.86-7.26,4.23-14.9,7.8c-1.25.58-2.5,1.14-3.77,1.7l-1.06.46-.51.21c-.64.28-1.29.54-1.94.8-2.77,1.12-5.58,2.17-8.4,3.15a179.72,179.72,0,0,1-32.07,7.74l-3.48.5-1.18.17c-.5.07-2,.54-.39.05a31.56,31.56,0,0,1-5.24.67c-3.7.45-7.42.84-11.14,1.2a507.46,507.46,0,0,1-56.37,2,673.4,673.4,0,0,1-75.2-5.75c-2.74-.36-5.74-.77-8.86-1.22a5,5,0,0,0-1.82-.38q-19.71-.57-39.42.56c.9-3.4,1.67-6.82,2.29-10.29.46-2.56-.69-5.51-3.49-6.15-2.44-.55-5.66.74-6.15,3.5a128,128,0,0,1-3,13.09c-.64,2.22-1.35,4.43-2.12,6.61-.35,1-.71,2-1.08,3L97.08,780l-.31.78c0,.06-.18.41-.26.61a2.87,2.87,0,0,1-.14.32l-.33.77c-.2.45-.4.89-.61,1.34Q94.7,785.4,93.9,787q-1.5,3-3.19,5.9c-1.15,2-2.38,3.94-3.67,5.84-.59.87-1.19,1.72-1.81,2.57q-.42.59-.87,1.17l-.28.38c.17-.23-.41.51-.47.6A87.63,87.63,0,0,1,74.78,813q-2.34,2.19-4.85,4.19l-.6.47c-.41.32-.83.63-1.26.94-.86.63-1.73,1.25-2.62,1.84a80.78,80.78,0,0,1-11.13,6.3l-1.45.65-.44.2-.2.08c-1,.41-2.1.83-3.16,1.21-2,.71-4,1.34-6.09,1.87a69.76,69.76,0,0,1-7,1.46l-.73.1-.12,0-1.78.19-1.25.09A157.8,157.8,0,0,0,44,815c5.85-9.75,11.17-19.82,16.17-30,5.35-10.93,10.33-22.06,14.81-33.38a201.26,201.26,0,0,0,9.18-27.68c.34-1.45.64-2.92.91-4.39a160.35,160.35,0,0,0,66.21,18,151,151,0,0,0,22.2-.53h0a426.85,426.85,0,0,0,53.14-9.45,397.47,397.47,0,0,0,40-12.08c15-5.41,29.93-11.21,44.58-17.54,12.2-5.27,24.29-11.14,34.75-19.47,8.45-6.72,15.26-15.61,18-26.2,1.95-7.59,2.29-15.51,3-23.29q.24-2.61.57-5.19c0-.16,0-.42.08-.61.08-.48.15-1,.23-1.44.15-.87.32-1.75.5-2.62a44.91,44.91,0,0,1,1.43-5.23c.13-.37.26-.74.4-1.11,0-.12.26-.63.32-.79v0c.12-.23.22-.47.34-.71.2-.41.41-.81.63-1.21a24.46,24.46,0,0,1,1.32-2.19l.68-1c-.55.8.09-.11.33-.4a31.81,31.81,0,0,1,3.95-3.75l.61-.48,1.07-.79,2.49-1.8a57,57,0,0,0,5.09-4.06c7.2-6.66,8.34-16.07,9.4-25.3,2.07-18,2.09-36.41-1.61-54.24a102.73,102.73,0,0,0-21-44.7c-9.63-11.68-22.42-21-36.91-25.59a61.46,61.46,0,0,0-9.46-2.18,3.53,3.53,0,0,0-.87-.54,65.49,65.49,0,0,1-13.28-7.79l-.06,0-.16-.12-.34-.26.2.15-1-.8c-.81-.67-1.61-1.36-2.39-2.08a64,64,0,0,1-4.58-4.59c-.73-.81-1.44-1.63-2.12-2.48l-.53-.66h0c-.4-.54-.8-1.07-1.18-1.61a63,63,0,0,1-4-6.46c-.6-1.13-1.16-2.26-1.69-3.42-.05-.11-.1-.21-.14-.32-.25-.63-.5-1.27-.73-1.91a68.54,68.54,0,0,1-2.45-9c-.19-.9-.35-1.79-.5-2.7-.09-.51-.16-1-.24-1.53,0-.35-.09-.7-.12-1.06a70,70,0,0,1-.44-7.24,68.57,68.57,0,0,1,.4-8c0-.27.07-.55.1-.83v-.13c.11-.63.19-1.27.31-1.9.28-1.59.62-3.17,1-4.74s.91-3.24,1.47-4.82c.14-.4.29-.8.44-1.19s.52-.55.77-.84a5.72,5.72,0,0,0,1.4-4.13,61.82,61.82,0,0,1,4.08-6.94c.38-.56.76-1.11,1.16-1.65l.7-.95.06-.08a.73.73,0,0,1,.09-.11c.82-1,1.66-2,2.54-3,1.53-1.7,3.15-3.32,4.84-4.86a5,5,0,0,0,0-7.07,5.11,5.11,0,0,0-7.07,0A68.81,68.81,0,0,0,286,362c-.93,1-1.88,1.88-2.88,2.76-.46.4-.92.8-1.38,1.18l-.57.46-.09.07,0,0c-1,.72-1.95,1.42-3,2.08a54.33,54.33,0,0,1-6.27,3.52c-.54.26-1.09.5-1.64.75l-.12.06-.51.2c-1.17.46-2.35.88-3.55,1.26a55.32,55.32,0,0,1-7,1.74l-1.59.26h.09c-.24,0-.48.06-.72.08-1.3.16-2.62.26-3.93.32a55.54,55.54,0,0,1-7.18-.17l-1.43-.15h-.1l-.71-.11c-1.25-.2-2.49-.45-3.72-.73a52.45,52.45,0,0,1-6.93-2.16l-.56-.22-.11-.05c-.56-.26-1.12-.51-1.68-.78-1.12-.53-2.21-1.11-3.29-1.72a43.14,43.14,0,0,1-6-3.95c-.26-.23-.62-.52-.74-.62L219.14,365c-.88-.79-1.73-1.6-2.56-2.45s-1.63-1.7-2.39-2.59c-.35-.4-.69-.8-1-1.21l-.55-.69h0l-.06-.09a65.23,65.23,0,0,1-3.86-5.87c-.56-1-1.09-2-1.59-3a26.85,26.85,0,0,1-1.39-2.85,1.61,1.61,0,0,0-.09-.29l-.4-1c-.17-.44-.34-.88-.5-1.32-.45-1.23-.87-2.46-1.24-3.71a69.74,69.74,0,0,1-1.71-6.95c-.2-1.06-.37-2.12-.54-3.19h0l-.09-.81c-.08-.66-.14-1.32-.2-2a76.6,76.6,0,0,1,.23-15.14c.05-.39.1-.78.14-1.17v-.07c.11-.71.22-1.42.34-2.12.24-1.41.53-2.82.84-4.21a75.68,75.68,0,0,1,2.38-8.22c.24-.68.48-1.35.74-2,.1-.27.2-.53.31-.8l.28-.69c.52-1.21,1.07-2.41,1.66-3.58a70.57,70.57,0,0,1,4.3-7.45q1.07-1.61,2.22-3.15l.1-.14c.12-.17.27-.34.4-.51.47-.59,1-1.17,1.45-1.75a66.67,66.67,0,0,1,5.22-5.41c.82-.75,1.66-1.49,2.52-2.2.37-.3.76-.69,1.17-1a2.16,2.16,0,0,0,.3-.18c.34-.26.69-.51,1-.76a60.78,60.78,0,0,1,6.08-3.82c1-.56,2.06-1.09,3.11-1.59l1.67-.77L238,260l.48-.18a60.07,60.07,0,0,1,6.84-2.24c1.19-.32,2.4-.6,3.61-.84l1.84-.33c.25-.05.49-.09.74-.12l.44-.08a49.28,49.28,0,0,1,7.28-.48,67.12,67.12,0,0,1,7.5.35l1.86.21.35,0,.55.09c1.24.2,2.48.42,3.71.68a74.83,74.83,0,0,1,7.35,1.91q1.73.54,3.42,1.17l1.61.61.88.36.38.16a67,67,0,0,1,13,7.47l.58.44.06,0c.48.4,1,.79,1.45,1.2,1,.85,2,1.73,2.92,2.65a43.5,43.5,0,0,1,4.77,5.29l.24.33.44.61c.43.61.85,1.22,1.25,1.85a43.59,43.59,0,0,1,2.21,3.88,4.32,4.32,0,0,0,1.26,1.46,8.67,8.67,0,0,1,.17,1.58s-.12-.94-.05-.36c0,.26.07.52.1.78.07.52.13,1,.19,1.57.14,1.1.26,2.21.37,3.32.21,2.1.39,4.21.52,6.31q.44,6.59.39,13.18c0,2.16-.07,4.32-.15,6.48a5,5,0,0,0,5,5,5.11,5.11,0,0,0,5-5,192.47,192.47,0,0,0-5.23-52.55,229.28,229.28,0,0,0-18.06-48.75,308.8,308.8,0,0,0-27.3-44.33A460.47,460.47,0,0,0,242,132.9c-11.77-12.71-24.13-24.85-36.82-36.63q-2-1.86-4-3.71c-1.78-3.41-3.47-6.88-5-10.4l-.63-1.45-.1-.24-.09-.21c-.36-.88-.72-1.75-1.06-2.63q-1-2.55-1.92-5.13a138.55,138.55,0,0,1-5.13-18.34q-.78-3.85-1.33-7.76l-.09-.7c-.08-.63-.15-1.27-.22-1.91-.12-1.12-.22-2.24-.31-3.36a81.27,81.27,0,0,1,0-15.44,1.76,1.76,0,0,0,0-.19v0c.05-.33.1-.66.16-1,.12-.67.26-1.34.43-2a32.39,32.39,0,0,1,1.06-3.34l.33-.68c.25-.49.52-1,.81-1.43s.51-.74.76-1.11c.18-.2.35-.41.52-.61.42-.45.86-.89,1.31-1.31L191,13c.1-.06.62-.46.76-.55a17,17,0,0,1,1.81-1l.24-.11c.38-.11.77-.32,1.14-.44a20.08,20.08,0,0,1,2-.55l1-.19h0l.23,0a28,28,0,0,1,4.49,0l.21,0,1.06.2c.81.18,1.62.4,2.41.66l1,.35.37.17c.63.31,1.25.61,1.86,1s1.41.87,2.08,1.35l.16.1.05,0c.34.29.69.57,1,.86a29.84,29.84,0,0,1,3.45,3.57l.36.44c.37.44-.17-.23-.19-.25a4.2,4.2,0,0,1,.68.93c.52.74,1,1.5,1.48,2.27A42.66,42.66,0,0,1,221,26.1a1.18,1.18,0,0,0,.08.16l0,.07.49,1.26c.3.79.57,1.58.82,2.38a56.53,56.53,0,0,1,1.52,5.89c.19.92.36,1.85.51,2.78.08.47.15.93.22,1.4l.06.47c0,.07,0,.17,0,.31q.36,3.06.58,6.13c.29,4,.35,8.11.71,12.15a68.22,68.22,0,0,1,.53,10.49c0,.45-.07.91-.12,1.36,0,.15-.08.77-.1,1a1.26,1.26,0,0,0,0,.21c0,.22-.07.44-.11.66-.09.56-.19,1.13-.3,1.7-.32,1.59-.7,3.16-1.16,4.72-.38,1.3-.82,2.59-1.29,3.86a4,4,0,0,0-.12,2.28,3.88,3.88,0,0,0,1.4,2.59l.08.06a5.1,5.1,0,0,0,.77.62q17,13.65,32.86,28.72a500.41,500.41,0,0,1,37.34,39.72q4.84,5.74,9.5,11.63l2.27,2.89,1,1.28.1.12c.26.35.53.69.8,1,1.61,2.11,3.2,4.22,4.78,6.36q9.72,13.13,18.56,26.87a494.78,494.78,0,0,1,31.85,57.61q3.18,6.76,6.14,13.61c.46,1.06.91,2.12,1.37,3.19.05.13.18.42.22.53s.09.22.14.32l.77,1.85q1.32,3.19,2.6,6.4,4.68,11.75,8.76,23.72a4.26,4.26,0,0,0-1.9,2.68c-.54,2.38.73,5.73,3.49,6.15.88.13,1.75.28,2.62.43a4.55,4.55,0,0,0,4,.76,132.66,132.66,0,0,1,22.59,6.72l1.57.64.13.05c.19.07.39.17.57.25,1.21.52,2.4,1.05,3.59,1.6q3.3,1.55,6.51,3.25a143.28,143.28,0,0,1,12.44,7.43q3.09,2.07,6.09,4.27l1.49,1.12.59.45.58.45.18.14.58.46c.59.46,1.17.93,1.74,1.4,3.78,3.07,7.41,6.31,10.91,9.68a212.79,212.79,0,0,1,19.78,22.12h0l0,0c.15.2.31.4.46.61.39.5.77,1,1.15,1.52.77,1,1.52,2,2.27,3.07,1.5,2.06,3,4.15,4.4,6.26q4.2,6.17,8.06,12.58c5.16,8.56,9.89,17.4,14.22,26.41q3.23,6.73,6.17,13.58l.66,1.56h0a4.76,4.76,0,0,1,.29.69c.56,1.34,1.1,2.68,1.6,4q1.65,4.51,3.12,9.1c1.92,6.05,3.58,12.18,4.94,18.38q1,4.78,1.86,9.61c.25,1.46.48,2.92.7,4.38l.21,1.47a2.69,2.69,0,0,0,0,.29c.11.85.23,1.71.32,2.56a142.86,142.86,0,0,1,.44,18.62c-.09,3-.25,6.07-.51,9.1-.12,1.47-.27,2.94-.43,4.41-.09.77-.19,1.54-.28,2.31,0,.05,0,.16,0,.26,0,.39-.11.78-.16,1.17A137.55,137.55,0,0,1,528,554.21c-.84,3-1.79,5.89-2.84,8.77-.51,1.38-1,2.74-1.59,4.09-.12.31-.25.62-.38.93l-.1.22c-.37.85-.74,1.7-1.13,2.54-1.23,2.68-2.57,5.3-4,7.87a5,5,0,1,0,8.63,5c.22-.4.42-.8.64-1.2a5,5,0,0,0,.88.06l92.29-3.11,46.39-1.57,23-.77c3.55-.12,7.11-.3,10.66-.22q2.28.06,4.53.3l.79.12c.44.08.87.16,1.31.26a26.13,26.13,0,0,1,2.56.68l1.25.44.11,0h0c.53.25,1.05.49,1.56.77s1,.56,1.48.87c.26.16.52.33.77.51l.69.51h0l.69.6c.45.4.89.83,1.31,1.26s.7.75,1,1.13l.49.59.23.33a29.55,29.55,0,0,1,1.82,2.87c.26.46.5.92.73,1.39.15.28.28.56.42.85l.15.33a7.91,7.91,0,0,0,.56,1.42q.35.9.63,1.83c.4,1.25.74,2.52,1,3.79s.49,2.39.68,3.6c0,.19,0,.31.06.4s0,.39,0,.43c.08.72.15,1.45.21,2.17a64.5,64.5,0,0,1,.13,7.74c0,1.22-.13,2.44-.25,3.65-.06.63-.13,1.26-.2,1.89-.08.47-.14,1-.22,1.42-.56,3.55-1.28,7.07-2.12,10.57-3.45,14.18-9,27.74-14.59,41.17q-8.82,21.11-17.68,42.19-17.83,42.59-35.68,85.16l-2.9,6.92-3.27.75c-1.86.4-3.73.78-5.61,1.1-1,.18-2.06.34-3.09.49l-.36.06-.37,0-1.55.17c-2.6.27-5.13,2.1-5,5,.11,2.47,2.21,5.29,5,5a130.56,130.56,0,0,0,16-2.86l.21.07a4.86,4.86,0,0,0,4.67-1.25c8.72-2.19,17.39-4.63,26.31-6l.54-.08.88-.11c.79-.09,1.57-.17,2.36-.24,1.65-.14,3.3-.23,5-.26s3.16,0,4.75.07c.85,0,1.71.1,2.57.18l.85.08,1.17.16a50.09,50.09,0,0,1,9,2.24l1.17.45.11,0c.71.31,1.42.64,2.11,1a35.54,35.54,0,0,1,4.27,2.57l.68.49.14.1.17.15c.61.53,1.24,1.05,1.83,1.62q.6.58,1.17,1.2l.66.76.42.52-.37-.48c.42.21.89,1.27,1.14,1.66s.59,1,.86,1.46.63,1.19.91,1.81l.14.31c.22.5.18.41-.11-.26.19.17.29.73.37,1a29.43,29.43,0,0,1,1.06,3.58c.15.66.26,1.32.38,2s0-.32,0-.33a6.73,6.73,0,0,1,.14,1.34A26.45,26.45,0,0,1,729.31,834.32Z"/><path class="cls-1" d="M368.05,480.05c.34.46.29.38.17.23l-.16-.22Z"/><path class="cls-1" d="M338.47,671.62c.27-.21.18-.34,0,0Z"/><path class="cls-1" d="M348.12,662.14a3.76,3.76,0,0,0-.3.39l0,0C347.91,662.41,348,662.28,348.12,662.14Z"/><path class="cls-1" d="M312.9,434.94l.14.11h0l.16.12C313.4,435.32,313.53,435.4,312.9,434.94Z"/><path class="cls-1" d="M257.47,376.38h0C256.37,376.43,257.13,376.43,257.47,376.38Z"/></g></g></svg>