<svg xmlns="http://www.w3.org/2000/svg" xmlns:xlink="http://www.w3.org/1999/xlink" version="1.1" x="0px" y="0px" viewBox="0 0 100 125" enable-background="new 0 0 100 100" xml:space="preserve"><path fill="#000000" d="M72.928,65.072H57.555c-1.444-3.578-2.655-6.973-2.466-10.124c0.215-3.662,2.315-7.402,4.54-11.361  c0.079-0.14,0.144-0.289,0.195-0.445c0.02-0.061,0.029-0.122,0.045-0.183c0.019-0.077,0.045-0.152,0.057-0.232  c0.183-1.216,0.369-2.501,0.548-3.808c3.454-0.867,6.022-3.988,6.022-7.706c0-3.47-2.235-6.419-5.339-7.504  c-0.2-3.496-0.576-6.971-0.951-10.377l-0.019-0.168c-0.152-1.371-1.379-2.36-2.759-2.212c-1.372,0.151-2.362,1.387-2.212,2.759  l0.019,0.168c0.354,3.215,0.708,6.49,0.907,9.752c-3.209,1.021-5.541,4.033-5.541,7.582c0,3.299,2.016,6.134,4.878,7.337  c-0.141,1.002-0.284,1.999-0.433,2.986c-2.333,4.156-4.676,8.455-4.949,13.115c-0.25,4.156,1.187,8.231,2.799,12.236  c-3.622,3.251-7.364,6.523-11.328,9.2c-4.708,3.183-10.021,5.737-15.158,8.208c-1.244,0.599-1.768,2.092-1.169,3.336  c0.43,0.896,1.324,1.418,2.255,1.418c0.363,0,0.732-0.08,1.082-0.248c5.3-2.549,10.78-5.184,15.791-8.57  c4.459-3.012,8.532-6.621,12.466-10.159h13.594v16.477c0,1.381,1.119,2.5,2.5,2.5s2.5-1.119,2.5-2.5V67.572  C75.428,66.191,74.309,65.072,72.928,65.072z M61.15,32.569c0.026-0.383,0.064-0.765,0.084-1.146  c0.021-0.442,0.027-0.886,0.039-1.328c0.142,0.345,0.223,0.722,0.223,1.118C61.496,31.704,61.364,32.161,61.15,32.569z   M55.602,31.213c0-0.719,0.267-1.368,0.691-1.881c-0.01,0.617-0.023,1.232-0.053,1.845c-0.028,0.566-0.08,1.134-0.124,1.7  C55.792,32.402,55.602,31.83,55.602,31.213z"/><text x="0" y="115" fill="#000000" font-size="5px" font-weight="bold" font-family="'Helvetica Neue', Helvetica, Arial-Unicode, Arial, Sans-serif">Created by Lluisa Iborra</text><text x="0" y="120" fill="#000000" font-size="5px" font-weight="bold" font-family="'Helvetica Neue', Helvetica, Arial-Unicode, Arial, Sans-serif">from the Noun Project</text></svg>