<svg xmlns="http://www.w3.org/2000/svg" xmlns:xlink="http://www.w3.org/1999/xlink" version="1.1" x="0px" y="0px" viewBox="0 0 100 125" enable-background="new 0 0 100 100" xml:space="preserve"><path fill="#000000" d="M69.867,39.071c4.109,0,7.453-3.342,7.453-7.451c0-4.11-3.344-7.455-7.453-7.455s-7.453,3.344-7.453,7.455  C62.414,35.729,65.758,39.071,69.867,39.071z M69.867,28.166c1.904,0,3.453,1.55,3.453,3.455c0,1.903-1.549,3.451-3.453,3.451  s-3.453-1.548-3.453-3.451C66.414,29.715,67.963,28.166,69.867,28.166z"/><path fill="#000000" d="M21.568,72.701c4.407,0.831,8.931,1.684,13.425,1.684c1.176,0,2.351-0.059,3.521-0.19  c5.186-0.602,10.117-2.624,14.886-4.579c0.147-0.061,0.28-0.14,0.404-0.229c0.008-0.006,0.018-0.008,0.025-0.014  c2.989-2.209,6.08-4.494,8.51-7.398c1.572-1.88,2.829-3.98,3.923-6.174c0.362,2.205,0.888,4.369,1.737,6.418  c1.995,4.828,5.663,8.834,9.241,12.74l2.919-2.735c-3.465-3.783-6.738-7.357-8.464-11.534c-1.566-3.779-1.897-8.134-2.247-12.744  l-0.005-0.066c-0.083-1.101-1.06-1.902-2.143-1.81c-0.771,0.059-1.398,0.567-1.681,1.243l-0.032-0.013  c-1.808,4.503-3.515,8.757-6.317,12.109c-2.072,2.478-4.881,4.576-7.618,6.6c-4.447,1.823-9.039,3.685-13.595,4.213  c-5.037,0.569-10.238-0.41-15.749-1.449l-0.032-0.006c-1.086-0.204-2.116,0.512-2.32,1.598  C19.752,71.448,20.482,72.497,21.568,72.701z"/><text x="0" y="115" fill="#000000" font-size="5px" font-weight="bold" font-family="'Helvetica Neue', Helvetica, Arial-Unicode, Arial, Sans-serif">Created by Lluisa Iborra</text><text x="0" y="120" fill="#000000" font-size="5px" font-weight="bold" font-family="'Helvetica Neue', Helvetica, Arial-Unicode, Arial, Sans-serif">from the Noun Project</text></svg>