<svg xmlns="http://www.w3.org/2000/svg" viewBox="0 0 326.26 859.78"><defs><style>.cls-1{fill:#010101;}</style></defs><g id="Livello_2" data-name="Livello 2"><g id="Livello_1-2" data-name="Livello 1"><path class="cls-1" d="M280.5,805.67h0l-.2-.08Z"/><path class="cls-1" d="M246.26,420.57q.48-38.34,1-76.68.25-19.35.5-38.72a332.51,332.51,0,0,0,46.54,7.2q9.2.76,18.4,1l4.42.08a5.66,5.66,0,0,0,4.41-1.46,20,20,0,0,0,1.51-1.93c1.69-2.18,3.8-4.16,3.1-7.19-.3-1.28-.71-2.54-1.07-3.79q-5.19-18.42-10.65-36.76-9.16-30.84-19.09-61.46t-20.6-61.06q-1.62-4.62-3.25-9.22c-.06-.16-.13-.33-.2-.48A40.55,40.55,0,0,0,258.54,113a37.54,37.54,0,0,0-19.05-7.75,32.38,32.38,0,0,0-6.3-.09,59,59,0,0,0,4.2-8.82,72.17,72.17,0,0,0,3.81-32.84c-1.3-11.94-5-23.68-11.7-33.72A65.28,65.28,0,0,0,198.81,5.16,77.58,77.58,0,0,0,174.59.09,75.29,75.29,0,0,0,154.85,2a79.68,79.68,0,0,0-31.21,13.83,70.35,70.35,0,0,0-15.16,15.12A59.34,59.34,0,0,0,103,89.76,57.75,57.75,0,0,0,109.09,100a49.65,49.65,0,0,0-17.81,1.43c-11.66,3.15-21.94,10.64-29.51,19.94a60.63,60.63,0,0,0-5.68,8,5.08,5.08,0,0,0-.42,1c0,.07-.06.13-.08.2q-11.34,31.93-21.87,64.15Q24.09,224.25,15.13,254,9.79,271.76,4.68,289.61,3.33,294.33,2,299.08c-.35,1.25-.77,2.51-1.06,3.79-.7,3,1.41,5,3.09,7.19.5.63,1,1.35,1.51,1.93a5.58,5.58,0,0,0,4.41,1.46c1.55,0,3.1-.05,4.64-.09q4.55-.12,9.07-.36a331.13,331.13,0,0,0,51-6.8q.47,34.35.91,68.7l1,75q.27,21,.55,42h0q-3,57.24-6,114.48L65.24,720.25Q63.61,751.83,62,783.38a118.2,118.2,0,0,0-16.41,4.42,119.51,119.51,0,0,0-23.25,11c-7.33,4.49-14.38,10-18.79,17.5s-5.06,17.12.48,24.39c5.34,7,13.87,11,22.43,12.41s16.9.87,25.35-.11c9.5-1.11,19-2.37,28.48-3.55l58-7.26,2-.26a4.87,4.87,0,0,0,3.06,1.12,5,5,0,0,0,4.23-2.39,4.56,4.56,0,0,0,2.84-4.37,5.89,5.89,0,0,0-2.07-4.08V501.67a101.85,101.85,0,0,0,37.07-3.07q-2.56,63.95-5.11,127.88-2.68,67-5.36,134L172,836a4.54,4.54,0,0,0,1,3,4.78,4.78,0,0,0-1,3c.13,3,2.21,4.65,5,5l58.28,7.29,28.9,3.61c8.29,1,16.66,2.19,25,1.7,8.83-.53,17.46-2.86,24.53-8.35s10.57-14.55,7.82-23.33c-2.64-8.44-9.27-15.08-16.32-20.08a112.72,112.72,0,0,0-22.77-12.17,118.48,118.48,0,0,0-22-6.53q-3-56.67-5.9-113.35-3-57-5.93-113.9-1.68-32.12-3.35-64.25c0-.08,0-.16,0-.24s0-.13,0-.21ZM48.51,300.68Zm5.77-.85c-1.32.21-2.63.4-4,.59l-2,.28-.15,0-1.42.19a325.58,325.58,0,0,1-35.3,2.51l-.19-.25q9.89-35.12,20.71-70Q41.19,203.5,51.13,174q6.73-20,13.79-39.89c.32-.54.65-1.08,1-1.61s.74-1.11,1.13-1.66l.67-.93.6-.8.39-.49c.33-.41.67-.81,1-1.21.74-.88,1.5-1.73,2.29-2.56a60.9,60.9,0,0,1,5.49-5.16l.76-.61.11-.09c.56-.37,1.08-.81,1.63-1.19,1.18-.83,2.39-1.62,3.63-2.35s2.72-1.51,4.13-2.17l.65-.29c.15,0,.44-.19.51-.22.76-.3,1.53-.59,2.3-.85a43.35,43.35,0,0,1,4.71-1.32c.79-.18,1.59-.33,2.4-.46.14,0,1.14-.15.94-.14h0l.9-.09a44,44,0,0,1,6.07-.15c1,0,2,.12,3,.23l.4,0,.11,0c.53.08,1.06.16,1.59.26a49.88,49.88,0,0,1,6,1.52c.87.28,1.73.59,2.59.92l1,.4.58.26a51.91,51.91,0,0,1,6.94,3.81,4.46,4.46,0,0,0,2,.65,61.75,61.75,0,0,0,8,3.25,5,5,0,0,0,6.15-3.49,5.12,5.12,0,0,0-3.49-6.15c-.7-.23-1.4-.47-2.08-.72l-1-.39-.41-.16a39.6,39.6,0,0,1-4-2c-1.18-.64-2.34-1.32-3.47-2-.61-.39-1.22-.8-1.82-1.22l-.9-.64L127,104a42.83,42.83,0,0,1-6.47-5.94c-1-1.08-2-2.2-2.87-3.34l-.15-.18-.4-.55c-.51-.69-1-1.4-1.47-2.11a53.23,53.23,0,0,1-4.24-7.69l-.12-.25c-.13-.3-.25-.61-.37-.92-.27-.68-.52-1.37-.76-2.06-.5-1.46-.93-2.94-1.3-4.45s-.61-2.9-.86-4.37a.78.78,0,0,1,0-.14V72c0-.39-.09-.77-.13-1.16-.09-.89-.15-1.8-.2-2.7a58.76,58.76,0,0,1,.35-9.28v-.06s0-.09,0-.15c.07-.38.12-.76.19-1.14.11-.64.23-1.28.36-1.91.35-1.64.76-3.27,1.25-4.88s1-3,1.54-4.39l.23-.55c.08-.19.17-.38.18-.4.37-.82.76-1.64,1.17-2.44A54.86,54.86,0,0,1,117.81,35l0-.07.12-.14.74-.9c.49-.59,1-1.17,1.53-1.74q1.74-1.89,3.61-3.63,1.67-1.56,3.42-3l.91-.73.11-.1.09-.06c.71-.53,1.42-1,2.14-1.56A74.2,74.2,0,0,1,138,18.54c1.13-.59,2.26-1.16,3.42-1.7.61-.29,1.23-.56,1.85-.83l.31-.14-.28.12a4.68,4.68,0,0,1,1.22-.5q3.53-1.38,7.15-2.43c2.2-.63,4.43-1.18,6.67-1.63,1-.2,2.06-.39,3.09-.56l1.27-.19-.17,0,.42-.06H163l.42-.05a74,74,0,0,1,8.8-.56c2,0,3.92.15,5.87.34.72.07,1.44.16,2.16.25l.41.05,1.42.23c2.24.38,4.47.87,6.67,1.46A66.1,66.1,0,0,1,196,14.74l.95.38h0l.07,0,1.6.72c1.43.67,2.83,1.4,4.2,2.17s2.5,1.49,3.71,2.3c.6.4,1.19.8,1.77,1.22l.94.7.59.47a58,58,0,0,1,6.75,6.46c.45.51.89,1,1.33,1.55l.64.8.12.13a21.69,21.69,0,0,1,2.3,3.25,65.19,65.19,0,0,1,4.19,7.36q.38.77.72,1.53c.14.31.28.62.41.93a1.86,1.86,0,0,0,.13.23,13.5,13.5,0,0,1,.65,1.7c.28.74.55,1.48.8,2.23a72,72,0,0,1,2.19,7.79c.29,1.31.54,2.63.76,4,.09.54.17,1.09.25,1.63v0l.15,1.32a75.47,75.47,0,0,1,.42,7.95,70.53,70.53,0,0,1-.43,7.82c0,.32-.07.64-.11,1v0c-.09.61-.18,1.22-.28,1.82-.24,1.36-.51,2.7-.83,4a60.74,60.74,0,0,1-2.14,7.12c-.21.56-.43,1.11-.65,1.67l-.22.51c-.53,1.17-1.1,2.34-1.72,3.47-1.12,2.07-2.56,3.88-3.77,5.88.82-1.36-.19.21-.47.55s-.74.87-1.12,1.29a40.38,40.38,0,0,1-3.59,3.46l-.67.55-.59.46c-.82.51-1.61,1-2.38,1.62-1,.64-2.06,1.25-3.13,1.81a5,5,0,0,0,3.91,9.07,5.24,5.24,0,0,0,3.3-1.4l.7-.61.38-.31.18-.13,1.28-.86a35.2,35.2,0,0,1,3.69-2.2c.5-.26,1-.51,1.51-.74.27-.12.56-.22.81-.36l-.11.06h0a33.36,33.36,0,0,1,3.66-1.21c.66-.17,1.32-.33,2-.47l1-.19.44-.12a19.14,19.14,0,0,1,4.53-.13c.8,0,1.6.1,2.39.17l.14,0,.17,0c.42.08.84.14,1.25.23a31.57,31.57,0,0,1,4.47,1.26c.26.09.53.19.79.3s.39.11.42.09c.46.21,1,.59,1.25.71a30.38,30.38,0,0,1,3.5,2.11c.25.17.49.35.73.53h0l1.26,1.06c.89.8,1.75,1.64,2.57,2.52.35.38.7.78,1,1.18.14.16.29.41.46.63a.89.89,0,0,1,.29.29l.15.2,0,0,0,0,.12.16c.31.43.61.87.9,1.31a36.74,36.74,0,0,1,2.53,4.39c.08.16.14.32.22.47-.21-.47.1.15.24.53h0v0l-.24-.53.25.56q11.71,33,22.58,66.37Q294.69,231.2,304.18,263q6,20,11.62,40.14l-.18.24c-10.34-.18-20.67-.82-30.95-2l-4.36-.52-1.69-.22-.27,0-1.41-.2q-4.15-.58-8.31-1.29-8-1.35-16-3.12a331.75,331.75,0,0,1-56-17.74L196,278l-.08,0-.08,0-1.68-.72c-1.1-.47-2.21-1-3.31-1.44-2.14-.95-4.28-1.93-6.41-2.92q-6.19-2.91-12.29-6.05a5.55,5.55,0,0,0-1.44-.48c.44-.53.88-1.06,1.3-1.63a27.92,27.92,0,0,0,4.89-10.43,53.16,53.16,0,0,0,.79-11.82l0-1.48a4.33,4.33,0,0,0,0-.63c0-.5,0-1-.07-1.5-.13-5.59-.34-11.18-.45-16.76-.2-9.36-.63-18.71-.79-28.07,0-2.18,0-4.36,0-6.54l.09-.25,0,0a2.27,2.27,0,0,0,.13-.23l0,0,0,0,.13-.06c.17,0,.54-.1.77-.16h.61c.1,0,.45.05.62.05.42.1.83.19,1.24.31l.37.11.31.15c.32.17.63.37.94.56.12.11.27.23.3.27s.34.41.55.65c-.13-.2-.18-.41.06,0l.17.25.05,0-.05,0a6,6,0,0,1,.34.53c.22.36.43.74.62,1.12,0,0,.07.14.14.29l0,0c.36,1,.69,2,1,3,.56,2.09.95,4.23,1.32,6.37.68,3.93,1.35,7.85,2.36,11.72A108.62,108.62,0,0,0,200,239.44c-.83.12-1.65.22-2.48.35-2.59.41-4.25,3.78-3.49,6.15.91,2.82,3.38,3.94,6.15,3.5l1.66-.26.71-.1h0c1.23-.15,2.47-.3,3.71-.42,2.61-.26,5.24-.43,7.86-.52a124,124,0,0,1,18.68.76l1.2.15.3,0,.31,0c.8.12,1.59.23,2.38.36,1.67.28,3.33.58,5,.92,3,.62,6,1.34,8.9,2.18q4.17,1.18,8.25,2.65c1.24.45,2.47.92,3.7,1.41l1.68.68h0l1.05.45a126.26,126.26,0,0,1,12.81,6.51,5,5,0,1,0,5-8.64A129.88,129.88,0,0,0,216,238.09c-1.83,0-3.66.13-5.48.25a4.75,4.75,0,0,0-.65-1.94,116.94,116.94,0,0,1-7.57-14.57l-.05-.13-.3-.74q-.3-.72-.57-1.44c-.43-1.11-.83-2.22-1.21-3.34-.69-2-1.31-4-1.85-6-1.08-4-1.8-8-2.5-12.1-.78-4.55-1.64-9.26-4-13.33a16.15,16.15,0,0,0-12.79-8,12.61,12.61,0,0,0-3.08.08,13.6,13.6,0,0,0-2.46-5.92c-3-3.9-7.78-4.9-12.45-4a16.11,16.11,0,0,0-9.61,6.48c-4.2,5.68-4.88,13.41-5.7,20.18-.1.85-.2,1.7-.31,2.55-.05.42-.1.84-.16,1.26l0,.16h0c-.19,1.36-.4,2.72-.64,4.07-.54,3-1.2,6.09-2,9.09q-1.37,5.29-3.19,10.46c-.66,1.87-1.35,3.72-2.09,5.56-.17.41-.33.82-.5,1.22l-.25.6,0,.07c-.47,1-.92,2.11-1.4,3.15-.94,2-1.92,4.07-2.95,6.08a4.5,4.5,0,0,0-.2.51,124.19,124.19,0,0,0-22.64.57,132.37,132.37,0,0,0-37.11,10A126.22,126.22,0,0,0,59,255.66,5,5,0,0,0,64,264.3a124.53,124.53,0,0,1,11.25-5.81l1.56-.7c.3-.13,2-.93.74-.32,1.21-.58,2.5-1,3.75-1.5,2.64-1,5.31-1.92,8-2.74a126.49,126.49,0,0,1,18.46-4.1l.31,0,.3,0,1-.12c.79-.1,1.58-.18,2.37-.26,1.77-.18,3.53-.31,5.3-.41q4.61-.25,9.23-.18t9.18.51c1.31.13,2.62.27,3.93.43a7.17,7.17,0,0,0,.81.1h-.09l.18,0c.65.09,1.31.19,2,.3,2.57.4,5.51-.66,6.15-3.5.55-2.39-.73-5.71-3.49-6.15-.78-.12-1.57-.22-2.35-.33a134.23,134.23,0,0,0,12-37.11c.52-3.22.88-6.46,1.28-9.69.05-.43.11-.86.16-1.29h0v-.12c.13-.85.25-1.69.4-2.53a46.23,46.23,0,0,1,1-4.67c.2-.7.41-1.4.66-2.08,0,0,.1-.28.19-.5s.21-.46.32-.68a15.88,15.88,0,0,1,.93-1.6l.26-.34c.15-.18.29-.35.45-.51s.48-.42.69-.65.6-.38.92-.55l.27-.13c.59-.16,1.3-.26,1.88-.47h1.11l0,0a1.33,1.33,0,0,1-.4,0l.52.16.3.24a1.92,1.92,0,0,0,.17.27l0,.06,0,0c.09.31.19.61.26.92a7.89,7.89,0,0,0,.18,1s0,.07,0,.1a66.51,66.51,0,0,1,.06,6.92,45.89,45.89,0,0,0-.29,9.23c.08,3.46.17,6.93.28,10.39q.49,16.27,1.25,32.53v0a89.41,89.41,0,0,1-.14,12c0,.29-.09.58-.15.86a18.09,18.09,0,0,1-.47,1.93c-.07.22-.45,1.78-.67,1.84,0,0,.64-1.41.27-.66l-.18.41c-.16.33-.32.65-.49,1a30.9,30.9,0,0,1-1.7,2.87c-.26.39-.54.76-.81,1.15.49-.7.07-.1-.2.22-.57.68-1.18,1.33-1.81,2s-1.15,1.09-1.76,1.6L159,264l-.73.53a33.38,33.38,0,0,1-3.63,2.2c-.57.3-1.16.59-1.75.87l-.75.33-.1,0a6.78,6.78,0,0,0-2.21,1.45q-8.49,4.2-17.2,8l-1.43.61-.76.32-3.1,1.27c-2.12.86-4.24,1.69-6.37,2.51q-6.63,2.54-13.37,4.78Q93.43,291.58,78.92,295c-.23,0-.45.1-.67.16q-7.84,1.83-15.76,3.28C59.76,298.94,57,299.41,54.28,299.83ZM176.42,186.89h0C176.31,186.93,176.27,186.94,176.42,186.89Zm0,.06,0,0,0,0Zm.19-.12h.06l-.06,0Zm0-.08.07-.11S176.71,186.69,176.67,186.75Zm-.09.11-.11,0h0l.12,0Zm.24-.09.1-.06S176.87,186.75,176.82,186.77Zm.4-.13c-.17,0-.25,0,0,0Zm1.38,0,.12,0C178.42,186.65,177.83,186.48,178.6,186.66Zm.17,0h0Zm1.68.45a.63.63,0,0,1,.2.09Zm1,.54.08.08Zm.23.19.05,0C182.25,188.22,181.94,188,181.69,187.87Zm-16.26-11.2v0h0Zm-.21-.1,0,0C165.31,176.56,165.3,176.57,165.22,176.57Zm.26.19h0l0,0Zm-7,4.28s-.05.16-.13.3A2.36,2.36,0,0,1,158.47,181ZM9.88,829.45s0,.22,0,.39A1.75,1.75,0,0,1,9.88,829.45ZM247.16,726.08l3.21,61.6a117.83,117.83,0,0,0-17.71-.58q-3.07.14-6.15.44c-2.59.25-5.13,2.12-5,5,.11,2.49,2.22,5.27,5,5a113.74,113.74,0,0,1,24,.19c.5,0,1,.12,1.48.18h.1l.47.06c1,.15,2,.3,2.94.47,2,.34,4,.74,6,1.19A116.64,116.64,0,0,1,273,802.86c1.88.63,3.75,1.31,5.59,2l1.39.55.3.13.2.08.09,0-.06,0,0,0c1,.42,1.94.85,2.91,1.3A113.55,113.55,0,0,1,294,812.55q2.55,1.53,5,3.19c.77.52,1.53,1.08,2.29,1.63h0l.43.34c.43.34.85.7,1.26,1a46.33,46.33,0,0,1,4.13,4c.31.36.63.72.93,1.09l.39.47.07.09c.09.13.21.29.24.35s.24.32.35.49c.3.44.59.88.87,1.33.47.78.91,1.57,1.31,2.39.08.18.15.35.24.53.26.53-.14-.32-.14-.32.19.07.44,1.2.51,1.42a6.73,6.73,0,0,1,.6,2.52s-.09-1-.05-.42c0,.25,0,.49.06.73,0,.43,0,.86,0,1.29,0,.08,0,.48,0,.76,0-.57-.12.64-.17.86-.1.44-.22.87-.36,1.3l-.19.55,0,0v0c-.42.73-.78,1.48-1.26,2.18l-.27.37,0,0c-.36.37-.68.78-1.05,1.16-.61.62-1.27,1.18-1.93,1.74-.12.09-.24.18-.37.26-.43.31-.87.6-1.31.88-.81.5-1.64,1-2.49,1.39l-1.28.61h0l-.63.26a38.79,38.79,0,0,1-5.39,1.6c-.86.19-1.72.35-2.59.49l-.39.06h-.09l-1.62.18c-7.83.71-15.7-.16-23.47-1.13l-27.86-3.48-55.82-7-2.25-.28A5.27,5.27,0,0,0,182,836q2.68-67.32,5.38-134.65l5.36-134,3-74.38a4.36,4.36,0,0,0,0-2.7c-.79-2.42-3.51-4.43-6.15-3.49a96.24,96.24,0,0,1-9.82,2.93q-3,.74-6.13,1.27c-.94.16-1.89.3-2.83.44l-.75.1-1.87.2a94.28,94.28,0,0,1-13.44.39q-2.83-.12-5.65-.4c-.84-.08-1.68-.18-2.52-.29l-.48-.07-1.33-.2c-2.57-.41-5.5.66-6.15,3.49a5.41,5.41,0,0,0-.06,2,5.08,5.08,0,0,0-.12,1V832.11l-48.75,6.1-27.9,3.49c-8.15,1-16.34,2.26-24.56,2.24q-2.89,0-5.78-.25c-.47,0-.95-.09-1.42-.15l-.33,0-.16,0c-.93-.16-1.86-.32-2.78-.52a38.51,38.51,0,0,1-5.58-1.67l-.38-.16-.09,0-1.1-.52c-.91-.45-1.8-.94-2.67-1.48-.39-.25-.78-.5-1.16-.76-.16-.11-.31-.24-.48-.34h0c-.67-.57-1.34-1.14-2-1.77-.32-.33-.62-.67-.93-1l0,0c-.1-.11-.22-.27-.27-.33-.26-.38-.51-.76-.74-1.15s-.78-1.12-.72-1.38c0,0,.32.87.13.3-.06-.19-.14-.37-.2-.55-.15-.43-.27-.86-.38-1.3-.05-.23-.13-.48-.18-.73v-.16c0-.3,0-.61,0-.92s0-.73,0-1.1c0-.15.12-1,.1-1,.05-.24.11-.51.13-.58q.16-.74.39-1.44c.13-.42.3-.83.43-1.24a.41.41,0,0,0,0-.08l.15-.3a25.41,25.41,0,0,1,1.31-2.4c.49-.79,1-1.54,1.57-2.31-.49.71,0,0,.22-.26s.7-.84,1.06-1.25a46.81,46.81,0,0,1,4.28-4.17c.37-.31.73-.62,1.11-.92l.48-.37c.74-.54,1.48-1.09,2.24-1.6a111.48,111.48,0,0,1,10.4-6.21q2.64-1.38,5.34-2.63c.84-.38,1.68-.76,2.53-1.12l.46-.2.11,0,1.57-.64a116.44,116.44,0,0,1,23.11-6.45c.91-.16,1.82-.3,2.73-.43l.63-.09,1.62-.2c2-.22,4-.4,5.93-.52a111.38,111.38,0,0,1,12.12-.1c2,.09,4,.24,5.93.43,2.62.26,5.12-2.48,5-5a5.14,5.14,0,0,0-5-5,117.36,117.36,0,0,0-23.85.15L77.86,670q3-56.94,5.93-113.9,1.68-32.11,3.35-64.25a4.21,4.21,0,0,0,0-.5q-.5-37.23-1-74.48l-1-75q-.24-19-.5-38c4.08-1,8.13-2.08,12.16-3.24a346.19,346.19,0,0,0,57.31-22.27q2.94-1.45,5.85-2.95a4.25,4.25,0,0,0,1.38-1.19,40.51,40.51,0,0,0,3.37-2.27,4.51,4.51,0,0,0,2.34,3.46,349.62,349.62,0,0,0,55.57,22.94q7.52,2.36,15.13,4.34l-1,74.88-1,76.68q-.27,21.48-.55,43v.07c0,.12,0,.25,0,.38q3,57.24,6,114.48Q244.2,669.14,247.16,726.08Z"/><path class="cls-1" d="M257.8,126.36v0a2.12,2.12,0,0,1-.44-.49C257.24,125.83,257.34,126.06,257.8,126.36Z"/><path class="cls-1" d="M225.19,117.14c-.35.15-1,.56,0,0Z"/><path class="cls-1" d="M163,10.63h-.12l-.21,0C164,10.56,163.39,10.58,163,10.63Z"/><path class="cls-1" d="M140.11,249.12c-.45,0-1.15,0,0,0Z"/><path class="cls-1" d="M164.75,176.53h0Z"/><path class="cls-1" d="M182.69,189h0a1.32,1.32,0,0,1-.23-.21A.59.59,0,0,0,182.69,189Z"/></g></g></svg>