<svg xmlns="http://www.w3.org/2000/svg" version="1.1" viewBox="-5.0 -10.0 110.0 135.0">
 <path d="m53.219 20.141c-0.39453-0.90625-0.87891-1.7734-1.4531-2.5781-0.60938-0.80469-1.1328-1.668-1.5625-2.5781-0.26172-0.96875-0.11719-2.0039 0.40625-2.8594 0.74609-1.2656 1.3008-2.6328 1.6406-4.0625 0.20703-1.2969 0.10938-2.6211-0.28125-3.875-0.23828-0.83594-0.54297-1.6484-0.90625-2.4375l-0.4375-0.89062c-0.058594-0.11328-0.1875-0.17188-0.3125-0.14062-0.066406 0.019531-0.125 0.0625-0.16016 0.125-0.03125 0.0625-0.035156 0.13672-0.011719 0.20312 0 0 0 0.34375 0.23438 0.92188 0.19141 0.80078 0.32812 1.6172 0.40625 2.4375 0.12891 1.0547 0.011719 2.125-0.34375 3.125-0.21875 0.55078-0.50391 1.0781-0.84375 1.5625-0.34375 0.53125-0.76562 1-1.2188 1.5625-0.51172 0.65625-0.91406 1.3867-1.1875 2.1719-0.33984 0.89062-0.44531 1.8516-0.3125 2.7969 0.27734 1.3477 0.73828 2.6523 1.375 3.875 0.29688 0.63281 0.52734 1.2891 0.6875 1.9688 0.007812 0.10547 0.007812 0.20703 0 0.3125h1.0625c1.2656-0.003906 2.5273 0.082031 3.7812 0.25 0.003906-0.33203-0.054688-0.66016-0.17188-0.96875z"/>
 <path d="m51.75 80.484c-0.29688-0.62891-0.52734-1.2891-0.6875-1.9688v-0.3125h-1.0625c-1.2695 0.003906-2.5391-0.082031-3.7969-0.25-0.003906 0.33203 0.054687 0.66016 0.17188 0.96875l0.39062 0.9375c0.39844 0.90625 0.89062 1.7695 1.4688 2.5781 0.61328 0.79297 1.1406 1.6523 1.5625 2.5625 0.26953 0.96875 0.12109 2.0039-0.40625 2.8594-0.71094 1.2734-1.2383 2.6406-1.5625 4.0625-0.20703 1.2969-0.10938 2.6211 0.28125 3.875 0.24219 0.83203 0.53906 1.6445 0.89062 2.4375l0.42188 0.89062c0.058594 0.11328 0.1875 0.17188 0.3125 0.14062 0.066406-0.019531 0.125-0.0625 0.16016-0.125 0.03125-0.0625 0.035157-0.13672 0.011719-0.20312l-0.23438-0.92188c-0.19141-0.80078-0.32812-1.6172-0.40625-2.4375-0.12109-1.0547-0.003906-2.1211 0.34375-3.125 0.21875-0.55078 0.50391-1.0781 0.84375-1.5625 0.35938-0.53125 0.76562-1 1.2188-1.5625 0.51172-0.65625 0.91797-1.3906 1.2031-2.1719 0.30859-0.89453 0.39453-1.8477 0.25-2.7812-0.26953-1.3555-0.73438-2.668-1.375-3.8906z"/>
 <path d="m99.281 50.312c-0.019531-0.066406-0.0625-0.125-0.125-0.16016-0.0625-0.03125-0.13672-0.035156-0.20312-0.011719l-0.92188 0.25c-0.79297 0.21094-1.6055 0.36328-2.4219 0.45312-1.0859 0.16016-2.1914 0.0625-3.2344-0.28125-1.1992-0.50781-2.3164-1.1914-3.3125-2.0312-0.64453-0.48047-1.3633-0.86328-2.125-1.125-0.82031-0.28516-1.6992-0.37891-2.5625-0.26562-1.3164 0.28125-2.5859 0.75391-3.7656 1.4062-0.64844 0.3125-1.3203 0.5625-2.0156 0.75l-0.40625 0.09375v0.60938c0.003906 1.1289-0.066406 2.2539-0.20312 3.375 0.27734 0.011719 0.55078-0.03125 0.8125-0.125l0.92188-0.375c0.89844-0.34375 1.7578-0.78516 2.5625-1.3125 0.82422-0.625 1.7227-1.1484 2.6719-1.5625 1.0312-0.23828 2.1172-0.058594 3.0156 0.5 1.2422 0.75781 2.5898 1.3242 4 1.6875 1.2812 0.22266 2.5977 0.14844 3.8438-0.21875 0.83203-0.23438 1.6445-0.51953 2.4375-0.85938l0.89062-0.40625c0.074219-0.03125 0.12891-0.089844 0.15625-0.16406 0.027344-0.074218 0.019531-0.15625-0.015625-0.22656z"/>
 <path d="m15.625 52.891c1.3125-0.26562 2.5781-0.71094 3.7656-1.3281 0.64062-0.3125 1.3125-0.56641 2-0.75h0.39062v-0.8125c-0.003906-1.1484 0.066406-2.2969 0.20312-3.4375-0.28125-0.015625-0.56641 0.03125-0.82812 0.14062l-0.92188 0.35938c-0.89062 0.38672-1.7461 0.85938-2.5469 1.4062-0.82031 0.625-1.7109 1.1523-2.6562 1.5625-1.0195 0.25-2.0977 0.078125-2.9844-0.48438-1.25-0.75391-2.6016-1.3164-4.0156-1.6719-1.2812-0.21094-2.5977-0.12891-3.8438 0.23438-0.83203 0.23438-1.6445 0.51953-2.4375 0.85938l-0.89062 0.40625c-0.11328 0.058594-0.17188 0.1875-0.14062 0.3125 0.019531 0.066406 0.0625 0.125 0.125 0.16016 0.0625 0.03125 0.13672 0.035156 0.20312 0.011719l0.92188-0.25c0.79688-0.20312 1.6055-0.35547 2.4219-0.45312 1.082-0.14844 2.1836-0.046875 3.2188 0.29688 1.207 0.53906 2.3281 1.2461 3.3281 2.1094 0.64062 0.49219 1.3594 0.87891 2.125 1.1406 0.82812 0.26562 1.707 0.32812 2.5625 0.1875z"/>
 <path d="m69.391 29.5 0.5625 0.54688c0.84375 0.83984 1.6328 1.7305 2.3594 2.6719 0.22656-0.19531 0.40625-0.44141 0.51562-0.71875l0.40625-0.92188c0.34766-0.91406 0.61328-1.8516 0.79688-2.8125 0.12109-1.0156 0.36719-2.0117 0.73438-2.9688 0.52734-0.89062 1.3984-1.5273 2.4062-1.7656 1.4375-0.33984 2.8125-0.89844 4.0781-1.6562 1.0664-0.76172 1.9414-1.7539 2.5625-2.9062 0.41797-0.75391 0.78516-1.5391 1.0938-2.3438l0.34375-0.90625c0.046875-0.125-0.007812-0.26562-0.125-0.32812-0.12891-0.0625-0.28516-0.011719-0.35938 0.10938l-0.46875 0.82812c-0.42578 0.70312-0.89453 1.375-1.4062 2.0156-0.6875 0.84766-1.5664 1.5234-2.5625 1.9688-0.54297 0.25-1.1133 0.42578-1.7031 0.53125-0.625 0.125-1.25 0.17188-2.0156 0.29688-0.80859 0.11328-1.5938 0.35156-2.3281 0.70312-0.81641 0.38281-1.5273 0.95703-2.0781 1.6719-0.73828 1.1445-1.3164 2.3867-1.7188 3.6875-0.23828 0.66797-0.53516 1.3086-0.89062 1.9219z"/>
 <path d="m27.438 66.953c-0.26953 0.24219-0.47656 0.53906-0.60938 0.875l-0.375 0.92188c-0.36328 0.9375-0.625 1.9141-0.78125 2.9062-0.12109 0.98828-0.34766 1.9648-0.67188 2.9062-0.16797 0.38281-0.42969 0.71875-0.76562 0.96875-0.44531 0.32812-0.94141 0.58203-1.4688 0.75-0.57812 0.21875-1.3281 0.42188-2.0156 0.70312-0.71094 0.29688-1.3828 0.67969-2 1.1406-1.0703 0.77734-1.9414 1.793-2.5469 2.9688-0.41406 0.76172-0.76953 1.5586-1.0625 2.375-0.20312 0.57812-0.32812 0.90625-0.32812 0.90625-0.046875 0.12109 0.007812 0.25781 0.125 0.3125 0.125 0.070312 0.28516 0.03125 0.35938-0.09375l0.48438-0.8125c0.42578-0.72266 0.89453-1.4141 1.4062-2.0781 0.67578-0.85938 1.543-1.5508 2.5312-2.0156 0.53906-0.22656 1.1094-0.38281 1.6875-0.46875 0.625-0.125 1.25-0.14062 2.0312-0.26562 0.82422-0.11328 1.6328-0.34375 2.3906-0.6875 0.84766-0.38672 1.5938-0.96875 2.1719-1.7031 0.77344-1.1562 1.3828-2.4102 1.8125-3.7344 0.23828-0.64844 0.54688-1.2656 0.92188-1.8438l0.14062-0.23438c-0.28125-0.25-0.5625-0.51562-0.82812-0.79688-0.94141-0.9375-1.8125-1.9375-2.6094-3z"/>
 <path d="m84.516 84.703-0.82812-0.46875c-0.70312-0.42188-1.3828-0.88672-2.0312-1.3906-0.87109-0.66406-1.5781-1.5195-2.0625-2.5-0.47266-1.2109-0.75781-2.4844-0.84375-3.7812-0.10938-0.77344-0.32031-1.5312-0.625-2.25-0.38281-0.80078-0.95312-1.5039-1.6562-2.0469-1.1328-0.73828-2.3711-1.3086-3.6719-1.6875-0.67969-0.23828-1.332-0.53906-1.9531-0.90625l-0.32812-0.20312-0.48438 0.48438c-0.81641 0.82031-1.6836 1.5859-2.5938 2.2969 0.19922 0.21484 0.4375 0.38281 0.70312 0.5l0.90625 0.39062c0.90234 0.36328 1.8398 0.63672 2.7969 0.8125 1.0234 0.125 2.0234 0.37891 2.9844 0.75 0.88281 0.55859 1.5078 1.4492 1.7344 2.4688 0.30859 1.4297 0.83594 2.8047 1.5625 4.0781 0.75 1.0625 1.7344 1.9414 2.875 2.5625 0.75391 0.42188 1.5391 0.79297 2.3438 1.1094l0.90625 0.34375c0.125 0.046875 0.26562-0.007813 0.32812-0.125 0.058594-0.0625 0.085937-0.14844 0.074219-0.23438-0.011719-0.085938-0.0625-0.16016-0.13672-0.20312z"/>
 <path d="m31.156 26.562c-0.92188-0.36328-1.8828-0.62891-2.8594-0.79688-1-0.125-1.9844-0.35547-2.9375-0.6875-0.875-0.50391-1.5-1.3477-1.7344-2.3281-0.37891-1.4141-0.96875-2.7617-1.75-4-0.76172-1.0703-1.7695-1.9453-2.9375-2.5469-0.75781-0.42188-1.5469-0.78906-2.3594-1.0938l-0.90625-0.32812c-0.125-0.046875-0.26562 0.007812-0.32812 0.125-0.0625 0.12891-0.011719 0.28516 0.10938 0.35938l0.8125 0.48438c0.71094 0.41797 1.3867 0.89062 2.0156 1.4219 0.86719 0.67188 1.5625 1.5391 2.0312 2.5312 0.23828 0.53906 0.40625 1.1055 0.5 1.6875 0.125 0.625 0.15625 1.25 0.28125 2.0156 0.14844 0.82422 0.41016 1.625 0.78125 2.375 0.35547 0.8125 0.88672 1.5352 1.5625 2.1094 1.1719 0.76953 2.4453 1.375 3.7812 1.7969 0.65625 0.23828 1.2891 0.53906 1.8906 0.89062l0.26562 0.1875 0.67188-0.70312c0.88672-0.89844 1.8398-1.7344 2.8438-2.5-0.22656-0.24219-0.50391-0.42969-0.8125-0.54688z"/>
 <path d="m69.656 8.5781c0.097656-0.85938 0.14453-1.7266 0.14062-2.5938v-0.96875c0.007813-0.078125-0.015625-0.15625-0.0625-0.21875-0.050781-0.0625-0.125-0.10156-0.20312-0.10938-0.14453-0.011719-0.27344 0.089844-0.29688 0.23438 0 0 0 0.34375-0.14062 0.95312-0.125 0.80859-0.30859 1.6094-0.54688 2.3906-0.30078 1.0469-0.83594 2.0156-1.5625 2.8281-0.41797 0.42188-0.88672 0.79297-1.3906 1.1094-0.53125 0.35938-1.0938 0.625-1.75 1.0312-0.71875 0.41797-1.3672 0.94531-1.9219 1.5625-0.61328 0.68359-1.0586 1.5039-1.2969 2.3906-0.26953 1.3398-0.34766 2.7148-0.23438 4.0781 0.03125 0.72656-0.003906 1.4531-0.10938 2.1719-0.007812 0.10547-0.007812 0.20703 0 0.3125 1.4102 0.55469 2.7734 1.2188 4.0781 1.9844 0.13281-0.28516 0.19922-0.59375 0.20312-0.90625v-1c-0.007812-0.98438-0.11719-1.9609-0.32812-2.9219-0.25-0.98047-0.39844-1.9883-0.4375-3 0.15625-1.0156 0.71875-1.9258 1.5625-2.5156 1.1914-0.87891 2.2461-1.9336 3.125-3.125 0.66797-1.125 1.0664-2.3867 1.1719-3.6875z"/>
 <path d="m41.062 81.906c-0.25 1.1016-0.74609 2.1328-1.4531 3.0156-0.59375 0.73828-1.3086 1.3711-2.1094 1.875-0.71875 0.48438-1.25 0.71875-1.75 1.0625-0.46875 0.27734-0.91016 0.60156-1.3125 0.96875-0.71875 0.75781-1.2695 1.6562-1.625 2.6406-0.42188 0.96875-0.67188 1.8906-0.89062 2.5156s-0.3125 1.0156-0.3125 1.0156c-0.050781 0.14844-0.20703 0.23047-0.35938 0.1875-0.089844-0.039062-0.15625-0.12109-0.17188-0.21875 0 0-0.09375-0.39062-0.20312-1.0781-0.17578-0.96875-0.24609-1.9531-0.21875-2.9375 0.019531-1.543 0.41016-3.0625 1.1406-4.4219 0.42578-0.76172 0.95312-1.4688 1.5625-2.0938 0.5625-0.60938 1.2188-1.1719 1.5625-1.5625 0.36719-0.33984 0.67969-0.73438 0.92188-1.1719 0.16016-0.27734 0.25-0.58594 0.26562-0.90625-0.019531-1-0.11328-1.9961-0.28125-2.9844-0.089844-0.58594-0.14062-1.1758-0.15625-1.7656v-1.5625c0.007813-0.046875 0.007813-0.09375 0-0.14062 1.7227 1.0234 3.5508 1.8555 5.4531 2.4844v0.35938c0.20703 1.5664 0.1875 3.1562-0.0625 4.7188z"/>
 <path d="m95.312 69.531c-0.023438 0.13281-0.13281 0.23047-0.26562 0.23438h-0.96875c-0.86719 0.019531-1.7344-0.023437-2.5938-0.125-1.3008-0.14453-2.5508-0.58203-3.6562-1.2812-1.1875-0.88281-2.2422-1.9375-3.125-3.125-0.57812-0.84766-1.4844-1.4141-2.5-1.5625-1.0117 0.035156-2.0195 0.17969-3 0.4375-0.96484 0.21094-1.9492 0.32031-2.9375 0.32812h-1c-0.3125-0.003906-0.62109-0.074219-0.90625-0.20312 0.78125-1.3203 1.4492-2.707 2-4.1406h0.32812c0.69141 0.10938 1.3945 0.15234 2.0938 0.125 1.3672-0.11328 2.7461-0.035156 4.0938 0.23438 0.875 0.24609 1.6797 0.69531 2.3438 1.3125 0.60938 0.5625 1.1367 1.2109 1.5625 1.9219 0.40625 0.65625 0.67188 1.2344 1.0312 1.7656 0.3125 0.5 0.6875 0.96094 1.1094 1.375 0.80469 0.73047 1.7695 1.2617 2.8125 1.5625 0.78906 0.23438 1.5938 0.41406 2.4062 0.54688l0.9375 0.14062c0.10938-0.003906 0.21094 0.054687 0.26172 0.15234 0.050781 0.097656 0.039062 0.21484-0.027344 0.30078z"/>
 <path d="m25.703 35.609c-0.80859 1.3594-1.5 2.7852-2.0625 4.2656h-0.29688c-0.69141-0.11719-1.3945-0.16406-2.0938-0.14062-1.3633 0.097656-2.7305-0.003906-4.0625-0.29688-0.89062-0.23828-1.707-0.69531-2.375-1.3281-0.61328-0.5625-1.1406-1.2188-1.5625-1.9375-0.40625-0.65625-0.67188-1.2188-1.0156-1.75-0.31641-0.50391-0.6875-0.97266-1.1094-1.3906-0.79688-0.73047-1.7539-1.2656-2.7969-1.5625-0.78906-0.24609-1.5898-0.43359-2.4062-0.5625l-0.9375-0.14062c-0.078125 0.003906-0.16016-0.023437-0.21484-0.082031-0.058593-0.054688-0.085937-0.13672-0.082031-0.21484 0.023438-0.13281 0.13281-0.23047 0.26562-0.23438h0.96875c0.86719-0.019531 1.7344 0.023437 2.5938 0.125 1.3047 0.13281 2.5586 0.55859 3.6719 1.25 1.1875 0.88672 2.2383 1.9375 3.125 3.125 0.35156 0.4375 0.77344 0.8125 1.25 1.1094 0.36328 0.23828 0.78516 0.37109 1.2188 0.39062 1.0078-0.039063 2.0078-0.19141 2.9844-0.45312 0.97266-0.21094 1.9609-0.32422 2.9531-0.34375h1c0.33594-0.015625 0.67188 0.042969 0.98438 0.17188z"/>
 <path d="m95.781 32.156-0.65625 0.71875c-0.59766 0.62891-1.2422 1.2148-1.9219 1.75-1.0117 0.83984-2.2031 1.4258-3.4844 1.7188-1.457 0.21094-2.9336 0.21094-4.3906 0-0.98828-0.16406-1.9961 0.085938-2.7969 0.6875-0.67188 0.75391-1.2695 1.5703-1.7812 2.4375-0.53516 0.83594-1.1523 1.6133-1.8438 2.3281l-0.71875 0.70312c-0.23828 0.22656-0.51953 0.41016-0.82812 0.53125-0.38281-1.5625-0.90625-3.0898-1.5625-4.5625l0.25-0.15625c0.5625-0.41016 1.082-0.87109 1.5625-1.375 0.91016-1.0508 1.9609-1.9727 3.125-2.7344 0.80078-0.45312 1.7031-0.70703 2.625-0.73438 0.83203-0.03125 1.6641 0.066406 2.4688 0.28125 0.75 0.1875 1.3438 0.40625 1.9688 0.53125 0.57422 0.14062 1.1602 0.21094 1.75 0.20312 1.0977-0.039063 2.168-0.33594 3.125-0.875 0.72656-0.37891 1.4258-0.80469 2.0938-1.2812l0.78125-0.5625c0.046875-0.046875 0.11328-0.078125 0.17969-0.078125 0.066407 0 0.13281 0.03125 0.17969 0.078125 0.042969 0.066406 0.054688 0.14844 0.03125 0.22656-0.027344 0.074218-0.082031 0.13281-0.15625 0.16406z"/>
 <path d="m24.141 61.344-0.28125 0.1875c-0.5625 0.42578-1.0859 0.90234-1.5625 1.4219-0.88281 1.0312-1.9102 1.9297-3.0469 2.6719-0.78516 0.44141-1.6641 0.69141-2.5625 0.73438-0.82031 0.035156-1.6445-0.054687-2.4375-0.26562-0.75-0.1875-1.3438-0.39062-1.9688-0.51562-0.57812-0.12891-1.1719-0.19141-1.7656-0.1875-1.0977 0.058594-2.1641 0.37109-3.125 0.90625-0.71875 0.39453-1.4141 0.83203-2.0781 1.3125l-0.76562 0.5625c-0.046875 0.046875-0.11328 0.078125-0.17969 0.078125-0.066407 0-0.13281-0.03125-0.17969-0.078125-0.089844-0.097656-0.089844-0.24609 0-0.34375l0.6875-0.64062c0.60547-0.61719 1.2539-1.1914 1.9375-1.7188 1.0117-0.83203 2.207-1.4102 3.4844-1.6875 1.4453-0.21094 2.9141-0.21094 4.3594 0 1.0117 0.17578 2.0469-0.066406 2.875-0.67188 0.70312-0.74219 1.3164-1.5664 1.8281-2.4531 0.54297-0.81641 1.1602-1.5781 1.8438-2.2812l0.71875-0.6875c0.21875-0.21484 0.47656-0.37891 0.76562-0.48438 0.375 1.418 0.85938 2.8008 1.4531 4.1406z"/>
 <path d="m68.172 95.797c-0.10156 0.078125-0.24219 0.078125-0.34375 0l-0.64062-0.65625c-0.63281-0.59766-1.2266-1.2344-1.7812-1.9062-0.86328-1.0078-1.4727-2.207-1.7812-3.5-0.25391-1.4648-0.28906-2.9609-0.09375-4.4375 0.035156-0.52734-0.015625-1.0547-0.15625-1.5625-0.097656-0.38281-0.29688-0.73438-0.57812-1.0156-0.75-0.625-1.5547-1.1797-2.4062-1.6562-0.86328-0.53906-1.668-1.1602-2.4062-1.8594l-0.71875-0.71875c-0.28125-0.27344-0.5-0.60547-0.64062-0.96875 1.8281-0.44141 3.6055-1.0586 5.3125-1.8438l0.10938 0.17188c0.36719 0.56641 0.79688 1.0898 1.2812 1.5625 1.0547 0.91406 1.9805 1.9648 2.75 3.125 0.46875 0.84375 0.72266 1.7852 0.75 2.75 0.015625 0.85156-0.09375 1.6992-0.32812 2.5156-0.20312 0.76562-0.42188 1.3438-0.5625 1.9531-0.15234 0.55859-0.23047 1.1367-0.23438 1.7188 0.007813 1.0898 0.28125 2.1641 0.79688 3.125 0.36719 0.73438 0.78516 1.4453 1.25 2.125l0.54688 0.78125c0.035156 0.11719-0.015625 0.24219-0.125 0.29688z"/>
 <path d="m43.25 22.594c-1.6953 0.40625-3.3516 0.97656-4.9375 1.7031l-0.125-0.20312c-0.39062-0.56641-0.84375-1.0898-1.3438-1.5625-1.0508-0.91406-1.9688-1.9648-2.7344-3.125-0.45312-0.82422-0.71094-1.7461-0.75-2.6875-0.011719-0.83984 0.09375-1.6758 0.3125-2.4844 0.20312-0.75 0.40625-1.3438 0.54688-1.9531 0.125-0.57422 0.17969-1.1641 0.15625-1.75-0.023438-1.0938-0.30859-2.1641-0.82812-3.125-0.375-0.73438-0.80469-1.4375-1.2812-2.1094l-0.54688-0.78125c-0.054688-0.042969-0.082031-0.10938-0.082031-0.17969 0-0.070313 0.027343-0.13672 0.082031-0.17969 0.097656-0.085938 0.24609-0.085938 0.34375 0l0.70312 0.65625c0.64453 0.58594 1.2383 1.2227 1.7812 1.9062 0.84766 1.0117 1.4414 2.2109 1.7344 3.5 0.21875 1.4609 0.21875 2.9453 0 4.4062-0.035156 0.52344 0.007812 1.0508 0.125 1.5625 0.10156 0.39844 0.30078 0.76172 0.57812 1.0625 0.75 0.65625 1.5664 1.2305 2.4375 1.7188 0.84766 0.53516 1.6406 1.1602 2.3594 1.8594l0.71875 0.71875c0.32812 0.28516 0.58594 0.64453 0.75 1.0469z"/>
 <path d="m50 24.312c-2.5312-0.003906-5.0469 0.36328-7.4688 1.0938-0.60938 0.1875-1.2344 0.40625-1.8281 0.64062-7.7305 3.0078-13.539 9.5586-15.59 17.598-2.0508 8.0391-0.097656 16.574 5.2461 22.918 0.375 0.4375 0.75 0.84375 1.125 1.25 4.8516 5.0156 11.539 7.8359 18.516 7.8125 2.3672 0.003906 4.7227-0.31641 7-0.95312 0.92578-0.26953 1.8398-0.58984 2.7344-0.95312 7.3555-3.0586 12.879-9.3594 14.945-17.051 2.0664-7.6953 0.44922-15.914-4.3828-22.246-4.832-6.3359-12.328-10.07-20.297-10.109z"/>
<text x="0.0" y="117.5" font-size="5.0" font-weight="bold" font-family="Arbeit Regular, Helvetica, Arial-Unicode, Arial, Sans-serif" fill="#000000">Created by Tanvir Islam</text><text x="0.0" y="122.5" font-size="5.0" font-weight="bold" font-family="Arbeit Regular, Helvetica, Arial-Unicode, Arial, Sans-serif" fill="#000000">from Noun Project</text></svg>