<svg xmlns="http://www.w3.org/2000/svg" xmlns:xlink="http://www.w3.org/1999/xlink" width="102" height="110">
  <path version="1.1" stroke-dasharray="none" stroke-opacity="1" r="8" stroke-width="1px" stroke-miterlimit="4" fill-opacity="1" fill="#000000" stroke="none" cy="8.5" cx="30.5" stroke-linecap="butt" stroke-linejoin="miter" fill-rule="nonzero" xmlns:xlink="http://www.w3.org/1999/xlink" d="M63.934,13.934C63.934,20.725,58.43,26.23,51.639,26.23C44.849,26.23,39.344,20.725,39.344,13.934C39.344,7.144,44.849,1.639,51.639,1.639C58.43,1.639,63.934,7.144,63.934,13.934ZM65.574,13.934C65.574,6.239,59.335,0,51.639,0C43.944,0,37.705,6.239,37.705,13.934C37.705,21.63,43.944,27.869,51.639,27.869C59.335,27.869,65.574,21.63,65.574,13.934Z"/>
  <path stroke-linejoin="miter" stroke-dasharray="none" version="1.1" xmlns:xlink="http://www.w3.org/1999/xlink" fill="#000000" stroke-width="1px" fill-rule="nonzero" stroke-opacity="1" stroke-miterlimit="4" stroke-linecap="butt" fill-opacity="1" stroke="none" d="M52.447,31.967C48.158,32.028,43.623,33.426,37.69,36.477C36.372,37.155,35.083,38.72,33.493,41.34C32.884,42.344,32.252,43.464,31.392,45.042C31.461,44.916,29.696,48.176,29.184,49.104C26.056,54.766,23.735,58.06,21.211,59.895C19.445,61.18,17.235,61.706,13.697,61.921C13.196,61.952,12.823,61.97,11.875,62.012C7.799,62.196,6.113,62.43,4.378,63.335C2.02,64.564,0.82,66.855,0.82,70.492C0.82,74.089,8.564,75.123,16.799,73.454C23.438,72.108,30.352,68.773,36.086,64.429L34.771,63.775L34.771,73.623L35.361,72.836C24.105,76.119,16.944,79.117,13.801,81.906C9.32,85.881,8.666,90.939,11.501,94.883C13.274,97.348,17.632,98.146,24.594,97.483L23.807,96.256C20.8,101.442,20.8,102.45,23.942,105.536C28.608,110.118,48.379,110.242,52.835,105.513L51.641,104.389C47.829,108.435,29.114,108.317,25.09,104.366C22.558,101.879,22.558,101.679,25.225,97.078L26.024,95.699L24.438,95.851C18.02,96.463,14.146,95.753,12.832,93.926C10.495,90.675,11.028,86.558,14.889,83.132C17.79,80.558,24.793,77.626,35.82,74.41L36.411,74.238L36.411,73.623L36.411,63.775L36.411,62.126L35.096,63.122C29.548,67.326,22.856,70.553,16.473,71.847C9.264,73.309,2.459,72.4,2.459,70.492C2.459,65.063,4.529,63.984,11.949,63.65C12.906,63.607,13.284,63.589,13.797,63.557C17.623,63.325,20.091,62.738,22.176,61.221C24.959,59.196,27.376,55.767,30.619,49.897C31.135,48.962,32.903,45.695,32.832,45.827C33.68,44.269,34.302,43.168,34.895,42.191C36.333,39.822,37.479,38.429,38.44,37.935C44.167,34.989,48.47,33.663,52.471,33.606L52.447,31.967Z"/>
  <path stroke-dasharray="none" stroke-linecap="butt" xmlns:xlink="http://www.w3.org/1999/xlink" version="1.1" fill-rule="nonzero" stroke-miterlimit="4" stroke-opacity="1" stroke="none" stroke-width="1px" fill-opacity="1" fill="#000000" stroke-linejoin="miter" d="M50.808,33.606C54.809,33.663,59.112,34.989,64.838,37.935C65.799,38.429,66.946,39.822,68.384,42.191C68.977,43.168,69.599,44.269,70.447,45.827C70.375,45.695,72.144,48.962,72.66,49.897C75.903,55.767,78.32,59.196,81.103,61.221C83.188,62.738,85.656,63.325,89.482,63.557C89.995,63.589,90.373,63.607,91.33,63.65C98.749,63.984,100.82,65.063,100.82,70.492C100.82,72.4,94.015,73.309,86.805,71.847C80.422,70.553,73.731,67.326,68.183,63.122L66.868,62.126L66.868,63.775L66.868,73.623L66.868,74.238L67.458,74.41C78.486,77.626,85.489,80.558,88.39,83.132C92.251,86.558,92.783,90.675,90.446,93.926C89.133,95.753,85.259,96.463,78.84,95.851L77.254,95.699L78.053,97.078C80.721,101.679,80.721,101.879,78.188,104.366C74.164,108.317,55.449,108.435,51.637,104.389L50.444,105.513C54.9,110.242,74.671,110.118,79.337,105.536C82.479,102.45,82.479,101.442,79.472,96.256L78.685,97.483C85.646,98.146,90.005,97.348,91.777,94.883C94.613,90.939,93.959,85.881,89.478,81.906C86.335,79.117,79.174,76.119,67.917,72.836L68.507,73.623L68.507,63.775L67.193,64.429C72.927,68.773,79.84,72.108,86.48,73.454C94.715,75.123,102.459,74.089,102.459,70.492C102.459,66.855,101.259,64.564,98.901,63.335C97.166,62.43,95.48,62.196,91.404,62.012C90.456,61.97,90.083,61.952,89.582,61.921C86.043,61.706,83.834,61.18,82.067,59.895C79.544,58.06,77.223,54.766,74.095,49.104C73.583,48.176,71.818,44.916,71.887,45.042C71.027,43.464,70.394,42.344,69.785,41.34C68.195,38.72,66.906,37.155,65.588,36.477C59.656,33.426,55.121,32.028,50.831,31.967L50.808,33.606Z"/>

</svg>
