<svg xmlns="http://www.w3.org/2000/svg" viewBox="0 0 700.38 629.97"><defs><style>.cls-1{fill:#010101;}</style></defs><g id="Livello_2" data-name="Livello 2"><g id="Livello_1-2" data-name="Livello 1"><path class="cls-1" d="M562.78,420.45c-1.13.44-.3.13,0,0Z"/><path class="cls-1" d="M688.26,550.79h0l-.22-.17S688.12,550.71,688.26,550.79Z"/><path class="cls-1" d="M695.64,543.86a64.45,64.45,0,0,0-14.39-8.52,159.84,159.84,0,0,0-20.51-7.73,136.38,136.38,0,0,0-38.84-5.89l-35.74-78.24L577.25,424a72.2,72.2,0,0,0,5.94-4.25,63.35,63.35,0,0,0,20.52-30.27c8-25.13-.11-54.48-19-72.69-11.8-11.41-27.54-18.4-43.76-20.55a41.31,41.31,0,0,0-3.26-14.79c-6-14.53-17.71-25.72-27.46-37.76-18.6-22.93-35.93-46.78-54.5-69.89A851.09,851.09,0,0,0,380,91c-17.42-16.61-35.55-32.48-54.19-47.72-12.48-10.2-25.08-19.79-39.6-27A164.65,164.65,0,0,0,254.65,4.55C243.5,1.64,231.9-.8,220.32.25c-13.49,1.22-25,6.6-35,15.58C167.66,31.63,158.5,54,149.94,75.58s-16.42,43.53-24.12,65.47c-11,31.47-21.64,63.09-32,94.76q-19.65,59.71-38.46,119.7Q33,426.28,11.48,497.29,5.81,515.94.19,534.58a5.1,5.1,0,0,0,2.3,5.65c24.19,15.29,49.47,29.2,75.78,40.51C95.16,588,113.36,595.21,132,595.87a53,53,0,0,0,14.58-1.44c8-2,17-5.19,22.05-12.06,6.65-9.08,1.43-20-4.64-27.7-.83-1.06-1.7-2.09-2.59-3.1,9,1.47,18.14,1.71,26.89-.27,5.15-1.17,10.33-3.38,14.15-7.12,5.23-5.14,6.39-12.48,5.1-19.46a20.19,20.19,0,0,0-7.29-12.08c-8.85-7.32-20.38-11.11-31.27-14.13a222.83,222.83,0,0,0-44.13-7.44q19.38-57.92,42.32-114.55,23.86-58.83,51.57-116,12.84-26.5,26.48-52.61Q255,222.24,265.64,236q18.54,24,39.33,46.18,18.46,19.6,38.62,37.52,17.67,15.72,36.53,30.05l2.35,1.77q8,27.56,17.71,54.57,11.28,31.31,24.81,61.72,13.25,29.82,28.63,58.62,14,26.25,29.73,51.53,14.1,22.69,29.54,44.53,1.77,2.52,3.57,5c1.46,2,4.2,3.24,6.56,2,15.87.35,31.76.43,47.63,0,10.47-.26,20.94-.73,31.38-1.53,6.25-.48,12.84-.85,18.8-2.93,3.2-1.12,6.5-2.76,8.21-5.85,2.37-4.25.42-8.77-2.49-12.14a39.92,39.92,0,0,0-7.89-6.53,61.58,61.58,0,0,0-8.48-4.8,119.91,119.91,0,0,0-21-7.49c-14-3.68-28.54-5.67-43-7l-4.29-.37h-.27q-10.61-17-19.85-34.77-5.52-10.67-10.53-21.61c-1.75-3.82-3.46-7.68-5.11-11.55-.19-.43-.37-.86-.55-1.29l0-.07c-.1-.23-.2-.45-.29-.68-.43-1-.85-2-1.27-3.06q-1.28-3.09-2.5-6.2a496.44,496.44,0,0,1-16.59-49.4q-6.24-22.43-10.36-45.35c0-.28-.09-.57-.14-.86a83.55,83.55,0,0,0,38.53,26.69c1.45.47,2.92.88,4.38,1.25.07.15.11.3.19.45q12,23.1,24.45,45.95,12.3,22.56,25.1,44.85,6.3,11,12.71,21.9l1.56,2.66a15.18,15.18,0,0,0,2.23,3.46c2.06,1.89,5.74,1.73,8.42,2q6.15.71,12.28,1.39c13.22,1.44,26.46,2.76,39.72,3.75,8.92.67,17.86,1.21,26.81,1.32a116.54,116.54,0,0,0,16-.64c3.28-.41,6.95-.86,9.8-2.69a8.11,8.11,0,0,0,3.51-4.31C701.37,550.08,698.57,546.28,695.64,543.86Zm-5.19,8.89h0l0,0a4.57,4.57,0,0,1-.42-.46C690.18,552.47,690.32,552.61,690.45,552.75Zm.18.19.06.07-.06-.07ZM197.29,534.45c.08-.18.15-.28,0,0Zm-10.52-229q-27.11,60.24-50.14,122.19-11.59,31.2-22.11,62.8l-12.12-1.17c-2.61-.25-5.12,2.48-5,5a5.13,5.13,0,0,0,5,5l18.93,1.82a3.78,3.78,0,0,0,1.38-.14,208.37,208.37,0,0,1,36.84,5.47,159.59,159.59,0,0,1,19.81,6l1.92.75.62.26.55.24c1.18.52,2.35,1.07,3.5,1.65a54.17,54.17,0,0,1,5.24,3c.61.41,1.21.85,1.81,1.28l.08.07c.3.25.6.5.89.76.78.7,1.44,1.47,2.15,2.23l.15.22c.21.31.4.63.58.95l.21.42c.13.39.26.78.37,1.18s.27,1.06.38,1.6c.05.25.09.51.14.77a1,1,0,0,1,0,.15c0,.06,0,.14,0,.24.05.73.09,1.44.08,2.17,0,.42,0,.85-.06,1.27,0,0,0,.24-.05.38a12,12,0,0,1-.69,2.49l-.21.37-.44.75c-.1.15-.21.3-.3.46-.26.27-.5.57-.76.84s-.72.67-1.08,1l.22-.15-.27.2a2.71,2.71,0,0,1-.32.23l-.2.14a20.92,20.92,0,0,1-2.64,1.51c-.25.12-.51.22-.75.35h0c-.6.22-1.18.44-1.78.64a38.3,38.3,0,0,1-4.31,1.09c-.65.13-1.3.23-2,.33l-.4,0-1.37.14a68.51,68.51,0,0,1-10.72,0,77.21,77.21,0,0,1-11.11-1.59,122.2,122.2,0,0,1-13.31-3.61c-2.4-1.81-4.84-3.54-7.28-5.22a139.88,139.88,0,0,0-56.77-22.69Q92.91,475.55,105.07,442q12.6-34.69,26-69.08t27.6-68.44q14.09-33.78,29-67.21,15-33.71,30.79-67.07l1.34-2.82q6.68,11.6,13.83,22.9c1.73,2.74,3.5,5.46,5.28,8.17Q211.21,251.14,186.77,305.43ZM620,614.83s.07.12.11.17l.06.12h0c0,.07,0,.12,0,.17C619.91,615.09,619.9,614.88,620,614.83Zm.22.49v-.09c0,.08.07.15.11.17Zm-17.81-12.25.16.07C602.27,603,601.67,602.77,602.37,603.07Zm.24.1-.08,0Zm-91-181.5-1-.39-.56-.24-.18-.07-1.27-.58a78.38,78.38,0,0,1-14.16-8.54l-.69-.55c-.56-.45-1.11-.91-1.66-1.37-1.1-.93-2.17-1.9-3.21-2.88a82.49,82.49,0,0,1-5.78-6.05c-.91-1.05-1.8-2.12-2.64-3.22l0-.06-.66-.89c-.52-.7-1-1.41-1.51-2.12-1.64-2.38-3.15-4.83-4.55-7.35-1.14-2.08-2.18-4.21-3.16-6.37-.13-1.12-.27-2.25-.4-3.37q-.54-4.61-1-9.23c-.15-1.46-.28-2.91-.41-4.37a33.26,33.26,0,0,0-15.14-28,5,5,0,0,0-6.85,1.79,5.11,5.11,0,0,0,1.8,6.84c.46.31.91.64,1.37,1l.34.28c.34.29.67.57,1,.87a29.07,29.07,0,0,1,2.19,2.25c.18.2.35.42.52.62l0,0c.35.49.71,1,1,1.48a30.59,30.59,0,0,1,1.85,3.37l.1.2.08.21c.13.35.26.7.38,1.06.23.67.43,1.35.61,2s.32,1.4.45,2.11c0,.08.05.38.08.56s0,.17,0,.21c.08.85.11,1.72.12,2.58a3.51,3.51,0,0,0,0,.56,4.55,4.55,0,0,0,.09,1q.76,8.31,1.8,16.61a6.22,6.22,0,0,0,.22,1.89q1.31,10.17,3,20.29,3.81,22.74,9.72,45.06a494.41,494.41,0,0,0,15.94,49.55,507.62,507.62,0,0,0,20.77,47.25q9.88,19.67,21.47,38.4,1.32,2.15,2.67,4.28a5.23,5.23,0,0,0,5.95,2.23,5.82,5.82,0,0,0,1.47.31q9.17.74,18.29,1.91l.29,0,1.23.17,2.64.39q2.59.4,5.18.84,5.37.93,10.69,2.11a141.39,141.39,0,0,1,20.17,5.95c.72.28,1.43.63,2.16.87l.3.13,1.24.56c1.45.66,2.89,1.36,4.29,2.12a61.26,61.26,0,0,1,7.46,4.77l.09.06.81.66c.64.53,1.26,1.09,1.85,1.68.28.27.53.57.8.85l.13.12h0l.3.47c-.41.22-.83.42-1.22.65h0c-.36.14-.72.26-1.09.38-.73.23-1.46.42-2.2.6-1.53.37-3.08.65-4.63.88l-.58.09-.69.08c-.78.1-1.57.18-2.37.26-1.35.14-2.7.25-4,.36-9.72.76-19.46,1.23-29.21,1.51-15.41.46-30.84.45-46.25.16l-4.53-.1Q508.85,599.57,495.79,579q-15.65-24.72-29.67-50.42-15.44-28.29-28.82-57.64-3.51-7.68-6.86-15.42c-1.1-2.54-2.2-5.09-3.28-7.65l-.14-.34c-.14-.33-.28-.65-.41-1l-.83-2-1.63-3.93q-6.13-15-11.75-30.12-10.33-28-18.82-56.61-1-3.31-1.94-6.63a5.18,5.18,0,0,0-2.11-2.84l-.18-.15-4.18-3.16-2.05-1.57-.65-.5-.13-.1-.69-.53q-4.39-3.42-8.73-6.92-9.17-7.39-18-15.14Q335,299,316.64,279.91q-20.49-21.29-38.85-44.49l-2.24-2.85-1-1.32-.45-.58-.38-.49q-2.24-2.91-4.44-5.85-4.31-5.73-8.48-11.56-7.87-11-15.25-22.38Q232.31,170,220.74,148.67c-.85-1.57-1.69-3.13-2.52-4.7a5,5,0,0,0-6.84-1.8,5.12,5.12,0,0,0-1.8,6.85c1.38,2.6,2.8,5.18,4.22,7.76,0,.06-.08.1-.11.16q-16,33.47-31.12,67.3-15.3,34.11-29.77,68.57-14.31,34-27.82,68.36-13.56,34.5-26.32,69.31T74,500.39c-.87,2.55-1.73,5.11-2.59,7.66-2-.19-4-.36-6-.48-6.43-.36-6.41,9.64,0,10,21.43,1.21,42.28,7.16,60.61,18.4a138.59,138.59,0,0,1,24.58,18.73,51.4,51.4,0,0,1,8.93,10.95,16.47,16.47,0,0,1,2,4.7,6.88,6.88,0,0,1,.14,3.92c-1.78,6.53-11.43,8.91-17.2,10.4-.82.21-1.64.4-2.47.56-.44.09-.89.16-1.33.24l-.66.11a60,60,0,0,1-6.84.32c-1.27,0-2.55-.08-3.82-.18-.69-.06-1.38-.12-2.07-.2l-.85-.09-.59-.07-.3-.05c-3.57-.54-7.1-1.27-10.6-2.15a206.37,206.37,0,0,1-28.58-9.81C60.09,562.51,34.93,548.72,10.9,533.7q21.15-70.1,42.92-140Q73.08,331.92,93,270.37q16.29-50.19,33.3-100.16c8.46-24.71,17.08-49.36,26.29-73.8,3.23-8.58,6.53-17.14,10-25.62.35-.83.69-1.67,1-2.5l.57-1.36.07-.18.11-.24q1-2.34,2-4.66c1.23-2.79,2.5-5.56,3.84-8.29,7.23-14.65,17.33-29.17,31.28-37.34a54.23,54.23,0,0,1,5-2.57l1.36-.55a50.65,50.65,0,0,1,5.22-1.6c11.11-2.79,22.61-1.27,33.58,1.36a161.15,161.15,0,0,1,53.5,23.21q3.78,2.57,7.42,5.35l.32.25.33.26,1.29,1c1.9,1.51,3.79,3,5.68,4.57q14.63,11.85,28.8,24.22a841.91,841.91,0,0,1,85,85.48c19.76,23,38,47.22,56.57,71.24,8.49,11,17.06,21.95,26,32.56,4.49,5.31,9.14,10.39,12.78,16.34s7.22,13.68,6.62,21a4.39,4.39,0,0,0-.59,2.36c0,.22,0,.42.08.63a15.46,15.46,0,0,1-1,2.72c-4.4,9.43-15.33,12.92-24.61,15.39-6.21,1.65-3.58,11.3,2.66,9.64,11-2.93,22.11-7.26,28.83-17a25.06,25.06,0,0,0,3-6,83.41,83.41,0,0,1,9,1.83c1.89.5,3.75,1.06,5.59,1.7.95.33,1.9.68,2.84,1,.53.21,1,.45,1.58.64-1.58-.56.41.19.81.36A70.35,70.35,0,0,1,572,319l.8.6.08.07c.45.36.9.72,1.34,1.09q1.69,1.42,3.29,2.95a67.84,67.84,0,0,1,5.87,6.47l.08.09.09.12.46.63q.69.93,1.35,1.89,1.27,1.88,2.41,3.82c.71,1.2,1.38,2.43,2,3.67.35.68.69,1.37,1,2.06.16.35.33.7.48,1.05,0,.07.23.51.34.78l.22.51.42,1.08c.28.72.55,1.45.8,2.18.51,1.47,1,3,1.39,4.46a52.66,52.66,0,0,1,1.82,8.78c0,.12,0,.24,0,.29,0,.39.09.79.13,1.18.06.66.12,1.31.16,2,.12,1.72.17,3.44.16,5.15,0,1.47-.08,2.93-.19,4.39-.05.66-.12,1.32-.19,2,0,.38-.07.77-.14,1.16s-.1.6-.11.69a60,60,0,0,1-2.2,9.07c-.43,1.34-.92,2.66-1.45,4l-.27.65c-.17.38-.35.76-.53,1.14-.42.89-.86,1.77-1.33,2.64a57.89,57.89,0,0,1-4.64,7.35s-.07.1-.12.17-.32.41-.48.61c-.4.49-.8,1-1.21,1.45-.88,1-1.79,2-2.74,3s-1.79,1.75-2.73,2.58c-.44.39-.88.78-1.34,1.15l-.73.61-.26.2c-.38.11-.93.71-1.23.92-.5.36-1,.72-1.52,1.07-1,.68-2,1.33-3.07,2-1.93,1.15-3.92,2.2-5.95,3.15l-1.55.7h0l.18-.07-.65.27c-1,.43-2.11.83-3.17,1.21a81.07,81.07,0,0,1-10.93,3c-1.58.32-3.18.57-4.77.81l-1,.12-2,.2c-1.72.15-3.44.25-5.17.26s-3.37-.07-5.05-.19c-.7-.06-1.39-.12-2.09-.2-.39,0-2.25-.09-.75-.07a23.24,23.24,0,0,1-4.11-.7,69.93,69.93,0,0,1-8.07-2.13C514,422.56,512.83,422.13,511.64,421.67ZM683.05,551.45c-10.15.73-20.41.17-30.55-.46-18.8-1.15-37.55-3.1-56.25-5.23l-6.1-.71q-12.52-21.25-24.63-42.75-13-23.15-25.52-46.56-5.26-9.87-10.44-19.79a79.29,79.29,0,0,0,27.3-2.89,77.5,77.5,0,0,0,11.63-4.3q17.57,38.46,35.14,76.91l7.51,16.45c-1.34.1-2.68.23-4,.37-2.59.28-5.13,2.1-5,5,.12,2.47,2.22,5.3,5,5a131.43,131.43,0,0,1,28.8,0l2.17.26.18,0,1.17.17c1.52.24,3,.49,4.54.78,2.65.51,5.29,1.11,7.91,1.78a156.07,156.07,0,0,1,15,4.64c1.19.44,2.37.88,3.55,1.35l1.63.65.72.29.32.13c2.09.84,4.14,1.83,6.15,2.82,1.81.9,3.6,1.85,5.34,2.88.77.45,1.52.92,2.26,1.41.4.27.81.62,1.23.92,0,0,.13,0,.31.15l-.09,0,.37.22,0,0a2.81,2.81,0,0,1-.42-.24c-.64.13-1.28.25-1.92.35l-.94.1C684.62,551.32,683.83,551.39,683.05,551.45Z"/><path class="cls-1" d="M194.12,538.17l.32-.23h0l.05-.05C194.18,538.1,194.09,538.18,194.12,538.17Z"/></g></g></svg>