<svg xmlns="http://www.w3.org/2000/svg" xmlns:xlink="http://www.w3.org/1999/xlink" version="1.1" x="0px" y="0px" viewBox="0 0 100 125" enable-background="new 0 0 100 100" xml:space="preserve"><path fill="#000000" d="M50.812,73.347c-4.111,0-7.455,3.34-7.455,7.445c0,4.107,3.344,7.449,7.455,7.449  c4.108,0,7.45-3.342,7.45-7.449C58.262,76.687,54.92,73.347,50.812,73.347z M50.812,84.241c-1.905,0-3.455-1.548-3.455-3.449  c0-1.899,1.55-3.445,3.455-3.445c1.903,0,3.45,1.546,3.45,3.445C54.262,82.693,52.715,84.241,50.812,84.241z"/><path fill="#000000" d="M59.958,66.036c-0.018-0.009-0.036-0.012-0.054-0.021c-0.065-0.03-0.135-0.053-0.204-0.076  c-0.059-0.02-0.116-0.041-0.175-0.055c-0.062-0.015-0.124-0.021-0.188-0.03c-0.07-0.01-0.141-0.02-0.212-0.021  c-0.02-0.001-0.038-0.006-0.058-0.006H42.562c-0.02,0-0.039,0.005-0.058,0.006c-0.07,0.002-0.14,0.012-0.21,0.021  c-0.064,0.009-0.127,0.016-0.189,0.03c-0.058,0.014-0.115,0.034-0.172,0.054c-0.07,0.023-0.14,0.047-0.207,0.077  c-0.017,0.009-0.036,0.012-0.053,0.021c-3.241,1.61-6.592,3.276-8.586,6.03c-2.969,4.118-2.397,9.904-1.844,15.5  c0.102,1.033,0.972,1.804,1.988,1.804c0.066,0,0.132-0.003,0.199-0.01c1.099-0.108,1.902-1.088,1.793-2.187  c-0.48-4.855-0.976-9.877,1.106-12.766c1.343-1.855,4.032-3.25,6.705-4.581h15.562c2.674,1.332,5.363,2.728,6.703,4.578  c2.085,2.89,1.588,7.911,1.107,12.768c-0.109,1.1,0.693,2.079,1.793,2.188c0.066,0.007,0.133,0.01,0.199,0.01  c1.016,0,1.886-0.771,1.988-1.803c0.554-5.597,1.127-11.384-1.846-15.505C66.551,69.314,63.199,67.647,59.958,66.036z"/><path fill="#000000" d="M62.869,29.725c-2.68,3.741-6.074,7.08-9.408,10.3h-5.294c-3.323-3.205-6.708-6.53-9.415-10.301  c-3.864-5.393-6.438-11.959-8.927-18.31l-0.043-0.111c-0.403-1.028-1.564-1.535-2.592-1.132c-1.028,0.403-1.535,1.564-1.132,2.592  l0.043,0.111c2.579,6.579,5.245,13.381,9.401,19.181c3.077,4.287,7.004,8.071,10.47,11.41c0.039,0.037,0.083,0.064,0.124,0.098  c0.055,0.045,0.107,0.092,0.167,0.132c0.057,0.037,0.117,0.064,0.176,0.095c0.055,0.029,0.107,0.061,0.165,0.084  c0.07,0.029,0.143,0.046,0.215,0.067c0.052,0.015,0.101,0.034,0.154,0.044c0.128,0.025,0.257,0.039,0.387,0.039h6.911  c0.129,0,0.26-0.014,0.387-0.039c0.055-0.011,0.104-0.03,0.156-0.045c0.072-0.02,0.144-0.038,0.213-0.066  c0.06-0.024,0.114-0.058,0.172-0.088c0.057-0.03,0.114-0.056,0.168-0.092c0.064-0.042,0.122-0.094,0.182-0.143  c0.036-0.03,0.076-0.054,0.111-0.088c3.646-3.518,7.416-7.156,10.461-11.408c4.18-5.821,6.85-12.651,9.446-19.294l-3.74-1.419  C69.333,17.719,66.756,24.311,62.869,29.725z"/><text x="0" y="115" fill="#000000" font-size="5px" font-weight="bold" font-family="'Helvetica Neue', Helvetica, Arial-Unicode, Arial, Sans-serif">Created by Lluisa Iborra</text><text x="0" y="120" fill="#000000" font-size="5px" font-weight="bold" font-family="'Helvetica Neue', Helvetica, Arial-Unicode, Arial, Sans-serif">from the Noun Project</text></svg>