<svg xmlns="http://www.w3.org/2000/svg" viewBox="0 0 322.47 1153"><defs><style>.cls-1{fill:#010101;}</style></defs><g id="Livello_2" data-name="Livello 2"><g id="Livello_1-2" data-name="Livello 1"><path class="cls-1" d="M321.52,1121.21c-2.64-8.44-9.27-15.08-16.32-20.08A112.72,112.72,0,0,0,282.43,1089a117.73,117.73,0,0,0-22-6.53q-3-56.68-5.9-113.35-3-57-5.93-113.9-1.68-32.13-3.35-64.25c0-.08,0-.16,0-.24s0-.14,0-.21q.43-33.42.86-66.83t.86-67.08l.48-37.12q12.6-58.71,25.21-117.41l12.69-59.1c2.08-9.69,4.19-19.33,5.76-29.11q1.19-7.47,2.39-14.92c.69-4.34.34-8.43,0-12.8a853.13,853.13,0,0,0-14-105.48,842.5,842.5,0,0,0-28.94-108.3A857.86,857.86,0,0,0,215,84.18q-2.22-4.73-4.49-9.42a4.25,4.25,0,0,0-2.35-2.06,5.39,5.39,0,0,0-.46-1.29c-1.06-2.07-2.08-4.17-3-6.29-.45-1-.87-2-1.31-2.94l0-.07-.24-.6c-.23-.54-.45-1.08-.66-1.63-1.46-3.66-2.77-7.39-3.89-11.16q-1.47-4.92-2.52-9.95c-.3-1.44-.58-2.89-.82-4.34-.12-.68-.23-1.36-.33-2l-.15-1a1.36,1.36,0,0,1,0-.2c-.91-7.33-1.35-15-4.68-21.75-3.54-7.12-13-12.18-20.5-7.82a10.66,10.66,0,0,0-4.47,5.23c-3.85-9-16.14-8.2-22-1.71-5.13,5.67-6.11,13.62-7,20.89-.22,1.72-.42,3.44-.64,5.15v.07c0,.33-.09.66-.14,1-.11.73-.23,1.46-.35,2.19q-.79,4.7-2,9.32-1.37,5.37-3.19,10.6-1,2.79-2.07,5.53l-.57,1.43-.4.93c-.42,1-.83,1.93-1.27,2.88q-1.45,3.18-3,6.29a4.51,4.51,0,0,0-.29.72c-.08.15-.15.31-.22.47a1005.26,1005.26,0,0,0-39.71,117,945.75,945.75,0,0,0-25.71,131q-4.38,35.32-6,70.9c-.54,12.05-1.4,24.35-.92,36.41.26,6.2,1.79,12.6,2.73,18.74l2.76,18.14q5.67,37.32,11.35,74.63L72.14,577c.91,6,2.38,12.18,2.5,18.25.13,6.39.17,12.79.25,19.19q1,75.72,2,151.44l.25,19.19h0q-3,57.24-6,114.48l-5.94,113.9Q63.61,1045,62,1076.61A116.82,116.82,0,0,0,45.55,1081,120.06,120.06,0,0,0,22.3,1092c-7.33,4.5-14.38,10-18.79,17.51s-5.06,17.12.48,24.39c5.34,7,13.87,11,22.43,12.41s16.9.87,25.35-.12c9.5-1.11,19-2.36,28.48-3.55l58-7.26,2-.25a4.93,4.93,0,0,0,3.06,1.12,5,5,0,0,0,4.23-2.4,4.55,4.55,0,0,0,2.84-4.36,5.89,5.89,0,0,0-2.07-4.08V794.9a102.07,102.07,0,0,0,37.07-3.08q-2.56,63.95-5.11,127.89-2.68,67-5.36,134-1.51,37.78-3,75.57a4.52,4.52,0,0,0,1,3,4.82,4.82,0,0,0-1,3c.13,3,2.21,4.66,5,5l58.28,7.3,28.9,3.61c8.29,1,16.66,2.19,25,1.69,8.83-.52,17.46-2.85,24.53-8.35S324.27,1130,321.52,1121.21ZM181.62,14.9c-.07-.15-.14-.29-.12-.3Zm-7.37-4.32,0,.09C174.14,10.72,174.12,10.71,174.25,10.58Zm-.15.42s0,.06,0,.05ZM165,93.44c3.1,6.55,8.8,11.59,15.33,15a4.19,4.19,0,0,0,.18.76,711.14,711.14,0,0,1,22.69,81.06q4.94,22.77,8.37,45.84.42,2.79.81,5.57c.13.92.26,1.85.38,2.77l.15,1.06c0,.2.1.76.11.81q.72,5.53,1.37,11.08,1.23,10.59,2.14,21.2,1.37,15.92,2,31.88a66.94,66.94,0,0,0-19.75-12.05,78.15,78.15,0,0,0-24.22-5.07,76.15,76.15,0,0,0-19.74,1.87A79.82,79.82,0,0,0,123.64,309q-2.27,1.71-4.41,3.55l10.89-70.91q6.66-43.4,13.33-86.8l7.2-46.91A33.19,33.19,0,0,0,165,93.44Zm8.64-5.13.14.32A1.39,1.39,0,0,1,173.67,88.31Zm2.9,4.76,0,0ZM155.51,10.19a.56.56,0,0,1-.13-.09h0l.12.11Zm-.14-.12h0Zm-3.06.47c-.13.07-.25.13-.25.11S152.19,10.58,152.31,10.54Zm-1.32.83.1-.09C151.45,10.93,151.22,11.19,151,11.37ZM9.88,1122.67s0,.23,0,.4A1.84,1.84,0,0,1,9.88,1122.67Zm302.55,3.3c0,.24,0,.49.06.73,0,.43,0,.86,0,1.29,0,.08,0,.48,0,.76,0-.57-.12.64-.17.86-.1.44-.22.87-.36,1.3l-.19.55,0,0v0c-.42.74-.78,1.49-1.26,2.19l-.27.37,0,0c-.36.37-.68.78-1.05,1.16-.61.62-1.27,1.18-1.93,1.74-.12.09-.24.18-.37.26-.43.31-.87.59-1.31.87-.81.51-1.64,1-2.49,1.4l-1.28.61h0l-.63.26a40.2,40.2,0,0,1-5.39,1.6c-.86.18-1.72.35-2.59.49l-.4.06h-.08c-.54.06-1.08.13-1.63.17-7.82.72-15.69-.15-23.46-1.12l-27.86-3.49-55.82-7-2.25-.28a5.27,5.27,0,0,0,.34-1.63q2.68-67.34,5.38-134.65,2.68-67,5.36-134l3-74.37a4.36,4.36,0,0,0,0-2.7c-.79-2.42-3.51-4.43-6.15-3.49a98.84,98.84,0,0,1-9.82,2.93q-3,.74-6.13,1.26c-.94.17-1.89.31-2.83.45l-.75.09c-.62.08-1.25.15-1.87.21a97.31,97.31,0,0,1-13.44.39q-2.83-.12-5.65-.4l-2.52-.29-.48-.07-1.33-.2c-2.57-.41-5.5.66-6.15,3.49a5.4,5.4,0,0,0-.06,2,5,5,0,0,0-.12,1v334.41l-48.75,6.1-27.9,3.49c-8.15,1-16.34,2.26-24.56,2.24q-2.89,0-5.78-.25l-1.42-.15-.33,0-.16,0c-.93-.16-1.86-.32-2.78-.52a38.51,38.51,0,0,1-5.58-1.67l-.38-.16-.09,0-1.1-.52c-.91-.45-1.8-1-2.67-1.48-.39-.25-.78-.5-1.16-.76-.16-.11-.31-.24-.48-.34l0,0a25,25,0,0,1-2-1.76c-.32-.33-.62-.67-.93-1l0,0L12,1128c-.26-.37-.51-.75-.74-1.14s-.78-1.12-.72-1.38c0,0,.32.87.13.3-.06-.19-.14-.37-.2-.56-.15-.42-.27-.86-.38-1.29-.05-.23-.13-.48-.18-.73v-.16c0-.31,0-.61,0-.92s0-.74,0-1.1c0-.15.12-1,.1-1,.05-.24.11-.51.13-.59.11-.48.24-1,.39-1.43s.3-.83.43-1.24c0,0,0-.06,0-.08s.11-.21.15-.31a25.25,25.25,0,0,1,1.31-2.39c.49-.8,1-1.54,1.57-2.31-.49.71,0,0,.22-.26s.7-.84,1.06-1.25a46.81,46.81,0,0,1,4.28-4.17c.37-.31.73-.62,1.11-.92l.48-.37c.74-.55,1.48-1.09,2.24-1.6a111.48,111.48,0,0,1,10.4-6.21q2.64-1.38,5.34-2.63c.84-.39,1.68-.76,2.53-1.13l.46-.19.11,0,1.57-.63a115.76,115.76,0,0,1,23.11-6.45c.91-.16,1.82-.3,2.73-.44l.63-.08,1.62-.2c2-.23,4-.4,5.93-.52a111.38,111.38,0,0,1,12.12-.1c2,.09,4,.24,5.93.43,2.62.26,5.12-2.48,5-5a5.13,5.13,0,0,0-5-5,115.94,115.94,0,0,0-23.85.15l5.82-111.84q3-57,5.93-113.9,1.67-31.77,3.31-63.56a5,5,0,0,0,0-.68h0a4.17,4.17,0,0,0,0-.5l-2-150.93L84.65,596c-.08-6.06-1.43-12.14-2.34-18.13q-1.43-9.4-2.86-18.83L68.2,485.1l-5.73-37.67c-.92-6-2.11-12.07-2.76-18.13s0-12.43.11-18.49q.85-35.76,4.52-71.38A920.43,920.43,0,0,1,88,206.89,991.13,991.13,0,0,1,126.17,88.67q2.46-6.26,5-12.47a136.3,136.3,0,0,0,13.7-41c.51-3.34.87-6.7,1.3-10v0a.15.15,0,0,1,0-.06,1.11,1.11,0,0,1,0-.17.78.78,0,0,1,0-.14c0-.06,0-.12,0-.17,0-.37.11-.73.16-1.09.14-.9.3-1.79.47-2.68A39.34,39.34,0,0,1,148,16.3c.12-.36.25-.73.39-1.09v0c.15-.19.87-1.72,1-1.91s.32-.49.48-.74c.06-.08.11-.16.15-.2.2-.22.4-.44.62-.64l.25-.24c.2-.11.46-.35.6-.44.3-.18.63-.32.93-.5l.27-.08a12,12,0,0,1,1.18-.31l.12,0h1.09l.25.08h0l.28.13h0l.05,0a.56.56,0,0,1,.05.08l.06.06h0v0l.11.22c.1.33.3.82.33.92.08.32.12.65.2,1,.05.67.08,1.33.09,2,0,4-.07,8,0,12,.14,9.11.55,18.21.76,27.32.16,7,.41,14,.55,21,0,2.09.07,4.18,0,6.27,0,.86-.08,1.71-.16,2.57l0,.26-.12.73a20.66,20.66,0,0,1-.49,2c-.09.29-.19.59-.29.88l-.21.58c-.17.28-.8,1.61-.9,1.78-.29.5-.58,1-.89,1.47s-.47.72-.73,1.07l-.24.34-.08.09a29.18,29.18,0,0,1-3.32,3.35c-.23.2-.49.39-.73.59l-.25.19c-.62.44-1.26.86-1.91,1.26a36.48,36.48,0,0,1-3.86,2c-.27.12-.56.22-.82.36l.14-.08-.15.07c-.6.24-1.21.46-1.82.67q-1.65.56-3.33,1c-.88.23-1.75.43-2.64.61a5,5,0,0,0-3.49,6.15,5.12,5.12,0,0,0,6.15,3.49c.78-.16,1.56-.34,2.33-.54L127.9,190.66q-6.66,43.4-13.33,86.8-3.73,24.36-7.48,48.72A59.41,59.41,0,0,0,103,383a57.32,57.32,0,0,0,5.8,9.79,41.77,41.77,0,0,0-26.55,8.08,43.39,43.39,0,0,0-7.47,6.85c-1.68,2-2.11,5.14,0,7.08,1.85,1.7,5.27,2.14,7.07,0A37.69,37.69,0,0,1,87,409.71l.23-.18c.32-.23.64-.48,1-.7q1.32-.93,2.7-1.74c.91-.53,1.83-1,2.78-1.48.32-.15,2-1,.73-.35a11.29,11.29,0,0,1,1.7-.66,36,36,0,0,1,3.67-1.09c.58-.14,1.17-.27,1.76-.38l1-.18.22,0,.14,0a43.08,43.08,0,0,1,8.11,0h.1l.61.09c.54.09,1.07.19,1.61.3,1.18.25,2.35.56,3.5.92,1,.3,1.93.64,2.87,1,.18.07.38.18.56.23l-.1,0c.43.19.85.39,1.27.6a39.87,39.87,0,0,1,3.55,2l.77.47.16.1c.49.33,1,.67,1.45,1l-.3-.24.39.3h0l0,0a6.54,6.54,0,0,0,2.79,1.29,60.74,60.74,0,0,0,8.23,3.37,5,5,0,0,0,6.15-3.5,5.12,5.12,0,0,0-3.49-6.15c-.7-.22-1.4-.46-2.08-.71l-1-.39-.41-.16a39.6,39.6,0,0,1-4-2c-1.18-.64-2.34-1.32-3.47-2.05-.61-.39-1.22-.8-1.82-1.22l-.9-.64-.45-.32a43.36,43.36,0,0,1-6.47-5.94c-1-1.08-2-2.2-2.87-3.34l-.15-.18-.4-.56q-.77-1-1.47-2.1a53.77,53.77,0,0,1-4.24-7.69l-.12-.25c-.13-.3-.25-.61-.37-.92-.27-.68-.52-1.37-.76-2.06-.5-1.46-.93-2.95-1.3-4.45s-.61-2.9-.86-4.37l0-.14v-.06c0-.39-.09-.77-.13-1.16-.09-.9-.15-1.8-.2-2.7a58.71,58.71,0,0,1,.35-9.28V352s0-.09,0-.15c.07-.38.12-.76.19-1.15.11-.63.23-1.27.36-1.9.35-1.65.76-3.28,1.25-4.88s1-3,1.54-4.39l.23-.55c.08-.19.17-.39.18-.4.37-.82.76-1.64,1.17-2.44a54.86,54.86,0,0,1,4.91-7.88l0-.07L118,328l.74-.9c.49-.59,1-1.17,1.53-1.74q1.74-1.89,3.61-3.64,1.67-1.54,3.42-3l.9-.73.12-.1.09-.06c.71-.53,1.42-1.05,2.14-1.56a72.39,72.39,0,0,1,7.43-4.55c1.13-.6,2.26-1.16,3.42-1.7.61-.29,1.23-.57,1.85-.84l.31-.13-.28.12a4.68,4.68,0,0,1,1.22-.5q3.53-1.38,7.15-2.43c2.2-.64,4.43-1.18,6.67-1.63,1-.2,2.06-.39,3.09-.56l1.27-.19h-.17l.42-.05H163l.42-.05a72,72,0,0,1,8.8-.56,57.59,57.59,0,0,1,5.87.34l2.16.24.41.06,1.42.23c2.24.38,4.47.87,6.67,1.46A68.25,68.25,0,0,1,196,308l.95.38h0l.07,0c.54.24,1.07.47,1.6.72,1.43.67,2.83,1.4,4.2,2.17s2.5,1.48,3.71,2.29q.9.6,1.77,1.23l.94.7.59.47a57.23,57.23,0,0,1,6.75,6.46c.45.51.89,1,1.33,1.55.22.26.43.53.64.8l.12.13a21.19,21.19,0,0,1,2.3,3.25,65.19,65.19,0,0,1,4.19,7.36q.38.75.72,1.53c.14.31.28.61.41.92a1.86,1.86,0,0,0,.13.23,14.25,14.25,0,0,1,.65,1.71c.28.74.55,1.48.8,2.22a75.71,75.71,0,0,1,2.19,7.79c.29,1.31.54,2.63.76,4,.09.54.17,1.08.25,1.63v0l.15,1.33a75.32,75.32,0,0,1,.42,7.95,70.22,70.22,0,0,1-.43,7.81c0,.33-.07.65-.11,1h0c-.09.61-.18,1.22-.28,1.83-.24,1.35-.51,2.7-.83,4a61.32,61.32,0,0,1-2.14,7.12c-.21.56-.43,1.11-.65,1.67-.07.17-.15.33-.22.5-.53,1.18-1.1,2.34-1.72,3.48-1.12,2.07-2.56,3.88-3.77,5.88.82-1.36-.18.21-.47.55s-.74.87-1.12,1.29a41.84,41.84,0,0,1-3.59,3.46l-.67.55-.64.5-.33.23c-.63.4-1.25.82-1.85,1.25-1.07.68-2.16,1.32-3.28,1.91a5,5,0,0,0,3.94,9.06,5.42,5.42,0,0,0,3.27-1.39l.51-.44c.11-.1.24-.2.36-.29l1.08-.77.17-.12c.5-.35,1-.68,1.53-1a38.72,38.72,0,0,1,4.26-2.28l.15-.05.19-.1.09,0,.12-.06-.05,0,1.17-.44c1-.35,2-.66,3-.92s1.94-.43,2.91-.61l.25,0,.41,0c.68-.06,1.37-.11,2.06-.13a30.61,30.61,0,0,1,3.32.08l1,.09h.2a14.45,14.45,0,0,1,1.76.37,31.27,31.27,0,0,1,3.47,1c.39.14.83.26,1.21.44l.06,0,1,.46a50.42,50.42,0,0,1,5.21,3.19l.52.42c.35.29.69.59,1,.9.6.54,1.18,1.11,1.75,1.69a34.13,34.13,0,0,1,2.29,2.66c1.62,2.07,5.4,1.82,7.07,0,2-2.2,1.73-4.86,0-7.07a37.67,37.67,0,0,0-19.35-13,35.56,35.56,0,0,0-12.33-1.15,58.12,58.12,0,0,0,4.22-8.86,72.17,72.17,0,0,0,3.81-32.84A75.58,75.58,0,0,0,229.5,323c-.18-.27-.37-.53-.56-.8,0,0,0-.07,0-.1a725.4,725.4,0,0,0-6.83-82.62A708.59,708.59,0,0,0,203.63,150q-5.17-18.84-11.4-37.37l.29.07c2.55.52,5.52-.74,6.15-3.49.56-2.5-.75-5.59-3.5-6.15a51.37,51.37,0,0,1-6-1.6c-.57-.2-1.13-.4-1.69-.62l-.59-.24-.37-.16a36.48,36.48,0,0,1-3.86-2c-.61-.37-1.2-.76-1.78-1.17-.29-.21-1.12-1-.19-.11-.29-.28-.62-.5-.92-.76a33.16,33.16,0,0,1-3.38-3.43c-.07-.1-.15-.18-.16-.2-.25-.35-.5-.7-.73-1.07-.35-.53-.67-1.07-1-1.62s-.58-1.11-.87-1.68l-.05-.1c0-.14-.08-.27-.12-.37-.13-.36-.25-.72-.36-1.09a20.66,20.66,0,0,1-.49-2l-.12-.7,0-.29c-.18-1.81-.21-3.64-.21-5.45,0-6,.29-12,.44-17.95.23-8.93.51-17.86.76-26.79.12-4.55.21-9.1.2-13.66,0-1.79-.07-3.59-.06-5.38,0-.57,0-1.14.08-1.71a7.6,7.6,0,0,0,.21-1.14c.07-.26.16-.52.25-.78l.11-.22v0l-.06.05a.25.25,0,0,0,0-.07v0l.06-.05.09-.09.07-.11,0,0s0,0,0,0l0,0h0l.06,0c.14,0,.3-.07.43-.12s.51,0,.76,0c.09,0,.32,0,.45,0q.57.12,1.14.3l.48.17c.56.16-.45-.16-.41-.19.24-.2,1.28.8,1.73,1l.15.14c.21.2.42.41.62.63l.09.11a6,6,0,0,0,.64.94c.35.57.59,1.2.93,1.77v0c.15.42.31.83.44,1.25a37.45,37.45,0,0,1,1.16,4.55c.16.83.3,1.66.44,2.5.05.36.11.72.16,1.08a1.49,1.49,0,0,1,0,.21s0,.05,0,.29a1.11,1.11,0,0,1,0,.17.13.13,0,0,1,0,.06v0c.2,1.57.38,3.15.58,4.72a137,137,0,0,0,11.7,40.73c.9,2,1.86,3.93,2.85,5.87a4.48,4.48,0,0,0,2.37,2.05,5.7,5.7,0,0,0,.44,1.3,839.39,839.39,0,0,1,35,83.46,844.72,844.72,0,0,1,30.05,105.59,833.16,833.16,0,0,1,15.73,105.65c.65,7.78,2.11,16.15.87,23.87-1.56,9.77-3,19.55-5.08,29.23q-6.29,29.29-12.58,58.58-12.53,58.3-25,116.62-1.59,7.4-3.17,14.78a1.7,1.7,0,0,0,0,.22,5,5,0,0,0-.14,1.11q-.43,33.41-.86,66.83l-.87,67.08-.48,37.65v.06c0,.13,0,.26,0,.39q3,57.24,6,114.48,3,57,5.93,113.9l3.21,61.6a116.52,116.52,0,0,0-17.71-.58q-3.07.14-6.15.44c-2.59.25-5.13,2.11-5,5,.11,2.49,2.22,5.27,5,5a113.74,113.74,0,0,1,24,.19l1.48.17.1,0,.47.06c1,.14,2,.3,2.94.46,2,.35,4,.75,6,1.2,3.87.88,7.7,2,11.46,3.21,1.88.64,3.75,1.32,5.59,2.05l1.39.55.28.12.22.09.09,0-.07,0,.05,0c1,.42,1.94.85,2.91,1.3a113.46,113.46,0,0,1,10.52,5.55q2.55,1.53,5,3.2c.77.52,1.53,1.08,2.29,1.62h0l.43.34q.64.51,1.26,1a45,45,0,0,1,4.13,4c.31.36.63.72.93,1.09l.39.47.07.09c.09.13.21.29.24.35s.24.32.35.49c.3.43.59.88.87,1.33.47.77.91,1.57,1.31,2.39.08.17.15.35.24.52.26.54-.14-.32-.14-.31.19.07.44,1.2.51,1.42a6.73,6.73,0,0,1,.6,2.52S312.39,1125.37,312.43,1126ZM217.71,414.72Z"/><path class="cls-1" d="M280.49,1098.9h0l-.22-.09Z"/><path class="cls-1" d="M120.15,405.4h0C119.81,405.25,119,405.06,120.15,405.4Z"/><path class="cls-1" d="M127.49,409.69l0,0h0l-.09-.06C128.45,410.49,127.85,410,127.49,409.69Z"/><path class="cls-1" d="M225.16,410.41l-.07,0-.28.13C224.51,410.74,224.45,410.91,225.16,410.41Z"/><path class="cls-1" d="M163,303.86h-.12l-.21,0C164,303.79,163.39,303.81,163,303.86Z"/><path class="cls-1" d="M142.91,100.67c.38-.18.88-.48,0,0Z"/><path class="cls-1" d="M155.77,10.47l0-.05,0,0-.07-.07h0S155.67,10.44,155.77,10.47Z"/><path class="cls-1" d="M146.22,24.79a2.91,2.91,0,0,1,0,.31v0C146.4,24.26,146.29,24.5,146.22,24.79Z"/><path class="cls-1" d="M174.55,10.3l-.13.12-.12.19A.62.62,0,0,0,174.55,10.3Z"/><path class="cls-1" d="M184,25.14v0c0-.15-.05-.3-.07-.46A3.78,3.78,0,0,0,184,25.14Z"/></g></g></svg>