<svg xmlns="http://www.w3.org/2000/svg" xmlns:xlink="http://www.w3.org/1999/xlink" version="1.1" x="0px" y="0px" viewBox="0 0 100 125" enable-background="new 0 0 100 100" xml:space="preserve"><path fill="#000000" d="M50.903,30.217c4.386,0,7.954-3.569,7.954-7.957c0-4.386-3.568-7.953-7.954-7.953  c-4.385,0-7.953,3.567-7.953,7.953C42.951,26.647,46.518,30.217,50.903,30.217z M50.903,19.307c1.63,0,2.954,1.325,2.954,2.953  c0,1.631-1.324,2.957-2.954,2.957c-1.628,0-2.953-1.326-2.953-2.957C47.951,20.632,49.275,19.307,50.903,19.307z"/><path fill="#000000" d="M52.275,54.095l-0.002,0.003c-0.289-0.117-0.604-0.185-0.936-0.185h-6.901c-0.007,0-0.014,0.002-0.021,0.002  c-0.098,0.001-0.193,0.017-0.29,0.029c-0.069,0.009-0.141,0.01-0.208,0.024c-0.044,0.01-0.086,0.028-0.13,0.04  c-0.271,0.073-0.527,0.182-0.753,0.335c-0.01,0.007-0.018,0.017-0.027,0.023c-0.121,0.084-0.236,0.177-0.34,0.281  c-0.045,0.045-0.082,0.1-0.124,0.149c-0.063,0.074-0.13,0.146-0.185,0.227c-0.027,0.041-0.046,0.089-0.072,0.132  c-0.059,0.101-0.117,0.201-0.162,0.31c-0.002,0.005-0.006,0.01-0.008,0.016c-2.233,5.56-4.342,10.812-7.874,14.568  c-3.857,4.116-9.578,6.585-15.633,9.199l-0.011,0.005c-1.268,0.547-1.846,2.016-1.299,3.283c0.407,0.944,1.331,1.508,2.299,1.508  c0.332,0,0.669-0.066,0.992-0.206c6.259-2.701,12.731-5.494,17.298-10.367c3.795-4.037,6.111-9.315,8.234-14.559h4.761  c5.7,2.134,11.043,4.189,13.746,7.882c2.617,3.562,3.088,9.071,3.592,14.967c0.11,1.301,1.197,2.257,2.479,2.257  c0.074,0,0.147-0.004,0.222-0.01c1.376-0.117,2.394-1.359,2.276-2.735c-0.535-6.265-1.09-12.744-4.536-17.436  C65.021,58.865,58.541,56.439,52.275,54.095z"/><path fill="#000000" d="M80.146,24.967c-4.494,2.147-9.141,4.367-13.933,5.697c-3.639,1.015-7.541,1.553-11.322,2.066H42.868  c-4.315-0.741-8.762-1.521-12.582-3.247c-3.196-1.442-6.126-3.595-9.228-5.873l-0.092-0.067c-1.113-0.82-2.678-0.578-3.495,0.535  c-0.817,1.112-0.578,2.677,0.535,3.494l0.092,0.067c3.174,2.332,6.456,4.742,10.13,6.4c4.462,2.018,9.312,2.85,14.003,3.654  c0.137,0.023,0.272,0.033,0.407,0.034c0.005,0,0.01,0.002,0.016,0.002h12.412c0.002,0,0.004-0.001,0.005-0.001  c0.109,0,0.221-0.006,0.332-0.021c3.998-0.544,8.133-1.106,12.15-2.227c5.212-1.446,10.06-3.763,14.748-6.003  c1.246-0.596,1.773-2.088,1.178-3.334C82.883,24.899,81.393,24.37,80.146,24.967z"/><text x="0" y="115" fill="#000000" font-size="5px" font-weight="bold" font-family="'Helvetica Neue', Helvetica, Arial-Unicode, Arial, Sans-serif">Created by Lluisa Iborra</text><text x="0" y="120" fill="#000000" font-size="5px" font-weight="bold" font-family="'Helvetica Neue', Helvetica, Arial-Unicode, Arial, Sans-serif">from the Noun Project</text></svg>