<svg xmlns="http://www.w3.org/2000/svg" viewBox="0 0 1032.93 440.51"><g id="Livello_2" data-name="Livello 2"><g id="Livello_1-2" data-name="Livello 1"><path d="M681.89,412.41l.11.07.06,0Z"/><path d="M13.32,340.77c-1.22-.31-.49-.07,0,0Z"/><path d="M10.9,340.09l0,0,.44.14A.74.74,0,0,0,10.9,340.09Z"/><path d="M10.24,339.45l0-.05a0,0,0,0,1,0,0h0a.9.9,0,0,1,.05.09h0c0,.06.07.08.07.06l.19.2A.84.84,0,0,0,10.24,339.45Z"/><path d="M29.82,230.11a.08.08,0,0,0,0,0,.36.36,0,0,0,0,.09l.06.14C30.12,230.75,30.36,230.94,29.82,230.11Z"/><path d="M76.5,124.08c0,.11-.11.23-.16.35h0Z"/><path d="M1029.42,300.23a91.87,91.87,0,0,0-24.54-41.31,94.72,94.72,0,0,0-34.78-20.75A102,102,0,0,0,945.3,233l-.7,0a53.08,53.08,0,0,0,4-27.19,57.53,57.53,0,0,0-4.54-16.52A119.76,119.76,0,0,0,947.23,154c-.74-10.26-3-20.85-8.4-29.72a36.78,36.78,0,0,0-9.09-10.12,31.29,31.29,0,0,0-15.56-5.75c-6.45-.74-13.07.23-19.39,1.52a172.51,172.51,0,0,0-18.72,4.83,117.25,117.25,0,0,0-32.41,16.41,6,6,0,0,0-1,.86c-2.07-.58-4.14-1.16-6.23-1.7-17-4.42-34.21-7.47-51.37-11-18.91-3.83-37.69-8.32-55.94-14.65-33.58-11.66-64-29.6-92.53-50.65C615.5,38.46,595.17,20.35,571.08,9.35A99.28,99.28,0,0,0,535.34.15c-16.08-.92-32.54,2.42-47.42,8.39-2,.79-3.89,1.62-5.81,2.48a6.1,6.1,0,0,0-1.08.4,427.7,427.7,0,0,0-73.85,45.82,452.89,452.89,0,0,0-57,52.27Q338,122.79,326.85,137a561.15,561.15,0,0,0-139-19.67Q166.45,117,145,118.39a5.59,5.59,0,0,0-2,.52c-11.45-4.06-22.64-8.82-33.91-13.35-5.36-2.16-10.83-4.93-16.78-4.38a26.44,26.44,0,0,0-15,6.82,36.11,36.11,0,0,0-9.68,14.26,30.05,30.05,0,0,0-2.68,3.33,21,21,0,0,0-1.44,3.6c-.79,2-1.6,4-2.41,6l-1.23,3-.69,1.64c-.12.28-.23.56-.35.85l-.15.34c-1.07,2.54-2.17,5.08-3.28,7.6q-7.73,17.59-16.56,34.66c-4.53,8.77-9.39,17.41-13.43,26.42-2.66,5.92-5.68,12.77-4.9,19.43a15.71,15.71,0,0,0,4.4,9.51c3.45,3.46,8.15,5,12.89,5.74l-.9,2c-6.38,14.27-12.22,28.77-17.9,43.33s-11.23,29.17-17,43.68C1.2,335.16,0,337.23,0,339.2a11.57,11.57,0,0,0,1.52,5.26,12.37,12.37,0,0,0,7.07,5.47,22.93,22.93,0,0,0,7.46.94,23.56,23.56,0,0,0,7.3-1,46.2,46.2,0,0,0,9.7-4.29c3.27-2.08,5.62-4.94,8-7.94A226.2,226.2,0,0,0,54.38,318.5c2.08-3.26,4.14-6.53,6.27-9.76l1.57-2.36.81-1.19v0l.13-.15c1-1.25,2-2.49,3.13-3.68a70,70,0,0,1,6.24-6.06c.54-.47,1.09-.93,1.65-1.37a10.57,10.57,0,0,1,.83-.67l0,0,.15-.1c1.23-.93,2.48-1.81,3.77-2.65a76.84,76.84,0,0,1,7.62-4.4c1.26-.63,2.53-1.23,3.82-1.8.3-.13.6-.27.9-.39l.18-.07c.76-.31,1.53-.61,2.3-.89a99.45,99.45,0,0,1,16.8-4.61c1.41-.26,2.83-.5,4.25-.71l1.07-.15h0l.1,0,2.52-.29c3-.32,6-.54,9-.66a161.5,161.5,0,0,1,18.14.3q4,.29,8.09.75c26.77,5.38,53.41,11.51,80.34,16.13,27.09,4.66,54.6,7.91,82.13,7a241.26,241.26,0,0,0,46.2-5.9,4.37,4.37,0,0,0,1.94-1c19.87-9.84,37.16-24,54.17-38l55.73-46,18.44-15.22L540.33,219l49.33,25.32,26,13.34q1.41,6.9,2.89,13.77Q625,300.88,633.06,330q4.08,14.6,8.56,29.08c2.69,8.67,5.39,17.36,8.88,25.75a99.3,99.3,0,0,0,13.73,24.15,70.07,70.07,0,0,0,18.24,15.94c13.77,8.42,29.76,12.14,45.63,14,7.88.91,15.82,1.31,23.75,1.47,7.78.15,15.73.5,23.45-.62,7.5-1.1,15.13-4.52,17.89-12.1,3.32-9.08-3.48-17.19-10.56-21.92a74.52,74.52,0,0,0-11.46-5.86c-4.65-2-9.37-3.91-14.18-5.53a162.33,162.33,0,0,0-27.76-6.72,172.66,172.66,0,0,0-24.13-1.94l-11.61-69.94q-2.49-15-5-30.07,14.14,12.5,29,24.09,22.94,17.82,47.43,33.44,3.75,2.37,7.53,4.69a5.16,5.16,0,0,0,1.69,1.73A153.8,153.8,0,0,0,791.46,359l0,0a4.87,4.87,0,0,0,.84.37c1.48.65,3,1.29,4.48,1.87,4.66,1.81,9.71,3.25,14.75,3.2a18.13,18.13,0,0,0,9-2.26l.55-.15a87.37,87.37,0,0,0,26.41-15.44c.88-.75,1.74-1.52,2.59-2.31,0,.05,0,.09.05.13a113.26,113.26,0,0,0,26.68,37.69,103.21,103.21,0,0,0,38.54,22.68,88.67,88.67,0,0,0,31.15,4.24,108.67,108.67,0,0,0,24-4,93.12,93.12,0,0,0,32.7-16.6,79.55,79.55,0,0,0,25.86-38.13C1034.25,334.17,1034,316.49,1029.42,300.23ZM859.55,132.85q3.35-1.89,6.83-3.55c1.25-.59,2.51-1.17,3.78-1.72l.43-.18.84-.34c.71-.29,1.43-.57,2.16-.85a150.68,150.68,0,0,1,17.94-5.3c3-.74,6.05-1.42,9.11-1.94.7-.12,1.41-.22,2.12-.33h.15l1.26-.15c1.52-.16,3-.26,4.57-.29,1.35,0,2.7,0,4,.1.33,0,.66.06,1,.09l.35,0a17,17,0,0,1,2,.4,28.29,28.29,0,0,1,3.71,1.12l.12,0,.11,0,.7.34c.49.24,1,.5,1.43.78.71.42,1.37.9,2,1.36l.4.33c.39.34.77.68,1.14,1,.63.6,1.23,1.23,1.8,1.88.28.32.54.65.81,1l.41.55a38.73,38.73,0,0,1,3,5.11c.22.44.44.88.64,1.33.12.25.23.5.34.75.39,1,.8,2,1.15,3.07a61.53,61.53,0,0,1,1.87,6.83c.24,1.13.46,2.26.65,3.41l.27,1.75v.1c0,.36.09.72.13,1.08a99.65,99.65,0,0,1,.2,18.76c-.13,1.69-.3,3.37-.5,5,0,.28-.07.56-.1.85v.06c0,.25-.07.5-.11.75-.13.87-.26,1.73-.41,2.59s-.31,1.83-.48,2.74a261.56,261.56,0,0,0-46-31,239.31,239.31,0,0,0-34.81-14.67Q857.09,134.25,859.55,132.85Zm-606.78-.78ZM724.89,397H725C725.5,397.07,725,397,724.89,397Zm88.65-42.65-.5.09-.5,0q-.62,0-1.23,0c-.84,0-1.67-.1-2.51-.16l-.52-.09-1.74-.36a53,53,0,0,1-7.51-2.41c-.35-.14-.7-.29-1-.42l-.29-.13-1.16-.52q-24.39-13.77-47.43-29.77-11.6-8.06-22.78-16.66l-.83-.63-1.06-.83-2.87-2.24q-2.56-2-5.1-4.06-5.13-4.14-10.16-8.38-10.42-8.77-20.42-18-2.31-13.87-4.61-27.75l-6.9-41.54c-.42-2.59-3.76-4.26-6.15-3.49-2.79.9-4,3.38-3.49,6.15Q670.85,240,677,276.83t12.23,73.63q3.44,20.78,6.89,41.54c.35,2.1,2.8,3.71,4.82,3.67,4.64-.09,9.29,0,13.92.33,2.31.15,4.63.36,6.93.61l3.14.38,1,.14,1.72.26A161.91,161.91,0,0,1,754.33,404q3.3,1.13,6.55,2.37c1.08.42,2.16.85,3.23,1.3l.83.35,1.63.7a71.23,71.23,0,0,1,11.18,5.78l1,.71.28.21.16.13a24.53,24.53,0,0,1,2.06,1.89c.32.33.62.67.93,1l0,0,.23.32c.22.31.42.62.61.94l.36.65.05.09c0,.14.27.72.32.89s.13.38.2.63a.76.76,0,0,0,0,.17c0,.18,0,.36,0,.55s0,.36,0,.55v.1c-.09.34-.14.69-.25,1a.76.76,0,0,1,0,.11c-.14.22-.3.7-.39.85s-.72,1.34-.39.63-.11.09-.31.3-.53.49-.79.74h0l-.1.06c-.31.2-.62.41-.94.6s-.67.37-1,.54l-.44.21c-.85.42.25-.08.27-.11-.27.42-1.79.64-2.27.78a21.75,21.75,0,0,1-4.66,1l-.49,0-1.06.1q-1.32.1-2.64.15c-7.54.24-15.14.09-22.68-.19-3.9-.15-7.8-.37-11.69-.7q-2.8-.24-5.6-.55l-2.88-.36h-.1l-.22,0-1.63-.24A119.05,119.05,0,0,1,701.82,423q-1.3-.45-2.61-1l-1.1-.43-.71-.29c-1.66-.73-3.31-1.48-4.92-2.31a72.83,72.83,0,0,1-9.22-5.6l-1.11-.82-.09-.07-.06,0-.32-.24.21.17-.13-.11c-.72-.58-1.44-1.17-2.14-1.77-1.42-1.22-2.78-2.51-4.08-3.85s-2.81-3-4.09-4.63c-.15-.18-.66-.86-.47-.61-.28-.36-.55-.72-.82-1.09-.66-.92-1.31-1.86-1.93-2.81a91.23,91.23,0,0,1-6.08-10.94c-.46-1-.91-1.94-1.34-2.92-.18-.42-.36-.84-.55-1.26l0-.06h0c-.12-.29-.24-.57-.35-.85-.82-2-1.59-4-2.33-6-3.11-8.52-5.74-17.23-8.37-25.91q-8.48-28-15.38-56.44t-12.26-57.47q-2.64-14.39-4.89-28.85-1.11-7.16-2.13-14.33l-.51-3.66-.21-1.57c0-.09,0-.39-.07-.59a28.48,28.48,0,0,1-.07-3.81c0-.38.05-.75.09-1.13,0-.17,0-.33.06-.5,0-.59-.06.52-.07.48-.21-.52.38-2.1.52-2.64.2-.8.44-1.58.71-2.35.07-.18.14-.35.2-.53.19-.39.36-.78.56-1.15.45-.85,1-1.62,1.5-2.43-.46.72,0,0,.26-.3a15.61,15.61,0,0,1,1.12-1.18c.31-.3.65-.57,1-.86l.43-.3a19.9,19.9,0,0,1,2.33-1.35l.51-.24c.34-.12.67-.26,1-.37a26.08,26.08,0,0,1,2.91-.81c.4-.09.8-.17,1.21-.24l.82-.14.14,0,.2,0,.85-.09,1.73-.12a81.3,81.3,0,0,1,12.67.6l3.12.34,1.67.21.71.09.84.11.18,0,.93.13,1.4.2c1.15.17,2.29.35,3.44.54q6.11,1,12.15,2.33a229.68,229.68,0,0,1,22.3,6.1q4.89,1.6,9.72,3.44c1.54.58,3.09,1.19,4.62,1.81l2.07.85.24.1,1.2.52q7.71,3.33,15.15,7.27a167.61,167.61,0,0,1,19,11.58c.76.54,1.51,1.09,2.26,1.65l.2.17c4.12,3.31,8,6.91,11.84,10.59a214.68,214.68,0,0,1,15.14,16.34c1.13,1.36,2.26,2.74,3.36,4.12l1.7,2.16,0,0,.16.2,1,1.25q3.27,4.34,6.35,8.82a242.27,242.27,0,0,1,20.28,35.57q1,2.21,2,4.42l.87,2v0l.08.18.51,1.25q1.71,4.17,3.24,8.41c1.9,5.27,3.58,10.63,5,16.06.63,2.49,1.2,5,1.69,7.51.23,1.19.44,2.38.63,3.58.09.53.17,1.07.25,1.61l.05.36c0,.11,0,.21,0,.26a68.69,68.69,0,0,1,.54,12.25c0,.88-.13,1.76-.23,2.64h0c-.06.4-.13.8-.2,1.2a28.08,28.08,0,0,1-1.19,4.31c-.12.26-.24.52-.38.78-.27.53-.59,1-.91,1.52-.15.17-.29.34-.45.5s-.38.37-.57.55c-.38.23-.75.49-1.15.69-.22.08-.45.18-.67.24S813.84,354.27,813.54,354.34Zm209.17-23c-.07,1-.17,2-.28,3,0,.13-.09.75-.12,1v.06c0,.33-.09.67-.15,1a75.63,75.63,0,0,1-2.83,11.87c-.29.92-.61,1.83-.94,2.73l-.51,1.36-.31.78c0,.07-.19.45-.26.64l0,.09c-.11.25-.23.51-.34.77-.2.44-.41.89-.62,1.33q-.67,1.44-1.41,2.85a75.92,75.92,0,0,1-6,9.63c-.25.34-.57.68-.79,1l-.12.16c-.57.72-1.15,1.42-1.75,2.11-1.09,1.28-2.23,2.51-3.4,3.7s-2.33,2.29-3.55,3.38l-1.7,1.46-.86.71c-.23.18-1,.59-1.1.87l-.12.09-.87.64c-.67.49-1.34,1-2,1.43-1.21.82-2.45,1.62-3.7,2.37a84.34,84.34,0,0,1-7.73,4.14l-1.81.83-.89.39-.11,0-.11.05c-1.26.51-2.52,1-3.8,1.47a101.23,101.23,0,0,1-14.09,3.95q-3,.63-6.12,1.07l-.4.06-1.16.15c-.81.09-1.62.18-2.43.25-2.16.2-4.33.34-6.5.36s-4.39-.06-6.57-.21c-1.74-.12-3.47-.34-5.2-.53,1.48.16-.08,0-.39-.07l-1.2-.19c-.86-.14-1.72-.3-2.57-.47a90.4,90.4,0,0,1-10.08-2.61q-2.47-.81-4.92-1.75a20.91,20.91,0,0,1-2.26-.91l0,0-.3-.14-1.43-.64a97.15,97.15,0,0,1-18-10.73l-.32-.23c-.32-.24-.62-.49-.93-.73-.74-.59-1.48-1.2-2.21-1.81q-2.07-1.74-4-3.59a104.15,104.15,0,0,1-7.44-7.71c-1.2-1.38-2.36-2.81-3.51-4.24a.63.63,0,0,0-.1-.12,2.14,2.14,0,0,1-.13-.19l-.78-1c-.59-.8-1.17-1.6-1.73-2.41a109.43,109.43,0,0,1-6-9.53c-1.8-3.23-3.44-6.55-4.92-9.93a4,4,0,0,0-2.1-2c.34-.4.69-.79,1-1.2a60.09,60.09,0,0,0,8.68-13.4c2.75-6.2,4-12.69,2.65-19.42a5,5,0,0,0-6.15-3.49,5.12,5.12,0,0,0-3.49,6.15c.06.28.11.56.16.83.16.84.09.33,0,.06a6.61,6.61,0,0,1,.08,1.53c0,.62,0,1.24,0,1.87l-.06.82a1.36,1.36,0,0,0,0,.52,14.29,14.29,0,0,1-.74,2.88,30.68,30.68,0,0,1-1.16,3.34l-.48,1c-.25.51-.51,1-.78,1.54-.61,1.14-1.27,2.26-2,3.35s-1.26,1.91-1.93,2.83l-1,1.29,0,.07-.64.81a79.82,79.82,0,0,1-9.39,9.8c-.8.71-1.62,1.39-2.45,2.07l-1,.79c.13-.11-.8.61-1,.75q-2.73,2-5.63,3.8c-.61.37-1.23.71-1.84,1.07a58.67,58.67,0,0,0,.09-16.89,146,146,0,0,0-7.89-32.43,234.51,234.51,0,0,0-17.11-37.09,246,246,0,0,0-25.66-36.85,189.45,189.45,0,0,0-26.61-26.44,129.3,129.3,0,0,0-13.2-9.09,211.51,211.51,0,0,0-29.71-14.91,228.59,228.59,0,0,0-43.73-13.11,212.68,212.68,0,0,0-27.4-3.7c-8.57-.53-17.91.35-24.92,5.76-6.66,5.15-9.84,13.57-9.89,21.83,0,4.25.92,8.55,1.52,12.74q1.07,7.44,2.23,14.86,2.64,16.71,5.83,33.32l-40-20.51-49.34-25.32-22.83-11.72,4.75-3.92c2-1.67,1.86-5.36,0-7.07a5.14,5.14,0,0,0-7.07,0l-55.84,46.07-27.73,22.88c-4.26,3.52-8.52,7-12.81,10.52-2.17,1.75-4.34,3.49-6.53,5.21l-1.6,1.25-.48.37-.3.23q-1.7,1.31-3.41,2.59a198.05,198.05,0,0,1-31,19.48l-.15.1q-9.44,2.15-19,3.45l-.48.06-1.17.15-2.34.28c-1.72.19-3.43.37-5.15.52-3.36.31-6.72.54-10.09.71a308,308,0,0,1-40.3-.74q-10-.8-19.87-2.07l-2.61-.34-.13,0-.19,0-1.19-.17c-1.81-.25-3.63-.51-5.44-.78q-5-.74-9.95-1.56c-13.45-2.23-26.83-4.86-40.19-7.61-15-3.11-30-6.37-45.1-9.39a6.09,6.09,0,0,0-1.13-.1l-.33-.06c-23.57-2.72-48.41-1.42-70.22,8.64a76.69,76.69,0,0,0-27.81,21.54c-4.75,6-8.55,12.72-12.68,19.11-2,3-3.94,6-6,9Q36,328,34.42,330.05c-.16.2-.4.52-.44.56l-.56.7c-.66.82-1.33,1.63-2,2.43s-1.15,1.41-1.79,2a6.53,6.53,0,0,1-.64.54l-.62.45A20.6,20.6,0,0,1,24.18,339l-.33.12-1.07.41-2.09.75a6.28,6.28,0,0,0-1,.35s1.37-.11.4,0c-.51.06-1,.1-1.55.14-.91.07-1.82.11-2.74.12q-.78,0-1.56,0l-.79,0-.12,0,.16,0c-.46-.12-.93-.16-1.39-.28-.11,0-.42-.16-.71-.27.15.12.15.22-.28,0l-.16-.1a.42.42,0,0,0-.15,0l.11,0-.31-.17-.09-.1a.13.13,0,0,1,0,.06l0,0-.1,0a1.54,1.54,0,0,1-.1-.19l0-.07v0l-.06-.06v-.05h0l-.06-.13a.42.42,0,0,1,0-.1l.12.2a12.75,12.75,0,0,0,.49-1.21l1.23-3.05c1.39-3.5,2.77-7,4.15-10.5,2.79-7.13,5.54-14.28,8.31-21.42,2.7-7,5.4-13.94,8.16-20.88q2.07-5.19,4.18-10.37l2.13-5.15.9-2.15c0-.05.24-.58.33-.78l.61-1.45c5.86-13.77,12.14-27.37,19.21-40.57q1.31-2.44,2.65-4.88l1.13-2c.23-.4.46-.8.68-1.21l.33-.57.14-.14c1.22-.92,2.3-2.09,3.46-3.1.53-.47,1.08-.93,1.63-1.38l.75-.61.08-.07.44-.32A32.47,32.47,0,0,1,75,205.12c.32-.18.65-.35,1-.51l.32-.17a12.5,12.5,0,0,1,1.87-.64,10.53,10.53,0,0,1,1.76-.43,3.59,3.59,0,0,0,.45,0c.37,0,.73,0,1.1,0l.58,0,.72.13c.39.08.77.17,1.15.27.15.05,1.19.39,1.13.35,3.26,1.29,6.41,3,9.55,4.51s6.43,3.18,9.66,4.74a163.19,163.19,0,0,0,20.24,8.52,80.74,80.74,0,0,0,10.17,2.63,6,6,0,0,0,1.74.06,4.09,4.09,0,0,0,1.82.3,550.15,550.15,0,0,1,77.46.5q9.35.72,18.67,1.76,4.6.51,9.18,1.11l2.21.28h.06l1.25.17,4.36.62q17.1,2.5,34,6.06,17.28,3.63,34.31,8.35a5,5,0,1,0,2.65-9.64q-9.95-2.76-20-5.13c1-1.41,2-2.83,3-4.23,1.18-1.61,2.37-3.2,3.57-4.79l1.87-2.47.87-1.13.44-.57q7.28-9.4,15-18.48a6.05,6.05,0,0,0,1.13-2,4.1,4.1,0,0,0,1.54-1.1,563.07,563.07,0,0,1,52.89-53.35q7-6.17,14.17-12.08,3.66-3,7.39-6l3.4-2.68,1.7-1.33.67-.51.71-.56q14.91-11.43,30.56-21.84Q458.76,84.24,477,74a5,5,0,0,0,1.79-6.84A5.11,5.11,0,0,0,472,65.4a547,547,0,0,0-62.79,41,566.08,566.08,0,0,0-57.28,49.54q-15.15,15-29.12,31.14a5.93,5.93,0,0,0-1.15,2,4,4,0,0,0-1.53,1.1c-1.2,1.43-2.38,2.88-3.57,4.32a4.71,4.71,0,0,0-1-.09c-10.14.16-20.27-.24-30.37-1.07q-7.49-.62-14.92-1.52l-3.61-.45-1.53-.2-.27,0-1.2-.16c-2.49-.35-5-.71-7.45-1.1-20.18-3.1-40.16-7.32-60.12-11.59-11.17-2.38-22.35-4.78-33.56-7a5.81,5.81,0,0,0-2.08,0,87.83,87.83,0,0,0-30.23-2.68,85.22,85.22,0,0,0-42.68,15.88,92,92,0,0,0-11,9.43c-.35.08-.7.16-1,.26-6.72,1.9-12.14,6.7-17.18,11.31a18.17,18.17,0,0,0-3.51,4.86c-1,1.75-2,3.5-2.9,5.27q-2.74,5.09-5.34,10.25c-1.69,3.34-3.32,6.71-4.92,10.09a6.19,6.19,0,0,0-1-.18l-.9-.11-.54-.08c-.65-.11-1.3-.24-1.94-.39-.47-.12-.94-.24-1.4-.38a5.57,5.57,0,0,1-1.85-.64s1,.46.25.09l-.63-.31c-.36-.18-.7-.37-1-.58s-.57-.46-.86-.61l-.23-.2c-.24-.23-.47-.46-.69-.71l-.08-.09c-.26-.4-.53-.78-.76-1.21l-.07-.16-.06-.14a1.91,1.91,0,0,0-.15-.28l.1.15a13.61,13.61,0,0,1-.4-1.52c0-.19,0-.38,0-.57a17.61,17.61,0,0,1,0-1.78c0-.27.05-.54.07-.81.12-.67.24-1.33.4-2a41.58,41.58,0,0,1,1.28-4.25c.27-.76.55-1.5.85-2.25.14-.35.29-.7.43-1.06.09-.2.18-.41.26-.61,3.65-8.35,8.11-16.35,12.32-24.42,5.54-10.66,10.84-21.44,15.78-32.39q6.28-14,11.88-28.2a22.65,22.65,0,0,0,2.72-3.4,16.44,16.44,0,0,0,1-2.42l0,.07,0-.08a2,2,0,0,1,.16-.35c.08-.19.17-.38.26-.56a31.88,31.88,0,0,1,1.8-3.24c.33-.53.68-1,1-1.56l.44-.6c-.58.79.09-.1.23-.27a31.33,31.33,0,0,1,2.54-2.74c.45-.42.91-.83,1.39-1.23l.27-.22s.6-.43.72-.51a23.66,23.66,0,0,1,3-1.74l.37-.17L89,111q.92-.33,1.86-.57a6.12,6.12,0,0,1,1.53-.31h.23l.71,0c.6,0,1.19,0,1.79,0h.11c.35.06.7.12,1,.2a57.09,57.09,0,0,1,8.37,3.07c6,2.4,12,4.89,18,7.32,6.7,2.71,13.43,5.33,20.27,7.68a4,4,0,0,0,2.64-.08,550.45,550.45,0,0,1,76.84.53q9.34.72,18.68,1.76,4.59.53,9.18,1.11l2.21.29h.06l1.25.17c1.45.2,2.9.4,4.36.62q17.08,2.49,34,6,17.28,3.63,34.31,8.35a4.77,4.77,0,0,0,2.16.08,4.11,4.11,0,0,0,3.73-1.42,470.32,470.32,0,0,1,47.41-52.25q14.1-13.34,29.34-25.4l3.54-2.77.52-.4,1-.78,2.41-1.82q4-3,8.09-5.94,8.72-6.23,17.73-12A425.94,425.94,0,0,1,482.23,22l.3-.11a115.09,115.09,0,0,1,23.15-8.6c2.61-.67,5.25-1.25,7.9-1.73l2.32-.4,1.28-.19.93-.13c3.16-.41,6.35-.66,9.54-.76a92.73,92.73,0,0,1,9.28.21c1.42.11,2.84.26,4.26.43h.11l.11,0,.87.13c.88.14,1.75.28,2.62.45a92.63,92.63,0,0,1,16.7,4.81l1.82.73.39.17.62.27c1.47.65,2.93,1.32,4.38,2,2.6,1.27,5.16,2.63,7.67,4.06,5.37,3.05,10.55,6.42,15.63,9.94,11.13,7.71,21.77,16.11,32.58,24.26C637.21,67,650,76.13,663.32,84.35a326.5,326.5,0,0,0,49.2,24.78,360.64,360.64,0,0,0,56,16.93c17.26,3.85,34.7,6.83,52,10.69s34.5,8.77,50.78,15.95a242.61,242.61,0,0,1,53.66,33q5.19,4.15,10.18,8.55l.07.06a4.22,4.22,0,0,0,.49.45l0,0c.19.48.38,1,.55,1.44.4,1.1.76,2.22,1.08,3.34a60.61,60.61,0,0,1,1.34,6.23c0,.21,0,.43.08.64,0,.51.1,1,.14,1.53.08,1.1.13,2.2.14,3.3a56.22,56.22,0,0,1-.33,6.22s-.1.75-.14,1c-.08.51-.18,1-.28,1.51-.2,1-.45,2.08-.72,3.11a52.21,52.21,0,0,1-1.83,5.46l0,.1-.24.53c-.16.36-.33.72-.5,1.08-.46.95-.94,1.89-1.46,2.82a50.39,50.39,0,0,1-3.1,4.85c-.15.21-1.28,1.63-.53.72-.34.41-.67.83-1,1.23-.68.81-1.39,1.6-2.12,2.36a49.86,49.86,0,0,1-5,4.52c-2.06,1.63-1.83,5.39,0,7.07,2.19,2,4.88,1.74,7.08,0a52.11,52.11,0,0,0,11.11-12.13,5.25,5.25,0,0,0,3.08,1.15c2.08.09,4.13.32,6.19.56h.1l1.39.22c.92.14,1.84.3,2.75.48q3.27.61,6.48,1.44c2.46.63,4.91,1.36,7.32,2.18,1.26.43,2.51.89,3.76,1.37.66.25,1.33.52,2,.79l.09,0,1,.43a89,89,0,0,1,16.48,9.48l1,.71.41.31c.7.53-.09-.09-.2-.16a18,18,0,0,1,2.16,1.75q2,1.65,3.84,3.43a80.68,80.68,0,0,1,7.56,8.23c.26.32.94,1.09.3.36.3.34.55.73.82,1.1.62.82,1.21,1.66,1.8,2.51,1.06,1.56,2.08,3.16,3,4.78a91.53,91.53,0,0,1,5.12,10.07v0c.08.18.16.37.23.56.17.41.34.83.5,1.26q.53,1.35,1,2.73,1,2.76,1.76,5.58a92.45,92.45,0,0,1,2.44,11.54v.06c0,.08,0,.19.05.37,0,.46.11.92.15,1.38.11,1.05.21,2.1.28,3.16.13,2,.2,4,.19,6S1022.86,329.41,1022.71,331.34ZM90.87,193.13l.22-.18.82-.61c.66-.48,1.33-1,2-1.42q1.9-1.32,3.88-2.53a83.17,83.17,0,0,1,9.16-4.81l1-.43,1-.38c.92-.37,1.84-.72,2.77-1.05q2.85-1,5.77-1.8c1.92-.53,3.87-1,5.82-1.36.88-.16,1.75-.32,2.62-.46l1.3-.19h0l.71-.09a83.78,83.78,0,0,1,19.32,0l1.1.14h0l.17,0,2,.32c1.27.22,2.53.46,3.79.73s2.33.54,3.48.84a4,4,0,0,0,2,1.08c20.07,4,40,8.53,60.1,12.56,20.3,4.07,40.74,7.62,61.37,9.53,9,.84,18.1,1.34,27.18,1.42q-8.58,10.85-16.62,22.09-16.74-3.64-33.68-6.26a559.38,559.38,0,0,0-77.11-6.5q-21.44-.3-42.84,1.08c-.2,0-.4,0-.6.08l-.3-.08a82.43,82.43,0,0,1-10.59-2.77c-1.66-.55-3.3-1.15-4.93-1.78l-2.44-1-.78-.33-1.26-.55c-6.81-3-13.42-6.43-20.12-9.67-2.72-1.31-5.53-2.86-8.42-3.94C89.49,194.26,90.17,193.69,90.87,193.13Zm-.11.08Zm174.46-2h0Zm-19.3,37.33ZM82.59,203.43l-.52-.07A1.23,1.23,0,0,1,82.59,203.43Z"/></g></g></svg>