<svg xmlns="http://www.w3.org/2000/svg" xmlns:xlink="http://www.w3.org/1999/xlink" version="1.1" x="0px" y="0px" viewBox="0 0 100 125" enable-background="new 0 0 100 100" xml:space="preserve"><path fill="#000000" d="M84.686,46.687c0-4.111-3.347-7.457-7.461-7.457c-0.63,0-1.238,0.087-1.822,0.235  c-1.367-2.375-2.797-4.711-4.215-7.023c-0.001-0.001-0.002-0.003-0.003-0.005c-0.002-0.004-0.005-0.007-0.007-0.011  c-0.037-0.061-0.084-0.11-0.126-0.166c-0.036-0.048-0.066-0.099-0.108-0.145c-0.003-0.003-0.005-0.005-0.008-0.008  c-0.002-0.002-0.004-0.004-0.006-0.007c-2.438-2.644-5.2-5.637-8.685-7.514c-5.057-2.717-11.978-3.218-18.509-1.342  c-4.058,1.158-7.95,3.26-11.901,6.427c-6.538,5.244-11.312,11.807-13.443,18.476c-2.763,8.579-1.396,17.945-0.076,27.003  c0.146,0.996,1,1.713,1.977,1.713c0.097,0,0.193-0.008,0.292-0.021c1.093-0.16,1.85-1.176,1.69-2.268  c-1.256-8.607-2.554-17.506-0.074-25.205c1.896-5.933,6.206-11.82,12.137-16.577c3.527-2.827,6.962-4.692,10.5-5.702  c5.555-1.595,11.355-1.214,15.514,1.019c2.845,1.533,5.225,4.085,7.52,6.575c1.368,2.231,2.747,4.486,4.061,6.769  c-1.327,1.348-2.149,3.196-2.149,5.233c0,4.109,3.339,7.453,7.443,7.453c0.231,0,0.46-0.015,0.687-0.034  c0.429,1.261,0.808,2.531,1.111,3.816c1.334,5.646,1.427,11.719,1.517,17.59c0.017,1.094,0.909,1.97,1.999,1.97  c0.011,0,0.021,0,0.031,0c1.104-0.017,1.986-0.927,1.97-2.03c-0.094-6.086-0.189-12.379-1.624-18.449  c-0.347-1.467-0.777-2.906-1.265-4.329C83.487,51.314,84.686,49.141,84.686,46.687z M73.781,46.687c0-0.483,0.101-0.942,0.28-1.361  c0.808,1.543,1.566,3.102,2.254,4.676C74.859,49.599,73.781,48.273,73.781,46.687z M77.496,43.258  c1.779,0.141,3.189,1.616,3.189,3.429c0,0.72-0.224,1.388-0.603,1.942C79.298,46.81,78.426,45.021,77.496,43.258z"/><text x="0" y="115" fill="#000000" font-size="5px" font-weight="bold" font-family="'Helvetica Neue', Helvetica, Arial-Unicode, Arial, Sans-serif">Created by Lluisa Iborra</text><text x="0" y="120" fill="#000000" font-size="5px" font-weight="bold" font-family="'Helvetica Neue', Helvetica, Arial-Unicode, Arial, Sans-serif">from the Noun Project</text></svg>