<?xml version="1.0" encoding="UTF-8"?>
<svg width="26px" height="27px" viewBox="0 0 26 27" version="1.1" xmlns="http://www.w3.org/2000/svg" xmlns:xlink="http://www.w3.org/1999/xlink">
    <title>NewGuru</title>
    <g id="Page-1" stroke="none" stroke-width="1" fill="none" fill-rule="evenodd">
        <g id="NewGuru" transform="translate(1.0001, 0)" fill="#E35B23" fill-rule="nonzero">
            <ellipse id="Oval" cx="11.9999213" cy="3.34848485" rx="3.3442623" ry="3.34848485"></ellipse>
            <path d="M0,7.87878788 C1.00171538,7.89299922 2.06523862,8.22523448 3.45447412,8.94069023 C4.52648432,9.49277508 5.72218549,13.3419584 7.3836877,14.5522615 C9.0451899,15.7625646 12.1967213,14.1133223 12.1967213,16.9393939 C12.1967213,17.6194242 10.3955972,17.823151 8.59748107,17.4581201 C6.92061493,17.1177038 5.28627672,16.2646026 4.04835355,15.3254039 L4.04835355,17.6917897 C6.72243678,18.472649 8.42213498,19.1852295 9.14744815,19.8295312 C10.2354179,20.7959837 10.2255361,21.912079 9.67009557,22.6856298 C9.29980186,23.2013303 8.31186508,23.3825501 6.70628524,23.2292892 C7.38721029,24.4053142 7.38721029,24.5504457 6.70628524,25.2199743 C5.68489767,26.2242671 1.06471229,26.2951464 0.0530245011,25.2199743" id="Path-Copy-3" stroke="#E35B23" transform="translate(6.0984, 16.9394) scale(-1, 1) translate(-6.0984, -16.9394)"></path>
            <path d="M11.8032,7.87878788 C12.8049154,7.89299922 13.8684386,8.22523448 15.2576741,8.94069023 C16.3296843,9.49277508 17.5253855,13.3419584 19.1868877,14.5522615 C20.8483899,15.7625646 23.9999213,14.1133223 23.9999213,16.9393939 C23.9999213,17.6194242 22.1987972,17.823151 20.4006811,17.4581201 C18.7238149,17.1177038 17.0894767,16.2646026 15.8515535,15.3254039 L15.8515535,17.6917897 C18.5256368,18.472649 20.225335,19.1852295 20.9506481,19.8295312 C22.0386179,20.7959837 22.0287361,21.912079 21.4732956,22.6856298 C21.1030018,23.2013303 20.1150651,23.3825501 18.5094852,23.2292892 C19.1904103,24.4053142 19.1904103,24.5504457 18.5094852,25.2199743 C17.4880977,26.2242671 12.8679123,26.2951464 11.8562245,25.2199743" id="Path-Copy-4" stroke="#E35B23"></path>
        </g>
    </g>
</svg>