<svg xmlns="http://www.w3.org/2000/svg" viewBox="0 0 413.64 622.6"><defs><style>.cls-1{fill:#010101;}</style></defs><g id="Livello_2" data-name="Livello 2"><g id="Livello_1-2" data-name="Livello 1"><path class="cls-1" d="M188.06,335.7l0,0,.15.2Z"/><path class="cls-1" d="M336,603.68l.1,0,.06,0Z"/><path class="cls-1" d="M408.43,580.4a24.52,24.52,0,0,0-5.92-3.54c-1.2-.52-2.41-1-3.62-1.51-.23-.1-1.64-.73-.95-.39s-.23-.1-.32-.15l-.91-.41c-2.85-1.36-5.87-2.39-8.82-3.5-2.79-1-5.6-2.07-8.41-3.06-5.63-2-11.31-3.78-17.07-5.35a163.7,163.7,0,0,0-26.27-5c-3.07-15.05-6.31-30.07-9.24-45.16-1.57-8.07-3-16.16-4.35-24.27q-1-6-1.8-12.09c0-.27-.19-1.41-.08-.57-.07-.56-.15-1.11-.22-1.67l-.39-3.09q-.37-3.11-.71-6.21-1.34-12.45-1.8-25A66.6,66.6,0,0,0,338,432a63.92,63.92,0,0,0,25.9-27.93c10.41-22,9-49.22-4.06-69.82-9-14.11-22.89-24.85-38.46-30.78q-13.95-22.78-28.13-45.42-16.65-26.58-33.67-52.93-16.34-25.32-32.87-50.5Q213.91,135,201,115.45,184.53,90.31,168,65.19l-4.62-7a6.48,6.48,0,0,0-.56-.71l-.22-.31C147.88,38.35,128.7,23.54,107.36,13A142.19,142.19,0,0,0,75.42,1.53C64.36-.95,53.72-.6,43.21,3.93,22.44,12.89,9.85,33.79,4.63,55c-5.88,23.87-5.49,49-2.54,73.29a373.45,373.45,0,0,0,18,76.55c8.25,24,18,47.38,26.63,71.23q6.57,18.19,12.63,36.59c.9,2.73,1.16,5.59,2,8.36.88,3.09,2.2,6.05,3.12,9.15q2.7,9.1,4.73,18.4c5.48,25,8.12,51.14,8.77,76.74s-3.51,51.12-8.14,76.3c-2.38,12.95-4.87,25.88-6.93,38.89-1,6.45-1.82,12.93-2.86,19.38s-2.09,12.82-2.51,19.28a66.35,66.35,0,0,0,1.27,18.6,5.06,5.06,0,0,0,4.82,3.67c41.2,0,82.51-3.29,122.67-12.85,5.58-1.32,11.16-2.7,16.66-4.33,2.57-.77,5.14-1.52,7.75-2.18a30.36,30.36,0,0,0,6.17-2.33q6.79,17.35,14.26,34.44,1.29,2.94,2.59,5.86a4.67,4.67,0,0,0,4.13,2.45l.19,0c29.14.72,58.13-2.91,86.93-6.91,3.48-.49,7-.91,10.43-1.47a16.74,16.74,0,0,0,8.27-3.52,9.68,9.68,0,0,0,3.16-9c11.14,0,22.28.19,33.42-.22,6.24-.23,12.48-.67,18.68-1.45a28.69,28.69,0,0,0,5.79-1c-.33.12-.67.25-.26.15l.39-.14,1.3-.37a11.29,11.29,0,0,0,5.62-3C415.83,590.79,412.69,583.85,408.43,580.4Zm-3.38,8c-.11,0-.22.07-.33.1l0,0Zm-.35.08-.07,0-.43.15S404.34,588.53,404.7,588.44Zm-6.95-2.84a6.06,6.06,0,0,0-.58-.23A1.82,1.82,0,0,1,397.75,585.6ZM200.67,574.46c-4.72,1.43-9.52,2.63-14.3,3.8q-14.82,3.63-29.87,6.18a493.67,493.67,0,0,1-58.56,6.18c-10,.49-20.11.72-30.17.78-1.45-10.85.82-21.87,2.47-32.6,1.94-12.67,3.81-25.32,6.12-37.93,4.56-24.82,9.57-49.67,11.14-74.9,1.56-24.94-.88-50.37-4.29-75.07A304.1,304.1,0,0,0,75.91,334q-1.17-4.35-2.49-8.66c-.9-2.94-2.23-5.73-2.9-8.74a159.16,159.16,0,0,0-5-16.77C57.57,276.29,48.75,253.16,39.91,230c-9-23.55-17.57-47.38-22.78-72.09C11.88,133,9,107.58,10.47,82.13,11.69,61.57,17,39.45,31.59,24.2,38.47,17,47.35,11.57,57.3,10.12c10.38-1.52,21.43,2.12,31.11,5.56A150.08,150.08,0,0,1,145,52.13c3.47,3.6,6.73,7.38,9.83,11.3q17,25.75,34,51.54,13.33,20.29,26.64,40.63Q231.26,179.78,247,204q16.86,26,33.39,52.29Q295.89,281,311.1,305.81c.44.72.88,1.44,1.33,2.16l-.15.23-.25.34c-.15.18-.4.5-.46.56l-.62.69c-.52.54-1.07,1-1.63,1.54a5.37,5.37,0,0,1-.87.72l.41-.33-.61.44c-.57.4-1.16.77-1.76,1.12s-1.21.69-1.83,1l-1,.48-.06,0-.15,0a40.11,40.11,0,0,1-4.53,1.39c-.9.22-1.81.4-2.72.55l-1.06.17-.82.09a90.68,90.68,0,0,1-10.68.35,5,5,0,0,0,0,10c7.77.12,15.89-.21,23.17-3.19a31,31,0,0,0,13.74-10.35,80.86,80.86,0,0,1,7.49,3.79c1.67,1,3.31,2,4.9,3.07.8.53,1.58,1.08,2.35,1.65.44.32.86.66,1.3,1-1.35-1,.17.14.51.42a70.85,70.85,0,0,1,10.07,9.9,6.48,6.48,0,0,1,1.22,1.51l-.39-.5.4.53.59.79c.79,1.09,1.55,2.2,2.27,3.34a66,66,0,0,1,3.9,7.09c.31.66.66,1.32.9,2h0c0,.08.05.14.07.18l.41,1.05c.51,1.33,1,2.68,1.4,4.05a69.61,69.61,0,0,1,1.9,7.69c.13.68.25,1.37.35,2.06,0,.23.13.54.15.81a1.48,1.48,0,0,0,0,.21h0v.06q.26,2.1.39,4.2a69.25,69.25,0,0,1,0,8.15c-.07,1.43-.19,2.85-.36,4.27,0,.22-.05.45-.08.68,0,0,0,.07,0,.12-.13.82-.26,1.65-.41,2.47a67.53,67.53,0,0,1-2,8c-.43,1.32-.89,2.63-1.4,3.93l-.34.84,0,0,0,.11c-.35.78-.7,1.55-1.07,2.32a60.3,60.3,0,0,1-4.26,7.35c-.42.62-.85,1.24-1.29,1.84l-.59.79-.12.14c-1,1.25-2,2.45-3.13,3.61a53.67,53.67,0,0,1-6.53,6l-.41.3-.93.67c-.57.4-1.14.79-1.72,1.17-1.29.84-2.62,1.63-4,2.37q-1.74.94-3.54,1.77l-1,.43-.06,0h0c-.65.26-1.29.52-1.94.76a63.12,63.12,0,0,1-7.71,2.29c-1.15.26-2.31.5-3.48.7-.62.11-1.24.21-1.87.3-.2,0-.41.05-.61.09,1.57-.33.16,0-.21,0a77.5,77.5,0,0,1-13.28.37q-2.85-.17-5.68-.51h-.05l-1.1-.16c-.74-.12-1.47-.24-2.2-.38-1.85-.34-3.69-.74-5.5-1.24-2.07-.58-4.11-1.28-6.12-2.06-.35-.14-2.07-.73-.7-.27a18.17,18.17,0,0,1-1.86-.83c-1.24-.57-2.46-1.17-3.65-1.82a67.68,67.68,0,0,1-6.95-4.26c-.47-.32-.93-.65-1.39-1l-.82-.61-.08-.06h0a23.72,23.72,0,0,1-3.15-2.61,76.78,76.78,0,0,1-5.77-5.64c-.89-1-1.77-2-2.61-3-.37-.44-.74-.89-1.09-1.34l-.08-.1a12.67,12.67,0,0,1-.83-1.1,82,82,0,0,1-8.42-14.28c-.3-.65-.59-1.31-.87-2a2.68,2.68,0,0,1-.14-.32c-.07-.16-.13-.32-.19-.48-.54-1.35-1-2.7-1.51-4.08a87.91,87.91,0,0,1-2.43-8.46c-.65-2.79-1.16-5.62-1.54-8.46a3.11,3.11,0,0,0-.2-.74,4.64,4.64,0,0,0,1-2.95,5.11,5.11,0,0,0-5-5c-2.33-.07-4.65-.23-7-.51l-.44,0-.34-.06c-.56-.08-1.13-.17-1.69-.27-1.19-.21-2.37-.46-3.55-.74a56.58,56.58,0,0,1-6.73-2c-.52-.19-1-.4-1.53-.6h0c-.26-.13-.52-.23-.78-.35-1.09-.51-2.16-1.05-3.2-1.64s-1.95-1.14-2.89-1.76c-.46-.31-.91-.63-1.36-1l-.42-.31-.38-.3a54.53,54.53,0,0,1-5-4.68c-1.55-1.62-3-3.32-4.43-5.06l-1.05-1.31-.33-.42-.15-.2,0,0,0,0h0l-2.14-2.85c-12.51-16.88-24.22-34.3-36-51.7-11.66-17.25-24.11-34-34.6-52.06a533.32,533.32,0,0,1-27.54-55.31l-1.5-3.46-.74-1.74-.37-.87-.31-.73c-.07-.17-.17-.41-.2-.47l-.36-.87-.73-1.74-1.53-3.72q-2.94-7.21-5.72-14.49-5.53-14.55-10.45-29.32-1.18-3.57-2.33-7.16c-.8-2.48-3.51-4.34-6.15-3.49s-4.35,3.49-3.5,6.15q9.76,30.38,22.18,59.8a619.59,619.59,0,0,0,27.35,56.7c3.53,6.44,7.37,12.69,11.35,18.84a6.52,6.52,0,0,0,.57,3c.45,1,.89,2,1.32,3.07,0,.07.09.21.14.31l.18.45.74,1.77c.89,2.15,1.75,4.31,2.6,6.48q2.69,6.92,5.09,13.93,5.22,15.21,9,30.85A348.5,348.5,0,0,1,141,341.38l.15,1.09,0,.23v.08c.09.63.17,1.26.25,1.9.21,1.61.4,3.24.58,4.86q.48,4.27.86,8.55c.49,5.58.85,11.18,1.07,16.77q.66,16.26-.18,32.53-.39,7.73-1.11,15.42c-.23,2.46-.48,4.91-.76,7.37-.14,1.21-.28,2.42-.43,3.63-.07.52-.13,1.05-.2,1.57l-.12.9-.08.62a385,385,0,0,1-10.78,52A401.71,401.71,0,0,1,117,528.45c-.52,1.3-1,2.61-1.57,3.91a3.53,3.53,0,0,0-.25,1.33q-5.55,1.44-11.07,3a5,5,0,0,0,2.66,9.64,306.62,306.62,0,0,1,36.77-8.51c1.42-.23,2.85-.45,4.28-.66l1-.14.85-.12,2.11-.27q4.64-.57,9.3-.95c6.12-.49,12.26-.73,18.41-.67a181.41,181.41,0,0,1,21.08,1.41,4,4,0,0,0,.6,0q4.24,12.69,8.85,25.26c1.06,2.87,2.15,5.74,3.24,8.61C209.31,572.44,204.9,573.18,200.67,574.46Zm66.42,3.32a713,713,0,0,1-21.46-77.43q-4.95-22.77-8.37-45.84c-.28-1.86-.55-3.71-.81-5.57-.13-.92-.26-1.84-.38-2.76l-.15-1.06c0-.21-.1-.76-.11-.82q-.72-5.54-1.37-11.08-1.23-10.58-2.14-21.2c-.55-6.4-1-12.8-1.37-19.21a84.16,84.16,0,0,0,27.36,34.1q4.43,30.4,10.77,60.48,6.46,30.55,14.92,60.66,4.59,16.35,9.77,32.54A157.23,157.23,0,0,0,267.09,577.78ZM162.24,367.67q2.44,18.51,5.63,36.91a6.8,6.8,0,0,0-.32,1.45q-.51,5.43-1.19,10.83c-.11.89-.22,1.79-.34,2.68q0,.15,0,.24l0,.22c-.06.46-.12.91-.19,1.36q-.39,2.75-.81,5.49-1.83,11.72-4.38,23.29a375.25,375.25,0,0,1-11.94,42.11q-3.52,10.17-7.64,20.12c-1.3,3.16,1.93,6.23,4.82,6.33l19.36.7,24.38.87,6.39.23c.59,1.89,1.18,3.77,1.79,5.66-23.74-2.59-47.76-.29-71,4.78q6.66-16.87,11.81-34.31a385.79,385.79,0,0,0,11.41-51.28,371.69,371.69,0,0,0,4.29-63.05,358.65,358.65,0,0,0-8.33-70.25q-3.54-16.07-8.59-31.75l.59.85c6.17,9.08,12.29,18.19,18.5,27.24Q158.33,338.12,162.24,367.67Zm11.44,67.42,0,.16q7.09,33.87,16.76,67.14c.77,2.67,1.56,5.33,2.36,8L181.11,510l-27.57-1-.46,0A376.25,376.25,0,0,0,173.68,435.09ZM336,603.73l.07-.05-.09,0-.64.2a18.59,18.59,0,0,1-2,.46c-3.17.6-6.41.93-9.61,1.38l-4.9.68-2.45.33-1,.14-1,.13-.2,0-.92.12-1.23.16-2.45.33-5.15.65c-6.87.86-13.75,1.65-20.64,2.31a390.78,390.78,0,0,1-42.59,1.93c-1.38-3.14-2.77-6.27-4.12-9.42-.42-1-.84-1.95-1.25-2.93l-.63-1.48-.21-.49c-.07-.17-.17-.39-.18-.43q-1.31-3.12-2.6-6.24-5.38-13.1-10.37-26.37-10.77-28.65-19.57-58-9.75-32.49-17-65.65t-12.1-67l-.54-3.84c-.09-.69-.19-1.37-.28-2,0,0,0-.1,0-.18l-.18-1.36q-.53-3.9-1-7.83c-.63-5.1-1.21-10.22-1.75-15.33-.69-6.49-1.29-13-1.84-19.48q3.53,5,7.1,9.88c5.88,8,11.76,16,19.81,22,7.56,5.63,16.75,8.49,26,9.81a4.6,4.6,0,0,0-.56,2.31,725.57,725.57,0,0,0,6.83,82.63,710.69,710.69,0,0,0,18.48,89.49q5.21,18.89,11.45,37.47c-1.1.09-2.19.19-3.29.31-2.59.28-5.13,2.09-5,5,.11,2.46,2.21,5.3,5,5q5-.54,9.92-.63h.46q4.88-.07,9.75.23c3.27.21,6.54.55,9.79,1h.08l.26,0,1.19.18c.72.1,1.43.21,2.14.33q2.63.42,5.23.92c13.2,2.5,26.12,6.28,39,10.11.63.18,1.25.36,1.86.57l.8.29a1.17,1.17,0,0,0,.35.09,12.5,12.5,0,0,1,1.09.65c.25.14.49.28.72.44a3.28,3.28,0,0,1,.31.2l.34.32.15.15-.6.35c.22-.08.43-.13-.06,0Zm64.84-14-.6.26c.72-.36.74-.46.06-.29-.09,0-.91.12-.95.13l-.68.09-1,.12-2,.22c-1.55.17-3.11.32-4.67.44-2.94.25-5.89.43-8.85.56-13.15.58-26.33.19-39.49.32a5.21,5.21,0,0,0-3.37,1.35,44.92,44.92,0,0,0-7.32-2.62q-5.12-1.51-10.25-3c-6.08-1.72-12.19-3.35-18.35-4.76a4.47,4.47,0,0,0,.36-3.54q-9.54-29.79-17.16-60.16t-13.17-61q-2.21-12.15-4.09-24.36a77.86,77.86,0,0,0,36.34,7.27l1.93-.09a417,417,0,0,0,4.71,46.24c2.53,16.42,5.8,32.71,9.17,49q2.17,10.49,4.34,21c-1.32,0-2.65,0-4,0a5,5,0,0,0,0,10,120.85,120.85,0,0,1,16.79.95l.64.08.34,0,2.08.31c1.46.23,2.92.48,4.37.75,2.76.52,5.5,1.12,8.23,1.78a266.67,266.67,0,0,1,31.81,10.14l3.95,1.51,1.4.54,1.11.52c1.21.54,2.43,1,3.66,1.54l1.22.5.31.12.3.15A25.15,25.15,0,0,1,400.6,587c.3.18.59.38.88.56s.48.37.57.46c.28.26.53.54.79.81a1.3,1.3,0,0,0,.1.15l-.79.23C401.69,589.4,401.26,589.59,400.81,589.77Zm2.87.55a.5.5,0,0,1,0,.12C403.68,590.66,403.61,590.71,403.68,590.32Zm.05.26c.06.44,0,.74,0,0Z"/></g></g></svg>