<svg xmlns="http://www.w3.org/2000/svg" viewBox="0 0 918.11 697.01"><g id="Livello_2" data-name="Livello 2"><g id="Livello_1-2" data-name="Livello 1"><path d="M871.43,177Z"/><path d="M917.72,617.7c-.94-4.15-3.33-8.05-5.84-11.43a86.26,86.26,0,0,0-11.48-12.53,110.5,110.5,0,0,0-33.07-20.94,90.31,90.31,0,0,0-30-6.19c-3.69-44-4-88.41.26-132.43a579.52,579.52,0,0,1,18.07-98.54c6-21.86,13.83-43.18,19.49-65.17A358.93,358.93,0,0,0,884,225.33c1.71-13.8,2.43-28-.31-41.76a49.51,49.51,0,0,0-6.14-16.42c-4.25-6.83-10.93-12-17.78-16a70,70,0,0,0-15.64-7,62.94,62.94,0,0,0-23.07-2.1,58.63,58.63,0,0,0,3.45-4.78,69.39,69.39,0,0,0,8.23-18.64c4-14.18,4.12-29.31,1.43-43.73a97.14,97.14,0,0,0-17.89-41A86,86,0,0,0,798,16,83.81,83.81,0,0,0,773.78,4.24,101.29,101.29,0,0,0,740.58.07a98.25,98.25,0,0,0-25,4.5,107.76,107.76,0,0,0-39,21.14c-13.71,11.77-23.9,27.34-27.53,45.17s-1.16,36.89,7.92,52.91a78,78,0,0,0,27.44,28.06c-20.87,1.66-41.82,6.64-58.81,18.63A72.57,72.57,0,0,0,610.37,185a3.92,3.92,0,0,0-1.3,1.52c-.09.2-.19.4-.29.6a69.88,69.88,0,0,0-10.5,21.68q-15.33,31-32.07,61.33C559.36,282.54,552.4,294.87,545,307c-3,4.86-6,9.69-9.25,14.36a82,82,0,0,1-6.74,8.71,54.63,54.63,0,0,1-6.33,6.12l-1.19.89c-.52.37-1,.72-1.6,1.07-1.16.75-2.36,1.44-3.59,2.09-9.65,5.14-20,6.71-30.71,7-13.3.36-26.44.31-39.62,2.48a162.27,162.27,0,0,0-44.21,14.21,193.1,193.1,0,0,0-23.91,14,5.17,5.17,0,0,0-3-.16q-14.16,3.47-28.59,5.68c-4.94.76-8.75,1.26-13.85,1.82q-7.16.78-14.35,1.3a451.16,451.16,0,0,1-57.79.2c-9.6-.54-19.19-1.35-28.75-2.36q-7.2-.75-14.36-1.66c-4.93-.62-8.78-1.14-13.86-1.88-19.21-2.78-38.32-6.17-57.38-9.8-18.85-3.59-37.65-7.41-56.48-11.09l-6.61-1.29-.1-.07c-4.28-2.33-8.76-4.69-13.55-5.71a26.13,26.13,0,0,0-16.45,2,35.53,35.53,0,0,0-17.81,17.87,6.51,6.51,0,0,0-.36,1,36.85,36.85,0,0,0-9.27,3.61C17.6,381.7,12,388.87,8.3,396.8a78.65,78.65,0,0,0-4.59,12.14,69.18,69.18,0,0,0-2.17,16.64c-.19,9,.16,17.95,0,26.92Q1.29,470.86,0,489.19a3.49,3.49,0,0,0,0,.56,25.24,25.24,0,0,0,3.25,12.81c2.93,4.91,7.59,7.73,12.94,9.36a256.45,256.45,0,0,0,32.66,7.21c5.87,1,11.75,2,17.65,2.74,5.51.69,11.52.83,16.76-1.3,2.87-1.16,5.53-3,6.86-5.87a11,11,0,0,0-.37-9.76,16.26,16.26,0,0,0-4.78-5.6,11.5,11.5,0,0,0,3.18-2.91c2.26-3.05,1.73-7.09.79-10.52a10.1,10.1,0,0,0-3-5.09,27.92,27.92,0,0,0-4.23-2.8,28.94,28.94,0,0,0-4.92-2.28q1.56-6.64,3.13-13.29c.72-3.06,1.45-6.12,2.16-9.18.38-1.58.74-3.19,1-4.8q14,4.88,28.06,9.39,26.47,8.47,53.34,15.63t54.29,13q27.31,5.85,54.88,10.33,28,4.56,56.13,7.72l6.09.67.22,0a754.81,754.81,0,0,0,94.51,2.9,765.55,765.55,0,0,0,95-9q23.8-3.77,47.33-9-3.36,29-6.5,58.06c-2.15,20-4.64,40-6.06,60-1.16,16.26-.8,34.45,8.61,48.49,10.28,15.35,28.08,20.48,45.23,24.07q32,6.71,64,13.3c8.24,1.71,17.86,4.71,26.13,1.57,8-3,11.11-10.16,9.06-18.23-1.51-6-4.83-11.45-8.17-16.55a59.68,59.68,0,0,0-13.1-14.31c-17.33-13.63-39.61-19.74-61.51-22.89a681.65,681.65,0,0,1,3.53-76.13c2.26-22.83,5.48-45.55,9.19-68.18,10.29-1.93,19.91-6.51,29.2-11.21q14.21-7.18,28-15.14a586.38,586.38,0,0,0,53.54-34.85q9.49-6.93,18.69-14.25a6.63,6.63,0,0,0,1.47-.89l.44-.38Q773,420,772.39,437.36q-.54,15.66-.16,31.32c.37,15.54,1.2,31.09,2.63,46.57,1.06,11.45,2.39,22.85,2.88,34.35q.43,10.41.3,20.82-.09,6.26-.36,12.49c-.21,4.6-.89,9.31-.45,13.88.21,2.23.43,4.44.64,6.67a5.23,5.23,0,0,0,3.67,4.82c23.59,7.2,47.34,14.08,71.42,19.48,13.46,3,27.26,5.88,41.08,6.4a55,55,0,0,0,12-.72,17.83,17.83,0,0,0,7.26-2.85C917.52,627.52,918.87,622.82,917.72,617.7ZM662.43,112.31l-.07-.16C662,111.27,662.39,112.18,662.43,112.31Zm20.87,26.8a1.23,1.23,0,0,0,.27.19A.7.7,0,0,1,683.3,139.11ZM50.89,367.73A11,11,0,0,1,52,366.8l.28-.2a30.59,30.59,0,0,1,4.79-2.8l.38-.19.17-.06c.51-.19,1-.38,1.54-.55s1-.31,1.57-.44l.91-.2.37-.06h.15c.29,0,.59,0,.88-.05.52,0,1,0,1.55,0,.16,0,.89.1,1,.1.38.07.75.13,1.11.21a27.48,27.48,0,0,1,3,.86c.5.17,1,.36,1.47.54l.23.09.44.2c2,.9,3.92,1.93,5.83,3l.06,0a4,4,0,0,0,1.91,1c19,3.66,37.94,7.52,56.93,11.19,19.23,3.71,38.51,7.24,57.88,10.17s39.09,5.35,58.76,6.73a469.63,469.63,0,0,0,58.36.64,376.55,376.55,0,0,0,40.33-4.36l-.94.35a138.47,138.47,0,0,1-14.63,4.31c-6,1.43-12,2.52-18.07,3.37l-.79.11h-.07l-.2,0-2.45.31q-2.73.33-5.48.6-5.61.56-11.23.9a463.15,463.15,0,0,1-54.25-.18c-54.87-3-109.37-12.24-163.19-23Q67.81,376.77,55,374a44.64,44.64,0,0,0-8.67-1.31l.65-.93.07-.1.09-.1c.58-.68,1.16-1.37,1.78-2S50.22,368.31,50.89,367.73ZM40.07,382.82ZM10.15,492.48c0-.07,0-.13,0-.19C10.17,492.61,10.21,493.18,10.15,492.48Zm69.62-1.26v0l0,0Zm.12-.49,0-.33S79.91,490.57,79.89,490.73Zm-6.45-45.22c0,.18,0,.36,0,.54s-.09.55-.11.67c-.26,1.47-.61,2.92-1,4.38l-2.16,9.17q-2.17,9.18-4.33,18.35a5.08,5.08,0,0,0,3.49,6.15,5.55,5.55,0,0,0,2.07.05q.42,0,.84,0a11.19,11.19,0,0,1,1.27.31c.31.1.62.22.92.33h0c1.16.57,2.29,1.19,3.41,1.86l.78.48c.11.07.35.26.56.41v0c.09.29.16.58.23.88.11.46.21.93.3,1.4,0,.11,0,.22,0,.33l-.23.14c-.15.09-.31.16-.47.25a35.84,35.84,0,0,1-5.65,1.56,14.86,14.86,0,0,1-2.11,0,7.4,7.4,0,0,0-1.23-.08c-1.5-.35-3-.63-4.55-.85,0-.18-.06-.36-.08-.55s-.06-.37-.08-.55h0c-.11-.92-.22-1.83-.3-2.74-.17-1.84-.27-3.68-.32-5.52a86.44,86.44,0,0,1,.46-11c.05-.49.11-1,.17-1.47,0-.1,0-.2,0-.3v-.05c.14-.91.27-1.81.43-2.71q.48-2.7,1.13-5.35a81.05,81.05,0,0,1,3.34-10.46c.11-.27.42-1,.34-.82.14-.33.29-.66.44-1,.41-.92.85-1.83,1.3-2.74.28-.55.58-1.09.87-1.64l.18.07C73.45,445.21,73.45,445.36,73.44,445.51Zm455.2,43.08q-5.71.95-11.44,1.81l-5.74.83-2.86.4-1.44.2-.69.09-.37.05q-11.49,1.51-23,2.7a756.56,756.56,0,0,1-94,3.7q-26.29-.6-52.5-3.05h0c-18.79-2-35.76-4.23-54.29-7.15q-27.45-4.31-54.67-10t-54.11-12.66q-26.91-7-53.43-15.32t-52.6-17.93l-6.39-2.38c-2.45-.92-5.59,1-6.15,3.49a5.13,5.13,0,0,0,3.49,6.15c1.8.68,3.6,1.33,5.4,2a86.86,86.86,0,0,0-8.38,49.64c-4.26-.06-8.53.13-12.7.35-2.61.13-5.13,2.2-5,5,.11,2.59,2.2,5.14,5,5,4.5-.23,9-.43,13.53-.32,2.32.06,4.63.2,6.93.47l.48.06h.06c.54.09,1.09.17,1.63.27,1.16.21,2.3.46,3.43.75s2,.54,3,.87c.52.18,1,.36,1.54.56l.47.18.42.19c.93.43,1.85.91,2.75,1.42.47.27.93.55,1.38.85.12.07.31.18.47.29a1.23,1.23,0,0,0,.19.2,14.15,14.15,0,0,1,1.11,1.08l.15.16.25.32c.1.15.35.45.51.73l0,.18c0,.15.09.3.13.45v0a.75.75,0,0,1-.05.16l-.22.22c.07-.06.13-.1.14-.09s0,.05-.14.1l0,0c-.53.54-.21.18,0,0l-.68.4a.08.08,0,0,1,.08,0l-.3.11c-.16.09-.19.09-.14.05l-.08,0c-.51.18-1,.32-1.55.46s-1.22.23-1.82.38h0l-1.16.11a41.67,41.67,0,0,1-7.49-.23l-.94-.1-.31,0-1.63-.24L61,511l-7.62-1.22A290.86,290.86,0,0,1,23,503.45c-2.19-.6-4.37-1.2-6.5-2-.26-.13-.53-.25-.79-.39a13.89,13.89,0,0,1-1.43-.86L14,500l-.34-.3c-.43-.41-.81-.84-1.2-1.28l0-.05c-.17-.29-.38-.56-.56-.85-.29-.49-.52-1-.78-1.48-.09-.29-.2-.57-.29-.85-.17-.52-.31-1-.43-1.57,0-.11-.2-1.22-.27-1.46s0-.3,0-.45a23.56,23.56,0,0,1-.07-2.52c1.31-19.13,1.75-38.25,1.52-57.42,0-2.55,0-5.1.05-7.65,0-1.18.11-2.35.2-3.53.05-.62.11-1.25.18-1.87l.09-.83v-.12c0-.06,0-.13,0-.22A62.41,62.41,0,0,1,16,404c.09-.24.19-.48.29-.72s.08-.19.13-.29c.33-.76.68-1.52,1-2.26a47,47,0,0,1,2.6-4.72c.47-.75,1-1.48,1.49-2.2l.33-.46,1-1.21c.63-.72,1.29-1.42,2-2.08.38-.37.76-.72,1.15-1.06s.67-.49,1-.75c0,0,0-.13.22-.25l.09-.07s.05,0,.06-.06l0,.05c.27-.19.52-.38.79-.55.51-.35,1-.69,1.57-1s1.11-.64,1.67-.93l.88-.43.6-.27a34.41,34.41,0,0,1,4.42-1.41c.79-.19,1.58-.32,2.37-.47l.21,0,1-.1a37.05,37.05,0,0,1,7.37.1,4.19,4.19,0,0,0,.63.07h-.08c.43.07.86.14,1.29.23.78.15,1.57.33,2.34.52,58,12.35,116.62,23,175.77,27.65,34,2.66,68.95,3.67,102.62-2.69a141.77,141.77,0,0,0,30.72-9.21c10.82-4.73,19.86-12.21,29.85-18.37a158.94,158.94,0,0,1,80.95-23.66c11.46-.23,23.07.17,34.26-2.72a61.18,61.18,0,0,0,23.17-11.38c5.84-4.71,10.46-10.82,14.72-16.94,7.73-11.09,14.45-22.9,21.14-34.63q15.3-26.81,29.45-54.26c0,5.46.33,10.94.62,16.43.8,15.05.09,30.17-1,45.18-1.49,20.56-3.78,41.05-6.17,61.51-3.17,27.24-6.59,54.46-9.89,81.69q-2.25,18.66-4.43,37.32Q551.54,484.78,528.64,488.59Zm375.92,135c-.62.15-1.24.26-1.87.36l.55-.06-.5.06h-.16c-.41.07-1.15.13-.2,0l-.9.09c-1.86.15-3.74.19-5.61.16-2.28,0-4.55-.16-6.82-.36-1.34-.11-2.68-.24-4-.4l-2.07-.25-.64-.08.22,0-.39,0-.15,0-.54-.08c-7.15-1-14.26-2.37-21.32-3.88-22.15-4.74-44-10.9-65.7-17.38-2.32-.69-4.63-1.4-6.94-2.1-.1-1-.19-2-.29-3.07a42.9,42.9,0,0,1,.1-6.8q.41-6.57.6-13.15c.21-7.47.21-15,0-22.43-.34-11.51-1.44-22.92-2.6-34.37-1.56-15.52-2.48-31.11-2.95-46.7-.3-10.19-.37-20.38-.11-30.57q.6-24.32,3.34-48.52l.42-3.54a110,110,0,0,0,8.08-12.9c5.45-10.07,10.09-20.61,14.51-31.17a438.81,438.81,0,0,0,21.7-66.21q4.62-19.08,7.51-38.53c.38-2.57-.64-5.5-3.49-6.15-2.38-.54-5.74.73-6.15,3.49a439.94,439.94,0,0,1-15.49,67.23q-5.17,16.41-11.62,32.38c-.52,1.29-1,2.57-1.57,3.85l-.85,2-.08.17L798,346c-1.12,2.62-2.27,5.22-3.44,7.82-2.29,5.06-4.65,10.09-7.17,15a125.65,125.65,0,0,1-8.12,13.87,5.22,5.22,0,0,0-2.76,3.82l0,.05q-1.37,1.68-2.83,3.29c-.94,1-1.92,2-2.93,3q-3.54,2.87-7.1,5.66l-2.77,2.16-.17.13-.9.69-1.63,1.25c-2.11,1.6-4.23,3.2-6.37,4.78q-12.7,9.4-25.9,18.11a587.6,587.6,0,0,1-54.54,31.93c-2.57,1.32-5.14,2.63-7.73,3.91-1.37.67-2.74,1.33-4.13,2l-2.08.94-.84.37L656,465l-.71.29-1,.42q-1.07.42-2.13.81c-1.35.5-2.72,1-4.09,1.39-.94.29-1.89.55-2.84.8,4.39-25.81,9.34-51.51,14.23-77.23,5-26.11,9.88-52.24,14.11-78.49s7.79-52.63,10-79.13q.4-4.92.77-9.86c.19-2.7-2.44-5-5-5a5.09,5.09,0,0,0-5,5c-1.89,26.14-5.12,52.15-9.13,78-4.08,26.27-8.91,52.42-13.86,78.53s-10,52-14.51,78c-4.58,26.26-8.65,52.64-11.58,79.14a708.8,708.8,0,0,0-4.63,78.69c0,2,0,4,.05,6-1.85-.2-3.7-.39-5.53-.56-4.84-.45-9.68-.77-14.52-1-6.44-.3-6.42,9.7,0,10,23.3,1.06,47.52,4,69.08,13.78,10.83,4.94,20.8,11.76,27.28,21.75,3,4.58,6.59,9.88,7.22,15.45a5.81,5.81,0,0,1-.16,2c-.07.1-.38.72-.44.79a6.51,6.51,0,0,1-1.48,1.11c-2.78,1.6-6.52,1.31-9.59,1-4.42-.54-8.81-1.69-13.17-2.6L664.13,681l-31.39-6.52c-9.19-1.91-18.49-3.56-27.57-6-7.58-2-15.47-4.84-21.51-10-12-10.38-14.06-26.59-13.73-41.59.19-8.64,1.16-17.24,2-25.82q1.53-15.29,3.15-30.55Q580.63,508,587,455.71c3.28-27.29,6.68-54.57,9.95-81.87,2.49-20.92,4.94-41.85,6.77-62.84,1.36-15.57,2.42-31.21,2.27-46.84-.08-8.91-1-17.78-1.06-26.69a92.19,92.19,0,0,1,3-25.61q5-10.05,9.77-20.18c16.45-22,46.54-28.65,72.48-30.15,6-.35,12-.43,17.93-.33a4.47,4.47,0,0,0,3.85-1.79,4.33,4.33,0,0,0,1-1.88,5.15,5.15,0,0,0-2.93-5.95,3.26,3.26,0,0,0-.44-.15l-.12-.05q-3-.66-5.87-1.59c-.88-.28-1.75-.58-2.61-.89l-1.38-.52-.69-.27-.23-.1-.44-.18-.67-.3q-.6-.25-1.17-.54-1.5-.7-3-1.47-2.61-1.38-5.1-3c-1.66-1.06-3.26-2.19-4.84-3.36l-.28-.21a1.77,1.77,0,0,0-.17-.14l-1.14-.93c-.76-.63-1.5-1.27-2.24-1.93a73.42,73.42,0,0,1-8.23-8.68l-.45-.57c-.27-.35-.53-.69-.79-1-.62-.84-1.21-1.69-1.79-2.56-1.09-1.63-2.12-3.31-3.07-5s-1.83-3.48-2.62-5.27l-.23-.51a7.32,7.32,0,0,0-.55-1.36c-.39-1-.75-2-1.1-3-.66-2-1.23-4-1.7-6a37.07,37.07,0,0,1-1.16-6.17c0,.29.09.7,0,0l-.09-.78c-.05-.45-.09-.91-.14-1.37-.1-1.1-.17-2.21-.22-3.32-.09-2.1-.09-4.19,0-6.29,0-1,.11-2.09.2-3.13,0-.53.09-1,.15-1.57,0-.26,0-.52.08-.78,0,0,0-.2.05-.36s.12-.89.15-1c.08-.52.16-1,.25-1.55.2-1.1.41-2.19.66-3.27q.71-3.17,1.68-6.26a34.68,34.68,0,0,1,2.16-5.9c-.52,1,.13-.28.28-.61s.43-1,.65-1.42c.45-.95.92-1.88,1.41-2.81,1-1.91,2.12-3.76,3.3-5.57.54-.82,1.1-1.63,1.67-2.42.31-.43.62-.84.94-1.26l-.05,0,.05-.06.25-.31.33-.42q2-2.55,4.26-5a91.13,91.13,0,0,1,8.72-8.3c.74-.62,1.49-1.22,2.24-1.81l.42-.32c.37-.29.75-.57,1.14-.85,1.54-1.12,3.12-2.2,4.72-3.24a104.87,104.87,0,0,1,9.34-5.31c1.49-.74,3-1.46,4.53-2.13l.83-.36-.07,0c.1,0,.19-.08.29-.12l.07,0,.09,0,.1,0,2.21-.88A111,111,0,0,1,726.87,12q3.27-.72,6.57-1.22l1.08-.16.48-.06c.79-.09,1.58-.18,2.37-.25,2.64-.24,5.28-.3,7.92-.28q3.62,0,7.21.31c1.44.11,2.87.26,4.3.44l.31,0,.95.14c.8.12,1.6.26,2.4.4a90.83,90.83,0,0,1,10.66,2.56q2.77.85,5.48,1.89l1.39.55a3.41,3.41,0,0,1,.7.28s-.85-.36-.32-.13c1,.44,2,.88,3,1.35a77.61,77.61,0,0,1,11.4,6.71c.47.33.93.66,1.39,1l.73.56c.84.67,1.68,1.35,2.49,2.06,1.4,1.21,2.76,2.46,4.07,3.77s2.48,2.56,3.65,3.9c.59.67,1.17,1.35,1.73,2l.84,1c.08.1.16.21.25.31a95.8,95.8,0,0,1,6,9,99.76,99.76,0,0,1,4.84,9.64l.06.12.08.21c.17.41.34.82.5,1.23.32.82.64,1.65.94,2.48q.93,2.57,1.72,5.17a100,100,0,0,1,2.53,10.38c.15.81.29,1.61.42,2.42.07.43.14.86.2,1.29,0,.15.05.31.07.47v0s0,0,0,0l0,.16a2.41,2.41,0,0,1,0,.47c.06.64.21,1.3.28,1.91.09.86.16,1.72.23,2.58A94.6,94.6,0,0,1,826,97.12c-.06,1.73-.16,3.46-.31,5.19-.07.77-.15,1.55-.24,2.32,0,.13-.11.87-.13,1s-.05.4-.08.6a81.24,81.24,0,0,1-2,9.51q-.66,2.35-1.47,4.67c-.25.7-.5,1.38-.77,2.07-.14.36-.29.71-.43,1.07,0,.09-.08.19-.13.29a60,60,0,0,1-4.35,8.19c-.78,1.23-1.61,2.41-2.48,3.57l-.27.35c-.39.48-.79.95-1.19,1.41-.82.94-1.67,1.86-2.55,2.74-1.47,1.46-3,2.81-4.62,4.11l-.1.08-.32.23-1.11.81q-1,.72-2.1,1.41a5.6,5.6,0,0,0-1.7,1.76,4.66,4.66,0,0,0-.75,2.18c0,.05,0,.11,0,.16v.07a4.32,4.32,0,0,0,.68,2.67,3.75,3.75,0,0,0,.38.51l0,0,.21.24a4.86,4.86,0,0,0,4.63,1.64,4.26,4.26,0,0,0,1.19-.39,60.94,60.94,0,0,1,21.77-3.77,51.76,51.76,0,0,1,13.93,2c.62.18,1.23.39,1.85.6L845,155l1.6.63c7.4,3.17,14.87,7.55,20.24,13.62.26.29,1.53,2,.66.75.32.45.65.89.95,1.35a34,34,0,0,1,2,3.5c.26.52.5,1,.75,1.57,0,.11.17.41.23.58,0-.09-.08-.23-.18-.48l.39,1c.48,1.26.9,2.54,1.27,3.84a69.42,69.42,0,0,1,1.85,8.82h0v.09c0,.34.09.69.13,1q.14,1.26.24,2.52c.14,1.58.23,3.17.29,4.76a153.57,153.57,0,0,1-.75,20.9c-.38,4-.79,7.19-1.26,10.38q-.81,5.43-1.82,10.83c-1.34,7.25-2.93,14.45-4.68,21.61-5.33,21.8-12.85,42.87-19.09,64.4a585.63,585.63,0,0,0-18.94,95.61c-4.89,42.22-5.48,84.88-2.79,127.28q.55,8.6,1.28,17.18l-1.75.13c-2.6.24-5.13,2.13-5,5,.11,2.51,2.21,5.26,5,5a91,91,0,0,1,12.57-.27q1.92.09,3.84.27l1.82.19,1.13.13h0l.54.08a89.31,89.31,0,0,1,8.9,1.8,83.71,83.71,0,0,1,10,3.24l1.07.43.87.37,2.06.94q2.12,1,4.18,2.12c2.67,1.44,5.29,3,7.83,4.67q1.83,1.2,3.61,2.46c.54.39,1.07.77,1.6,1.17l1,.7.87.67.29.23.91.72,1.49,1.23q1.74,1.45,3.43,3c2,1.85,4,3.78,5.86,5.8.83.9,1.63,1.82,2.42,2.76l1,1.23v0h0a1.35,1.35,0,0,1,.19.32c.17.22.37.43.51.63a38.27,38.27,0,0,1,3.27,5.24c.18.35.34.71.51,1.06a2.09,2.09,0,0,1,.08.23,15,15,0,0,1,.59,2c0-.23.09.1.1.4h0c0,.19.06.39.1.57l-.1-.42c0,.18,0,.36,0,.54l.07-.06v0a.88.88,0,0,0-.05.15v0c0,.08,0,.14,0,.2l-.07.14-.07.11h0l0,.05v0l-.17.18,0,0a9.62,9.62,0,0,1-1.08.61l-.41.15A17.4,17.4,0,0,1,904.56,623.55Zm3.4-1.26h0v0Z"/><path d="M908,622.06l.16-.49s0-.09,0-.14a1.61,1.61,0,0,0-.18.66Z"/><path d="M903.09,611.18a2.36,2.36,0,0,1-.2-.32h0C903.21,611.6,903.24,611.46,903.09,611.18Z"/><path d="M902.64,623.92h.05l-.31,0Z"/><path d="M908.15,620.73c0-.14-.07-.27-.1-.41,0,.09,0,.27.1.57Z"/><path d="M881.74,623l.41.06.17,0-.86-.12Z"/><path d="M671.36,45.63l-.25.31h0Z"/><path d="M708.27,17.77l-.16.07-.22.1C708.88,17.59,708.56,17.67,708.27,17.77Z"/><path d="M825.26,82.25q0-.31,0-.63h0C825.2,82.27,825.24,82.36,825.26,82.25Z"/><path d="M27.33,388h0a2.33,2.33,0,0,1-.31.32S27.14,388.21,27.33,388Z"/><path d="M48.73,382.92h-.06C48.25,382.85,47.48,383,48.73,382.92Z"/><path d="M80.88,510.66h0Z"/><path d="M80,511.18l.11-.06.11-.06a1.2,1.2,0,0,0-.36.17Z"/></g></g></svg>